<ttFont>
<head>
    <!-- Most of this table will be recalculated by the compiler -->
    <tableVersion value="1.0"/>
    <fontRevision value="4.0"/>
    <checkSumAdjustment value="0x2cd833d9"/>
    <magicNumber value="0x5f0f3cf5"/>
    <flags value="00001000 00011011"/>
    <unitsPerEm value="2048"/>
    <created value="Wed Jan 22 14:54:36 2014"/>
    <modified value="Tue Aug 18 21:34:41 2020"/>
    <xMin value="-542"/>
    <yMin value="-668"/>
    <xMax value="2494"/>
    <yMax value="2004"/>
    <macStyle value="00000000 00000000"/>
    <lowestRecPPEM value="3"/>
    <fontDirectionHint value="1"/>
    <indexToLocFormat value="0"/>
    <glyphDataFormat value="0"/>
  </head>
    <TTGlyph name=".notdef" xMin="284" yMin="0" xMax="1308" yMax="1280">
      <contour>
        <pt x="284" y="0" on="1"/>
        <pt x="284" y="1280" on="1"/>
        <pt x="1308" y="1280" on="1"/>
        <pt x="1308" y="0" on="1"/>
      </contour>
      <contour>
        <pt x="316" y="32" on="1"/>
        <pt x="1276" y="32" on="1"/>
        <pt x="1276" y="1248" on="1"/>
        <pt x="316" y="1248" on="1"/>
      </contour>
    </TTGlyph>
    <TTGlyph name="A" xMin="16" yMin="0" xMax="1456" yMax="1387">
      <contour>
        <pt x="937" y="454" on="1"/>
        <pt x="412" y="454" on="1"/>
        <pt x="320" y="240" on="1"/>
        <pt x="286" y="161" on="0"/>
        <pt x="286" y="122" on="1"/>
        <pt x="286" y="91" on="0"/>
        <pt x="345" y="44" on="0"/>
        <pt x="443" y="37" on="1"/>
        <pt x="443" y="0" on="1"/>
        <pt x="16" y="0" on="1"/>
        <pt x="16" y="37" on="1"/>
        <pt x="101" y="52" on="0"/>
        <pt x="126" y="76" on="1"/>
        <pt x="177" y="124" on="0"/>
        <pt x="239" y="271" on="1"/>
        <pt x="716" y="1387" on="1"/>
        <pt x="751" y="1387" on="1"/>
        <pt x="1223" y="259" on="1"/>
        <pt x="1280" y="123" on="0"/>
        <pt x="1373" y="42" on="0"/>
        <pt x="1456" y="37" on="1"/>
        <pt x="1456" y="0" on="1"/>
        <pt x="921" y="0" on="1"/>
        <pt x="921" y="37" on="1"/>
        <pt x="1002" y="41" on="0"/>
        <pt x="1059" y="87" on="0"/>
        <pt x="1059" y="120" on="1"/>
        <pt x="1059" y="164" on="0"/>
        <pt x="1019" y="259" on="1"/>
      </contour>
      <contour>
        <pt x="909" y="528" on="1"/>
        <pt x="679" y="1076" on="1"/>
        <pt x="443" y="528" on="1"/>
      </contour>
    </TTGlyph>
    <TTGlyph name="B" xMin="34" yMin="0" xMax="1254" yMax="1356">
      <contour>
        <pt x="946" y="692" on="1"/>
        <pt x="1087" y="662" on="0"/>
        <pt x="1157" y="596" on="1"/>
        <pt x="1254" y="504" on="0"/>
        <pt x="1254" y="371" on="1"/>
        <pt x="1254" y="270" on="0"/>
        <pt x="1126" y="85" on="0"/>
        <pt x="903" y="0" on="0"/>
        <pt x="674" y="0" on="1"/>
        <pt x="34" y="0" on="1"/>
        <pt x="34" y="37" on="1"/>
        <pt x="85" y="37" on="1"/>
        <pt x="170" y="37" on="0"/>
        <pt x="207" y="91" on="1"/>
        <pt x="230" y="126" on="0"/>
        <pt x="230" y="240" on="1"/>
        <pt x="230" y="1116" on="1"/>
        <pt x="230" y="1242" on="0"/>
        <pt x="201" y="1275" on="1"/>
        <pt x="162" y="1319" on="0"/>
        <pt x="85" y="1319" on="1"/>
        <pt x="34" y="1319" on="1"/>
        <pt x="34" y="1356" on="1"/>
        <pt x="620" y="1356" on="1"/>
        <pt x="784" y="1356" on="0"/>
        <pt x="883" y="1332" on="1"/>
        <pt x="1033" y="1296" on="0"/>
        <pt x="1191" y="1113" on="0"/>
        <pt x="1191" y="994" on="1"/>
        <pt x="1191" y="892" on="0"/>
        <pt x="1067" y="731" on="0"/>
      </contour>
      <contour>
        <pt x="422" y="746" on="1"/>
        <pt x="459" y="739" on="0"/>
        <pt x="554" y="732" on="0"/>
        <pt x="611" y="732" on="1"/>
        <pt x="757" y="732" on="0"/>
        <pt x="904" y="795" on="0"/>
        <pt x="982" y="925" on="0"/>
        <pt x="982" y="1002" on="1"/>
        <pt x="982" y="1121" on="0"/>
        <pt x="788" y="1289" on="0"/>
        <pt x="602" y="1289" on="1"/>
        <pt x="502" y="1289" on="0"/>
        <pt x="422" y="1267" on="1"/>
      </contour>
      <contour>
        <pt x="422" y="98" on="1"/>
        <pt x="538" y="71" on="0"/>
        <pt x="651" y="71" on="1"/>
        <pt x="832" y="71" on="0"/>
        <pt x="1022" y="234" on="0"/>
        <pt x="1022" y="354" on="1"/>
        <pt x="1022" y="433" on="0"/>
        <pt x="936" y="579" on="0"/>
        <pt x="742" y="663" on="0"/>
        <pt x="599" y="663" on="1"/>
        <pt x="537" y="663" on="0"/>
        <pt x="449" y="659" on="0"/>
        <pt x="422" y="654" on="1"/>
      </contour>
    </TTGlyph>
    <TTGlyph name="C" xMin="74" yMin="-31" xMax="1295" yMax="1387">
      <contour>
        <pt x="1233" y="1387" on="1"/>
        <pt x="1264" y="926" on="1"/>
        <pt x="1233" y="926" on="1"/>
        <pt x="1171" y="1133" on="0"/>
        <pt x="941" y="1315" on="0"/>
        <pt x="780" y="1315" on="1"/>
        <pt x="645" y="1315" on="0"/>
        <pt x="427" y="1178" on="0"/>
        <pt x="302" y="878" on="0"/>
        <pt x="302" y="655" on="1"/>
        <pt x="302" y="471" on="0"/>
        <pt x="420" y="201" on="0"/>
        <pt x="657" y="57" on="0"/>
        <pt x="809" y="57" on="1"/>
        <pt x="941" y="57" on="0"/>
        <pt x="1143" y="170" on="0"/>
        <pt x="1264" y="338" on="1"/>
        <pt x="1295" y="318" on="1"/>
        <pt x="1193" y="137" on="0"/>
        <pt x="921" y="-31" on="0"/>
        <pt x="734" y="-31" on="1"/>
        <pt x="397" y="-31" on="0"/>
        <pt x="212" y="219" on="1"/>
        <pt x="74" y="405" on="0"/>
        <pt x="74" y="657" on="1"/>
        <pt x="74" y="860" on="0"/>
        <pt x="256" y="1200" on="0"/>
        <pt x="575" y="1387" on="0"/>
        <pt x="764" y="1387" on="1"/>
        <pt x="911" y="1387" on="0"/>
        <pt x="1054" y="1315" on="1"/>
        <pt x="1096" y="1293" on="0"/>
        <pt x="1114" y="1293" on="1"/>
        <pt x="1141" y="1293" on="0"/>
        <pt x="1161" y="1312" on="1"/>
        <pt x="1187" y="1339" on="0"/>
        <pt x="1198" y="1387" on="1"/>
      </contour>
    </TTGlyph>
    <TTGlyph name="D" xMin="35" yMin="0" xMax="1401" yMax="1356">
      <contour>
        <pt x="35" y="0" on="1"/>
        <pt x="35" y="37" on="1"/>
        <pt x="86" y="37" on="1"/>
        <pt x="172" y="37" on="0"/>
        <pt x="208" y="92" on="1"/>
        <pt x="230" y="125" on="0"/>
        <pt x="230" y="240" on="1"/>
        <pt x="230" y="1116" on="1"/>
        <pt x="230" y="1243" on="0"/>
        <pt x="202" y="1275" on="1"/>
        <pt x="163" y="1319" on="0"/>
        <pt x="86" y="1319" on="1"/>
        <pt x="35" y="1319" on="1"/>
        <pt x="35" y="1356" on="1"/>
        <pt x="587" y="1356" on="1"/>
        <pt x="891" y="1356" on="0"/>
        <pt x="1208" y="1218" on="0"/>
        <pt x="1401" y="896" on="0"/>
        <pt x="1401" y="685" on="1"/>
        <pt x="1401" y="402" on="0"/>
        <pt x="1229" y="212" on="1"/>
        <pt x="1036" y="0" on="0"/>
        <pt x="641" y="0" on="1"/>
      </contour>
      <contour>
        <pt x="422" y="98" on="1"/>
        <pt x="549" y="70" on="0"/>
        <pt x="635" y="70" on="1"/>
        <pt x="867" y="70" on="0"/>
        <pt x="1173" y="396" on="0"/>
        <pt x="1173" y="675" on="1"/>
        <pt x="1173" y="956" on="0"/>
        <pt x="867" y="1280" on="0"/>
        <pt x="627" y="1280" on="1"/>
        <pt x="537" y="1280" on="0"/>
        <pt x="422" y="1251" on="1"/>
      </contour>
    </TTGlyph>
    <TTGlyph name="E" xMin="42" yMin="0" xMax="1204" yMax="1356">
      <contour>
        <pt x="428" y="1282" on="1"/>
        <pt x="428" y="746" on="1"/>
        <pt x="726" y="746" on="1"/>
        <pt x="842" y="746" on="0"/>
        <pt x="881" y="781" on="1"/>
        <pt x="933" y="827" on="0"/>
        <pt x="939" y="943" on="1"/>
        <pt x="976" y="943" on="1"/>
        <pt x="976" y="471" on="1"/>
        <pt x="939" y="471" on="1"/>
        <pt x="925" y="570" on="0"/>
        <pt x="911" y="598" on="1"/>
        <pt x="893" y="633" on="0"/>
        <pt x="811" y="673" on="0"/>
        <pt x="726" y="673" on="1"/>
        <pt x="428" y="673" on="1"/>
        <pt x="428" y="226" on="1"/>
        <pt x="428" y="136" on="0"/>
        <pt x="444" y="97" on="0"/>
        <pt x="484" y="74" on="0"/>
        <pt x="540" y="74" on="1"/>
        <pt x="770" y="74" on="1"/>
        <pt x="885" y="74" on="0"/>
        <pt x="989" y="106" on="0"/>
        <pt x="1037" y="153" on="1"/>
        <pt x="1099" y="215" on="0"/>
        <pt x="1164" y="340" on="1"/>
        <pt x="1204" y="340" on="1"/>
        <pt x="1087" y="0" on="1"/>
        <pt x="42" y="0" on="1"/>
        <pt x="42" y="37" on="1"/>
        <pt x="90" y="37" on="1"/>
        <pt x="138" y="37" on="0"/>
        <pt x="181" y="60" on="1"/>
        <pt x="213" y="76" on="0"/>
        <pt x="236" y="140" on="0"/>
        <pt x="236" y="239" on="1"/>
        <pt x="236" y="1120" on="1"/>
        <pt x="236" y="1249" on="0"/>
        <pt x="210" y="1279" on="1"/>
        <pt x="174" y="1319" on="0"/>
        <pt x="90" y="1319" on="1"/>
        <pt x="42" y="1319" on="1"/>
        <pt x="42" y="1356" on="1"/>
        <pt x="1087" y="1356" on="1"/>
        <pt x="1102" y="1059" on="1"/>
        <pt x="1063" y="1059" on="1"/>
        <pt x="1042" y="1166" on="0"/>
        <pt x="991" y="1246" on="0"/>
        <pt x="941" y="1267" on="1"/>
        <pt x="901" y="1282" on="0"/>
        <pt x="800" y="1282" on="1"/>
      </contour>
    </TTGlyph>
    <TTGlyph name="F" xMin="33" yMin="0" xMax="1055" yMax="1356">
      <contour>
        <pt x="419" y="1282" on="1"/>
        <pt x="419" y="749" on="1"/>
        <pt x="666" y="749" on="1"/>
        <pt x="751" y="749" on="0"/>
        <pt x="830" y="824" on="0"/>
        <pt x="843" y="935" on="1"/>
        <pt x="880" y="935" on="1"/>
        <pt x="880" y="476" on="1"/>
        <pt x="843" y="476" on="1"/>
        <pt x="842" y="555" on="0"/>
        <pt x="803" y="629" on="0"/>
        <pt x="734" y="666" on="0"/>
        <pt x="666" y="666" on="1"/>
        <pt x="419" y="666" on="1"/>
        <pt x="419" y="240" on="1"/>
        <pt x="419" y="137" on="0"/>
        <pt x="432" y="104" on="1"/>
        <pt x="442" y="79" on="0"/>
        <pt x="474" y="61" on="1"/>
        <pt x="518" y="37" on="0"/>
        <pt x="566" y="37" on="1"/>
        <pt x="615" y="37" on="1"/>
        <pt x="615" y="0" on="1"/>
        <pt x="33" y="0" on="1"/>
        <pt x="33" y="37" on="1"/>
        <pt x="81" y="37" on="1"/>
        <pt x="165" y="37" on="0"/>
        <pt x="203" y="86" on="1"/>
        <pt x="227" y="118" on="0"/>
        <pt x="227" y="240" on="1"/>
        <pt x="227" y="1116" on="1"/>
        <pt x="227" y="1219" on="0"/>
        <pt x="214" y="1252" on="1"/>
        <pt x="204" y="1277" on="0"/>
        <pt x="173" y="1295" on="1"/>
        <pt x="130" y="1319" on="0"/>
        <pt x="81" y="1319" on="1"/>
        <pt x="33" y="1319" on="1"/>
        <pt x="33" y="1356" on="1"/>
        <pt x="1042" y="1356" on="1"/>
        <pt x="1055" y="1058" on="1"/>
        <pt x="1020" y="1058" on="1"/>
        <pt x="994" y="1153" on="0"/>
        <pt x="925" y="1242" on="0"/>
        <pt x="824" y="1282" on="0"/>
        <pt x="718" y="1282" on="1"/>
      </contour>
    </TTGlyph>
    <TTGlyph name="G" xMin="72" yMin="-31" xMax="1450" yMax="1387">
      <contour>
        <pt x="1257" y="1387" on="1"/>
        <pt x="1292" y="959" on="1"/>
        <pt x="1257" y="959" on="1"/>
        <pt x="1204" y="1119" on="0"/>
        <pt x="1120" y="1200" on="1"/>
        <pt x="999" y="1317" on="0"/>
        <pt x="809" y="1317" on="1"/>
        <pt x="550" y="1317" on="0"/>
        <pt x="415" y="1112" on="1"/>
        <pt x="302" y="939" on="0"/>
        <pt x="302" y="700" on="1"/>
        <pt x="302" y="506" on="0"/>
        <pt x="452" y="186" on="0"/>
        <pt x="695" y="37" on="0"/>
        <pt x="823" y="37" on="1"/>
        <pt x="898" y="37" on="0"/>
        <pt x="1038" y="75" on="0"/>
        <pt x="1103" y="112" on="1"/>
        <pt x="1103" y="504" on="1"/>
        <pt x="1103" y="606" on="0"/>
        <pt x="1072" y="669" on="0"/>
        <pt x="1007" y="702" on="0"/>
        <pt x="925" y="702" on="1"/>
        <pt x="925" y="740" on="1"/>
        <pt x="1450" y="740" on="1"/>
        <pt x="1450" y="702" on="1"/>
        <pt x="1425" y="702" on="1"/>
        <pt x="1347" y="702" on="0"/>
        <pt x="1318" y="650" on="1"/>
        <pt x="1298" y="613" on="0"/>
        <pt x="1298" y="504" on="1"/>
        <pt x="1298" y="89" on="1"/>
        <pt x="1183" y="27" on="0"/>
        <pt x="959" y="-31" on="0"/>
        <pt x="822" y="-31" on="1"/>
        <pt x="429" y="-31" on="0"/>
        <pt x="225" y="221" on="1"/>
        <pt x="72" y="410" on="0"/>
        <pt x="72" y="657" on="1"/>
        <pt x="72" y="836" on="0"/>
        <pt x="158" y="1000" on="1"/>
        <pt x="260" y="1195" on="0"/>
        <pt x="438" y="1300" on="1"/>
        <pt x="587" y="1387" on="0"/>
        <pt x="790" y="1387" on="1"/>
        <pt x="864" y="1387" on="0"/>
        <pt x="985" y="1363" on="0"/>
        <pt x="1096" y="1322" on="1"/>
        <pt x="1152" y="1301" on="0"/>
        <pt x="1171" y="1301" on="1"/>
        <pt x="1190" y="1301" on="0"/>
        <pt x="1217" y="1336" on="0"/>
        <pt x="1220" y="1387" on="1"/>
      </contour>
    </TTGlyph>
    <TTGlyph name="H" xMin="35" yMin="0" xMax="1437" yMax="1356">
      <contour>
        <pt x="421" y="727" on="1"/>
        <pt x="1051" y="727" on="1"/>
        <pt x="1051" y="1115" on="1"/>
        <pt x="1051" y="1219" on="0"/>
        <pt x="1038" y="1252" on="1"/>
        <pt x="1028" y="1277" on="0"/>
        <pt x="996" y="1295" on="1"/>
        <pt x="953" y="1319" on="0"/>
        <pt x="905" y="1319" on="1"/>
        <pt x="857" y="1319" on="1"/>
        <pt x="857" y="1356" on="1"/>
        <pt x="1437" y="1356" on="1"/>
        <pt x="1437" y="1319" on="1"/>
        <pt x="1389" y="1319" on="1"/>
        <pt x="1341" y="1319" on="0"/>
        <pt x="1298" y="1296" on="1"/>
        <pt x="1266" y="1280" on="0"/>
        <pt x="1243" y="1215" on="0"/>
        <pt x="1243" y="1115" on="1"/>
        <pt x="1243" y="240" on="1"/>
        <pt x="1243" y="137" on="0"/>
        <pt x="1256" y="104" on="1"/>
        <pt x="1266" y="79" on="0"/>
        <pt x="1297" y="61" on="1"/>
        <pt x="1341" y="37" on="0"/>
        <pt x="1389" y="37" on="1"/>
        <pt x="1437" y="37" on="1"/>
        <pt x="1437" y="0" on="1"/>
        <pt x="857" y="0" on="1"/>
        <pt x="857" y="37" on="1"/>
        <pt x="905" y="37" on="1"/>
        <pt x="988" y="37" on="0"/>
        <pt x="1026" y="86" on="1"/>
        <pt x="1051" y="118" on="0"/>
        <pt x="1051" y="240" on="1"/>
        <pt x="1051" y="653" on="1"/>
        <pt x="421" y="653" on="1"/>
        <pt x="421" y="240" on="1"/>
        <pt x="421" y="137" on="0"/>
        <pt x="434" y="104" on="1"/>
        <pt x="444" y="79" on="0"/>
        <pt x="476" y="61" on="1"/>
        <pt x="519" y="37" on="0"/>
        <pt x="567" y="37" on="1"/>
        <pt x="616" y="37" on="1"/>
        <pt x="616" y="0" on="1"/>
        <pt x="35" y="0" on="1"/>
        <pt x="35" y="37" on="1"/>
        <pt x="83" y="37" on="1"/>
        <pt x="167" y="37" on="0"/>
        <pt x="205" y="86" on="1"/>
        <pt x="229" y="118" on="0"/>
        <pt x="229" y="240" on="1"/>
        <pt x="229" y="1115" on="1"/>
        <pt x="229" y="1219" on="0"/>
        <pt x="216" y="1252" on="1"/>
        <pt x="206" y="1277" on="0"/>
        <pt x="175" y="1295" on="1"/>
        <pt x="131" y="1319" on="0"/>
        <pt x="83" y="1319" on="1"/>
        <pt x="35" y="1319" on="1"/>
        <pt x="35" y="1356" on="1"/>
        <pt x="616" y="1356" on="1"/>
        <pt x="616" y="1319" on="1"/>
        <pt x="567" y="1319" on="1"/>
        <pt x="519" y="1319" on="0"/>
        <pt x="476" y="1296" on="1"/>
        <pt x="445" y="1280" on="0"/>
        <pt x="421" y="1215" on="0"/>
        <pt x="421" y="1115" on="1"/>
      </contour>
    </TTGlyph>
    <TTGlyph name="I" xMin="51" yMin="0" xMax="632" yMax="1356">
      <contour>
        <pt x="632" y="37" on="1"/>
        <pt x="632" y="0" on="1"/>
        <pt x="51" y="0" on="1"/>
        <pt x="51" y="37" on="1"/>
        <pt x="99" y="37" on="1"/>
        <pt x="183" y="37" on="0"/>
        <pt x="221" y="86" on="1"/>
        <pt x="245" y="118" on="0"/>
        <pt x="245" y="240" on="1"/>
        <pt x="245" y="1116" on="1"/>
        <pt x="245" y="1219" on="0"/>
        <pt x="232" y="1252" on="1"/>
        <pt x="222" y="1277" on="0"/>
        <pt x="191" y="1295" on="1"/>
        <pt x="147" y="1319" on="0"/>
        <pt x="99" y="1319" on="1"/>
        <pt x="51" y="1319" on="1"/>
        <pt x="51" y="1356" on="1"/>
        <pt x="632" y="1356" on="1"/>
        <pt x="632" y="1319" on="1"/>
        <pt x="583" y="1319" on="1"/>
        <pt x="500" y="1319" on="0"/>
        <pt x="462" y="1270" on="1"/>
        <pt x="437" y="1238" on="0"/>
        <pt x="437" y="1116" on="1"/>
        <pt x="437" y="240" on="1"/>
        <pt x="437" y="137" on="0"/>
        <pt x="450" y="104" on="1"/>
        <pt x="460" y="79" on="0"/>
        <pt x="492" y="61" on="1"/>
        <pt x="535" y="37" on="0"/>
        <pt x="583" y="37" on="1"/>
      </contour>
    </TTGlyph>
    <TTGlyph name="J" xMin="42" yMin="-31" xMax="785" yMax="1356">
      <contour>
        <pt x="204" y="1319" on="1"/>
        <pt x="204" y="1356" on="1"/>
        <pt x="785" y="1356" on="1"/>
        <pt x="785" y="1319" on="1"/>
        <pt x="736" y="1319" on="1"/>
        <pt x="653" y="1319" on="0"/>
        <pt x="615" y="1270" on="1"/>
        <pt x="591" y="1238" on="0"/>
        <pt x="591" y="1116" on="1"/>
        <pt x="591" y="453" on="1"/>
        <pt x="591" y="300" on="0"/>
        <pt x="524" y="110" on="0"/>
        <pt x="360" y="-31" on="0"/>
        <pt x="244" y="-31" on="1"/>
        <pt x="150" y="-31" on="0"/>
        <pt x="42" y="62" on="0"/>
        <pt x="42" y="122" on="1"/>
        <pt x="42" y="171" on="0"/>
        <pt x="67" y="196" on="1"/>
        <pt x="100" y="227" on="0"/>
        <pt x="144" y="227" on="1"/>
        <pt x="176" y="227" on="0"/>
        <pt x="227" y="185" on="0"/>
        <pt x="266" y="94" on="1"/>
        <pt x="289" y="40" on="0"/>
        <pt x="325" y="40" on="1"/>
        <pt x="352" y="40" on="0"/>
        <pt x="399" y="106" on="0"/>
        <pt x="399" y="190" on="1"/>
        <pt x="399" y="1116" on="1"/>
        <pt x="399" y="1219" on="0"/>
        <pt x="386" y="1252" on="1"/>
        <pt x="376" y="1277" on="0"/>
        <pt x="344" y="1295" on="1"/>
        <pt x="301" y="1319" on="0"/>
        <pt x="253" y="1319" on="1"/>
      </contour>
    </TTGlyph>
    <TTGlyph name="K" xMin="34" yMin="0" xMax="1496" yMax="1356">
      <contour>
        <pt x="612" y="752" on="1"/>
        <pt x="1112" y="255" on="1"/>
        <pt x="1235" y="132" on="0"/>
        <pt x="1409" y="43" on="0"/>
        <pt x="1496" y="37" on="1"/>
        <pt x="1496" y="0" on="1"/>
        <pt x="851" y="0" on="1"/>
        <pt x="851" y="37" on="1"/>
        <pt x="909" y="37" on="0"/>
        <pt x="960" y="76" on="0"/>
        <pt x="960" y="100" on="1"/>
        <pt x="960" y="124" on="0"/>
        <pt x="941" y="162" on="0"/>
        <pt x="888" y="214" on="1"/>
        <pt x="420" y="677" on="1"/>
        <pt x="420" y="240" on="1"/>
        <pt x="420" y="137" on="0"/>
        <pt x="433" y="104" on="1"/>
        <pt x="443" y="79" on="0"/>
        <pt x="475" y="61" on="1"/>
        <pt x="518" y="37" on="0"/>
        <pt x="566" y="37" on="1"/>
        <pt x="612" y="37" on="1"/>
        <pt x="612" y="0" on="1"/>
        <pt x="34" y="0" on="1"/>
        <pt x="34" y="37" on="1"/>
        <pt x="82" y="37" on="1"/>
        <pt x="166" y="37" on="0"/>
        <pt x="204" y="86" on="1"/>
        <pt x="228" y="118" on="0"/>
        <pt x="228" y="240" on="1"/>
        <pt x="228" y="1116" on="1"/>
        <pt x="228" y="1219" on="0"/>
        <pt x="215" y="1253" on="1"/>
        <pt x="205" y="1277" on="0"/>
        <pt x="174" y="1295" on="1"/>
        <pt x="130" y="1319" on="0"/>
        <pt x="82" y="1319" on="1"/>
        <pt x="34" y="1319" on="1"/>
        <pt x="34" y="1356" on="1"/>
        <pt x="612" y="1356" on="1"/>
        <pt x="612" y="1319" on="1"/>
        <pt x="566" y="1319" on="1"/>
        <pt x="519" y="1319" on="0"/>
        <pt x="475" y="1296" on="1"/>
        <pt x="444" y="1280" on="0"/>
        <pt x="420" y="1216" on="0"/>
        <pt x="420" y="1116" on="1"/>
        <pt x="420" y="701" on="1"/>
        <pt x="440" y="720" on="0"/>
        <pt x="557" y="828" on="1"/>
        <pt x="854" y="1100" on="0"/>
        <pt x="916" y="1191" on="1"/>
        <pt x="943" y="1231" on="0"/>
        <pt x="943" y="1261" on="1"/>
        <pt x="943" y="1284" on="0"/>
        <pt x="901" y="1319" on="0"/>
        <pt x="851" y="1319" on="1"/>
        <pt x="820" y="1319" on="1"/>
        <pt x="820" y="1356" on="1"/>
        <pt x="1318" y="1356" on="1"/>
        <pt x="1318" y="1319" on="1"/>
        <pt x="1274" y="1318" on="0"/>
        <pt x="1202" y="1296" on="0"/>
        <pt x="1098" y="1233" on="0"/>
        <pt x="1022" y="1163" on="1"/>
        <pt x="1000" y="1143" on="0"/>
        <pt x="819" y="958" on="1"/>
      </contour>
    </TTGlyph>
    <TTGlyph name="L" xMin="41" yMin="0" xMax="1207" yMax="1356">
      <contour>
        <pt x="1174" y="375" on="1"/>
        <pt x="1207" y="368" on="1"/>
        <pt x="1091" y="0" on="1"/>
        <pt x="41" y="0" on="1"/>
        <pt x="41" y="37" on="1"/>
        <pt x="92" y="37" on="1"/>
        <pt x="178" y="37" on="0"/>
        <pt x="215" y="93" on="1"/>
        <pt x="236" y="125" on="0"/>
        <pt x="236" y="241" on="1"/>
        <pt x="236" y="1116" on="1"/>
        <pt x="236" y="1243" on="0"/>
        <pt x="208" y="1275" on="1"/>
        <pt x="169" y="1319" on="0"/>
        <pt x="92" y="1319" on="1"/>
        <pt x="41" y="1319" on="1"/>
        <pt x="41" y="1356" on="1"/>
        <pt x="655" y="1356" on="1"/>
        <pt x="655" y="1319" on="1"/>
        <pt x="547" y="1320" on="0"/>
        <pt x="460" y="1278" on="0"/>
        <pt x="428" y="1214" on="0"/>
        <pt x="428" y="1093" on="1"/>
        <pt x="428" y="241" on="1"/>
        <pt x="428" y="158" on="0"/>
        <pt x="444" y="127" on="1"/>
        <pt x="456" y="106" on="0"/>
        <pt x="506" y="86" on="0"/>
        <pt x="637" y="86" on="1"/>
        <pt x="736" y="86" on="1"/>
        <pt x="892" y="86" on="0"/>
        <pt x="1018" y="132" on="0"/>
        <pt x="1122" y="249" on="0"/>
      </contour>
    </TTGlyph>
    <TTGlyph name="M" xMin="34" yMin="0" xMax="1778" yMax="1356">
      <contour>
        <pt x="838" y="0" on="1"/>
        <pt x="314" y="1141" on="1"/>
        <pt x="314" y="235" on="1"/>
        <pt x="314" y="110" on="0"/>
        <pt x="341" y="79" on="1"/>
        <pt x="378" y="37" on="0"/>
        <pt x="458" y="37" on="1"/>
        <pt x="506" y="37" on="1"/>
        <pt x="506" y="0" on="1"/>
        <pt x="34" y="0" on="1"/>
        <pt x="34" y="37" on="1"/>
        <pt x="82" y="37" on="1"/>
        <pt x="168" y="37" on="0"/>
        <pt x="204" y="89" on="1"/>
        <pt x="226" y="121" on="0"/>
        <pt x="226" y="235" on="1"/>
        <pt x="226" y="1121" on="1"/>
        <pt x="226" y="1211" on="0"/>
        <pt x="206" y="1251" on="1"/>
        <pt x="192" y="1280" on="0"/>
        <pt x="117" y="1319" on="0"/>
        <pt x="34" y="1319" on="1"/>
        <pt x="34" y="1356" on="1"/>
        <pt x="418" y="1356" on="1"/>
        <pt x="910" y="295" on="1"/>
        <pt x="1394" y="1356" on="1"/>
        <pt x="1778" y="1356" on="1"/>
        <pt x="1778" y="1319" on="1"/>
        <pt x="1731" y="1319" on="1"/>
        <pt x="1644" y="1319" on="0"/>
        <pt x="1608" y="1267" on="1"/>
        <pt x="1586" y="1235" on="0"/>
        <pt x="1586" y="1121" on="1"/>
        <pt x="1586" y="235" on="1"/>
        <pt x="1586" y="110" on="0"/>
        <pt x="1614" y="79" on="1"/>
        <pt x="1651" y="37" on="0"/>
        <pt x="1731" y="37" on="1"/>
        <pt x="1778" y="37" on="1"/>
        <pt x="1778" y="0" on="1"/>
        <pt x="1202" y="0" on="1"/>
        <pt x="1202" y="37" on="1"/>
        <pt x="1250" y="37" on="1"/>
        <pt x="1337" y="37" on="0"/>
        <pt x="1372" y="89" on="1"/>
        <pt x="1394" y="121" on="0"/>
        <pt x="1394" y="235" on="1"/>
        <pt x="1394" y="1141" on="1"/>
        <pt x="871" y="0" on="1"/>
      </contour>
    </TTGlyph>
    <TTGlyph name="N" xMin="-27" yMin="-22" xMax="1450" yMax="1356">
      <contour>
        <pt x="-27" y="1356" on="1"/>
        <pt x="341" y="1356" on="1"/>
        <pt x="1170" y="339" on="1"/>
        <pt x="1170" y="1121" on="1"/>
        <pt x="1170" y="1246" on="0"/>
        <pt x="1142" y="1277" on="1"/>
        <pt x="1105" y="1319" on="0"/>
        <pt x="1025" y="1319" on="1"/>
        <pt x="978" y="1319" on="1"/>
        <pt x="978" y="1356" on="1"/>
        <pt x="1450" y="1356" on="1"/>
        <pt x="1450" y="1319" on="1"/>
        <pt x="1402" y="1319" on="1"/>
        <pt x="1316" y="1319" on="0"/>
        <pt x="1280" y="1267" on="1"/>
        <pt x="1258" y="1235" on="0"/>
        <pt x="1258" y="1121" on="1"/>
        <pt x="1258" y="-22" on="1"/>
        <pt x="1222" y="-22" on="1"/>
        <pt x="328" y="1070" on="1"/>
        <pt x="328" y="235" on="1"/>
        <pt x="328" y="110" on="0"/>
        <pt x="355" y="79" on="1"/>
        <pt x="393" y="37" on="0"/>
        <pt x="472" y="37" on="1"/>
        <pt x="520" y="37" on="1"/>
        <pt x="520" y="0" on="1"/>
        <pt x="48" y="0" on="1"/>
        <pt x="48" y="37" on="1"/>
        <pt x="95" y="37" on="1"/>
        <pt x="182" y="37" on="0"/>
        <pt x="218" y="89" on="1"/>
        <pt x="240" y="121" on="0"/>
        <pt x="240" y="235" on="1"/>
        <pt x="240" y="1178" on="1"/>
        <pt x="181" y="1247" on="0"/>
        <pt x="120" y="1291" on="0"/>
        <pt x="61" y="1310" on="1"/>
        <pt x="32" y="1319" on="0"/>
        <pt x="-27" y="1319" on="1"/>
      </contour>
    </TTGlyph>
    <TTGlyph name="O" xMin="72" yMin="-31" xMax="1400" yMax="1387">
      <contour>
        <pt x="749" y="1387" on="1"/>
        <pt x="1013" y="1387" on="0"/>
        <pt x="1400" y="986" on="0"/>
        <pt x="1400" y="686" on="1"/>
        <pt x="1400" y="377" on="0"/>
        <pt x="1010" y="-31" on="0"/>
        <pt x="733" y="-31" on="1"/>
        <pt x="453" y="-31" on="0"/>
        <pt x="72" y="367" on="0"/>
        <pt x="72" y="683" on="1"/>
        <pt x="72" y="1006" on="0"/>
        <pt x="292" y="1210" on="1"/>
        <pt x="483" y="1387" on="0"/>
      </contour>
      <contour>
        <pt x="730" y="1314" on="1"/>
        <pt x="548" y="1314" on="0"/>
        <pt x="438" y="1179" on="1"/>
        <pt x="301" y="1011" on="0"/>
        <pt x="301" y="687" on="1"/>
        <pt x="301" y="355" on="0"/>
        <pt x="443" y="176" on="1"/>
        <pt x="552" y="40" on="0"/>
        <pt x="731" y="40" on="1"/>
        <pt x="922" y="40" on="0"/>
        <pt x="1171" y="338" on="0"/>
        <pt x="1171" y="659" on="1"/>
        <pt x="1171" y="1007" on="0"/>
        <pt x="1034" y="1178" on="1"/>
        <pt x="924" y="1314" on="0"/>
      </contour>
    </TTGlyph>
    <TTGlyph name="P" xMin="34" yMin="0" xMax="1067" yMax="1356">
      <contour>
        <pt x="420" y="635" on="1"/>
        <pt x="420" y="240" on="1"/>
        <pt x="420" y="112" on="0"/>
        <pt x="448" y="81" on="1"/>
        <pt x="486" y="37" on="0"/>
        <pt x="563" y="37" on="1"/>
        <pt x="615" y="37" on="1"/>
        <pt x="615" y="0" on="1"/>
        <pt x="34" y="0" on="1"/>
        <pt x="34" y="37" on="1"/>
        <pt x="85" y="37" on="1"/>
        <pt x="171" y="37" on="0"/>
        <pt x="208" y="93" on="1"/>
        <pt x="228" y="124" on="0"/>
        <pt x="228" y="240" on="1"/>
        <pt x="228" y="1116" on="1"/>
        <pt x="228" y="1244" on="0"/>
        <pt x="201" y="1275" on="1"/>
        <pt x="162" y="1319" on="0"/>
        <pt x="85" y="1319" on="1"/>
        <pt x="34" y="1319" on="1"/>
        <pt x="34" y="1356" on="1"/>
        <pt x="531" y="1356" on="1"/>
        <pt x="713" y="1356" on="0"/>
        <pt x="923" y="1281" on="0"/>
        <pt x="1067" y="1103" on="0"/>
        <pt x="1067" y="981" on="1"/>
        <pt x="1067" y="815" on="0"/>
        <pt x="848" y="607" on="0"/>
        <pt x="648" y="607" on="1"/>
        <pt x="599" y="607" on="0"/>
        <pt x="485" y="621" on="0"/>
      </contour>
      <contour>
        <pt x="420" y="692" on="1"/>
        <pt x="473" y="682" on="0"/>
        <pt x="555" y="672" on="0"/>
        <pt x="584" y="672" on="1"/>
        <pt x="688" y="672" on="0"/>
        <pt x="839" y="833" on="0"/>
        <pt x="839" y="961" on="1"/>
        <pt x="839" y="1049" on="0"/>
        <pt x="767" y="1200" on="0"/>
        <pt x="635" y="1275" on="0"/>
        <pt x="551" y="1275" on="1"/>
        <pt x="500" y="1275" on="0"/>
        <pt x="420" y="1256" on="1"/>
      </contour>
    </TTGlyph>
    <TTGlyph name="Q" xMin="72" yMin="-401" xMax="1401" yMax="1387">
      <contour>
        <pt x="902" y="-15" on="1"/>
        <pt x="1004" y="-191" on="0"/>
        <pt x="1241" y="-357" on="0"/>
        <pt x="1392" y="-369" on="1"/>
        <pt x="1392" y="-401" on="1"/>
        <pt x="1254" y="-396" on="0"/>
        <pt x="940" y="-295" on="0"/>
        <pt x="659" y="-116" on="0"/>
        <pt x="557" y="-15" on="1"/>
        <pt x="413" y="43" on="0"/>
        <pt x="329" y="108" on="1"/>
        <pt x="207" y="205" on="0"/>
        <pt x="72" y="488" on="0"/>
        <pt x="72" y="681" on="1"/>
        <pt x="72" y="985" on="0"/>
        <pt x="466" y="1387" on="0"/>
        <pt x="746" y="1387" on="1"/>
        <pt x="1012" y="1387" on="0"/>
        <pt x="1401" y="984" on="0"/>
        <pt x="1401" y="677" on="1"/>
        <pt x="1401" y="428" on="0"/>
        <pt x="1124" y="52" on="0"/>
      </contour>
      <contour>
        <pt x="734" y="1310" on="1"/>
        <pt x="552" y="1310" on="0"/>
        <pt x="441" y="1180" on="1"/>
        <pt x="301" y="1017" on="0"/>
        <pt x="301" y="681" on="1"/>
        <pt x="301" y="352" on="0"/>
        <pt x="443" y="174" on="1"/>
        <pt x="553" y="37" on="0"/>
        <pt x="734" y="37" on="1"/>
        <pt x="922" y="37" on="0"/>
        <pt x="1037" y="174" on="1"/>
        <pt x="1172" y="336" on="0"/>
        <pt x="1172" y="652" on="1"/>
        <pt x="1172" y="895" on="0"/>
        <pt x="1098" y="1061" on="1"/>
        <pt x="1041" y="1189" on="0"/>
        <pt x="852" y="1310" on="0"/>
      </contour>
    </TTGlyph>
    <TTGlyph name="R" xMin="35" yMin="0" xMax="1384" yMax="1356">
      <contour>
        <pt x="1384" y="0" on="1"/>
        <pt x="1022" y="0" on="1"/>
        <pt x="563" y="634" on="1"/>
        <pt x="512" y="632" on="0"/>
        <pt x="480" y="632" on="1"/>
        <pt x="467" y="632" on="0"/>
        <pt x="437" y="633" on="0"/>
        <pt x="421" y="634" on="1"/>
        <pt x="421" y="240" on="1"/>
        <pt x="421" y="112" on="0"/>
        <pt x="449" y="81" on="1"/>
        <pt x="487" y="37" on="0"/>
        <pt x="563" y="37" on="1"/>
        <pt x="616" y="37" on="1"/>
        <pt x="616" y="0" on="1"/>
        <pt x="35" y="0" on="1"/>
        <pt x="35" y="37" on="1"/>
        <pt x="86" y="37" on="1"/>
        <pt x="172" y="37" on="0"/>
        <pt x="209" y="93" on="1"/>
        <pt x="230" y="124" on="0"/>
        <pt x="230" y="240" on="1"/>
        <pt x="230" y="1116" on="1"/>
        <pt x="230" y="1244" on="0"/>
        <pt x="202" y="1275" on="1"/>
        <pt x="163" y="1319" on="0"/>
        <pt x="86" y="1319" on="1"/>
        <pt x="35" y="1319" on="1"/>
        <pt x="35" y="1356" on="1"/>
        <pt x="529" y="1356" on="1"/>
        <pt x="745" y="1356" on="0"/>
        <pt x="950" y="1293" on="0"/>
        <pt x="1093" y="1124" on="0"/>
        <pt x="1093" y="1007" on="1"/>
        <pt x="1093" y="882" on="0"/>
        <pt x="930" y="698" on="0"/>
        <pt x="759" y="660" on="1"/>
        <pt x="1039" y="271" on="1"/>
        <pt x="1135" y="137" on="0"/>
        <pt x="1273" y="49" on="0"/>
        <pt x="1384" y="37" on="1"/>
      </contour>
      <contour>
        <pt x="421" y="697" on="1"/>
        <pt x="440" y="697" on="0"/>
        <pt x="468" y="696" on="0"/>
        <pt x="477" y="696" on="1"/>
        <pt x="671" y="696" on="0"/>
        <pt x="868" y="864" on="0"/>
        <pt x="868" y="994" on="1"/>
        <pt x="868" y="1121" on="0"/>
        <pt x="709" y="1280" on="0"/>
        <pt x="578" y="1280" on="1"/>
        <pt x="520" y="1280" on="0"/>
        <pt x="421" y="1261" on="1"/>
      </contour>
    </TTGlyph>
    <TTGlyph name="S" xMin="128" yMin="-31" xMax="1029" yMax="1387">
      <contour>
        <pt x="939" y="1387" on="1"/>
        <pt x="939" y="918" on="1"/>
        <pt x="902" y="918" on="1"/>
        <pt x="884" y="1053" on="0"/>
        <pt x="791" y="1213" on="0"/>
        <pt x="619" y="1307" on="0"/>
        <pt x="527" y="1307" on="1"/>
        <pt x="423" y="1307" on="0"/>
        <pt x="287" y="1180" on="0"/>
        <pt x="287" y="1099" on="1"/>
        <pt x="287" y="1037" on="0"/>
        <pt x="330" y="986" on="1"/>
        <pt x="392" y="911" on="0"/>
        <pt x="625" y="786" on="1"/>
        <pt x="815" y="684" on="0"/>
        <pt x="954" y="575" on="0"/>
        <pt x="1029" y="427" on="0"/>
        <pt x="1029" y="346" on="1"/>
        <pt x="1029" y="192" on="0"/>
        <pt x="790" y="-31" on="0"/>
        <pt x="602" y="-31" on="1"/>
        <pt x="543" y="-31" on="0"/>
        <pt x="491" y="-22" on="1"/>
        <pt x="460" y="-17" on="0"/>
        <pt x="265" y="46" on="0"/>
        <pt x="239" y="46" on="1"/>
        <pt x="214" y="46" on="0"/>
        <pt x="185" y="16" on="0"/>
        <pt x="178" y="-31" on="1"/>
        <pt x="141" y="-31" on="1"/>
        <pt x="141" y="434" on="1"/>
        <pt x="178" y="434" on="1"/>
        <pt x="204" y="288" on="0"/>
        <pt x="292" y="143" on="0"/>
        <pt x="473" y="47" on="0"/>
        <pt x="581" y="47" on="1"/>
        <pt x="706" y="47" on="0"/>
        <pt x="851" y="179" on="0"/>
        <pt x="851" y="269" on="1"/>
        <pt x="851" y="319" on="0"/>
        <pt x="796" y="421" on="0"/>
        <pt x="738" y="465" on="1"/>
        <pt x="699" y="495" on="0"/>
        <pt x="351" y="690" on="0"/>
        <pt x="204" y="806" on="0"/>
        <pt x="128" y="946" on="0"/>
        <pt x="128" y="1030" on="1"/>
        <pt x="128" y="1176" on="0"/>
        <pt x="352" y="1387" on="0"/>
        <pt x="525" y="1387" on="1"/>
        <pt x="633" y="1387" on="0"/>
        <pt x="754" y="1334" on="1"/>
        <pt x="810" y="1309" on="0"/>
        <pt x="833" y="1309" on="1"/>
        <pt x="859" y="1309" on="0"/>
        <pt x="892" y="1340" on="0"/>
        <pt x="902" y="1387" on="1"/>
      </contour>
    </TTGlyph>
    <TTGlyph name="T" xMin="62" yMin="0" xMax="1200" yMax="1356">
      <contour>
        <pt x="1185" y="1356" on="1"/>
        <pt x="1200" y="1038" on="1"/>
        <pt x="1162" y="1038" on="1"/>
        <pt x="1151" y="1122" on="0"/>
        <pt x="1132" y="1158" on="1"/>
        <pt x="1101" y="1216" on="0"/>
        <pt x="998" y="1271" on="0"/>
        <pt x="914" y="1271" on="1"/>
        <pt x="723" y="1271" on="1"/>
        <pt x="723" y="235" on="1"/>
        <pt x="723" y="110" on="0"/>
        <pt x="750" y="79" on="1"/>
        <pt x="788" y="37" on="0"/>
        <pt x="867" y="37" on="1"/>
        <pt x="914" y="37" on="1"/>
        <pt x="914" y="0" on="1"/>
        <pt x="339" y="0" on="1"/>
        <pt x="339" y="37" on="1"/>
        <pt x="387" y="37" on="1"/>
        <pt x="473" y="37" on="0"/>
        <pt x="509" y="89" on="1"/>
        <pt x="531" y="121" on="0"/>
        <pt x="531" y="235" on="1"/>
        <pt x="531" y="1271" on="1"/>
        <pt x="368" y="1271" on="1"/>
        <pt x="273" y="1271" on="0"/>
        <pt x="233" y="1257" on="1"/>
        <pt x="181" y="1238" on="0"/>
        <pt x="107" y="1130" on="0"/>
        <pt x="100" y="1038" on="1"/>
        <pt x="62" y="1038" on="1"/>
        <pt x="78" y="1356" on="1"/>
      </contour>
    </TTGlyph>
    <TTGlyph name="U" xMin="11" yMin="-32" xMax="1457" yMax="1356">
      <contour>
        <pt x="977" y="1319" on="1"/>
        <pt x="977" y="1356" on="1"/>
        <pt x="1457" y="1356" on="1"/>
        <pt x="1457" y="1319" on="1"/>
        <pt x="1406" y="1319" on="1"/>
        <pt x="1326" y="1319" on="0"/>
        <pt x="1283" y="1252" on="1"/>
        <pt x="1262" y="1221" on="0"/>
        <pt x="1262" y="1108" on="1"/>
        <pt x="1262" y="558" on="1"/>
        <pt x="1262" y="354" on="0"/>
        <pt x="1181" y="129" on="0"/>
        <pt x="944" y="-32" on="0"/>
        <pt x="740" y="-32" on="1"/>
        <pt x="518" y="-32" on="0"/>
        <pt x="288" y="122" on="0"/>
        <pt x="240" y="252" on="1"/>
        <pt x="208" y="341" on="0"/>
        <pt x="208" y="586" on="1"/>
        <pt x="208" y="1116" on="1"/>
        <pt x="208" y="1241" on="0"/>
        <pt x="139" y="1319" on="0"/>
        <pt x="62" y="1319" on="1"/>
        <pt x="11" y="1319" on="1"/>
        <pt x="11" y="1356" on="1"/>
        <pt x="597" y="1356" on="1"/>
        <pt x="597" y="1319" on="1"/>
        <pt x="545" y="1319" on="1"/>
        <pt x="461" y="1319" on="0"/>
        <pt x="425" y="1266" on="1"/>
        <pt x="400" y="1230" on="0"/>
        <pt x="400" y="1116" on="1"/>
        <pt x="400" y="525" on="1"/>
        <pt x="400" y="446" on="0"/>
        <pt x="429" y="242" on="0"/>
        <pt x="505" y="128" on="0"/>
        <pt x="648" y="54" on="0"/>
        <pt x="752" y="54" on="1"/>
        <pt x="885" y="54" on="0"/>
        <pt x="1095" y="170" on="0"/>
        <pt x="1172" y="351" on="0"/>
        <pt x="1172" y="567" on="1"/>
        <pt x="1172" y="1116" on="1"/>
        <pt x="1172" y="1243" on="0"/>
        <pt x="1144" y="1275" on="1"/>
        <pt x="1105" y="1319" on="0"/>
        <pt x="1028" y="1319" on="1"/>
      </contour>
    </TTGlyph>
    <TTGlyph name="V" xMin="18" yMin="-31" xMax="1454" yMax="1356">
      <contour>
        <pt x="1454" y="1356" on="1"/>
        <pt x="1454" y="1319" on="1"/>
        <pt x="1382" y="1306" on="0"/>
        <pt x="1345" y="1273" on="1"/>
        <pt x="1292" y="1224" on="0"/>
        <pt x="1251" y="1123" on="1"/>
        <pt x="778" y="-31" on="1"/>
        <pt x="741" y="-31" on="1"/>
        <pt x="233" y="1138" on="1"/>
        <pt x="194" y="1228" on="0"/>
        <pt x="178" y="1248" on="1"/>
        <pt x="153" y="1279" on="0"/>
        <pt x="80" y="1314" on="0"/>
        <pt x="18" y="1319" on="1"/>
        <pt x="18" y="1356" on="1"/>
        <pt x="572" y="1356" on="1"/>
        <pt x="572" y="1319" on="1"/>
        <pt x="478" y="1310" on="0"/>
        <pt x="422" y="1264" on="0"/>
        <pt x="422" y="1228" on="1"/>
        <pt x="422" y="1178" on="0"/>
        <pt x="468" y="1072" on="1"/>
        <pt x="813" y="277" on="1"/>
        <pt x="1133" y="1062" on="1"/>
        <pt x="1180" y="1178" on="0"/>
        <pt x="1180" y="1223" on="1"/>
        <pt x="1180" y="1252" on="0"/>
        <pt x="1122" y="1305" on="0"/>
        <pt x="1053" y="1316" on="1"/>
        <pt x="1048" y="1317" on="0"/>
        <pt x="1036" y="1319" on="1"/>
        <pt x="1036" y="1356" on="1"/>
      </contour>
    </TTGlyph>
    <TTGlyph name="W" xMin="27" yMin="-31" xMax="1917" yMax="1356">
      <contour>
        <pt x="1917" y="1356" on="1"/>
        <pt x="1917" y="1319" on="1"/>
        <pt x="1864" y="1319" on="0"/>
        <pt x="1798" y="1281" on="0"/>
        <pt x="1768" y="1229" on="1"/>
        <pt x="1748" y="1194" on="0"/>
        <pt x="1705" y="1062" on="1"/>
        <pt x="1327" y="-31" on="1"/>
        <pt x="1287" y="-31" on="1"/>
        <pt x="978" y="836" on="1"/>
        <pt x="671" y="-31" on="1"/>
        <pt x="635" y="-31" on="1"/>
        <pt x="232" y="1095" on="1"/>
        <pt x="187" y="1221" on="0"/>
        <pt x="175" y="1244" on="1"/>
        <pt x="155" y="1282" on="0"/>
        <pt x="86" y="1319" on="0"/>
        <pt x="27" y="1319" on="1"/>
        <pt x="27" y="1356" on="1"/>
        <pt x="529" y="1356" on="1"/>
        <pt x="529" y="1319" on="1"/>
        <pt x="505" y="1319" on="1"/>
        <pt x="452" y="1319" on="0"/>
        <pt x="396" y="1271" on="0"/>
        <pt x="396" y="1237" on="1"/>
        <pt x="396" y="1202" on="0"/>
        <pt x="440" y="1076" on="1"/>
        <pt x="707" y="315" on="1"/>
        <pt x="932" y="962" on="1"/>
        <pt x="892" y="1076" on="1"/>
        <pt x="860" y="1167" on="1"/>
        <pt x="839" y="1217" on="0"/>
        <pt x="813" y="1255" on="1"/>
        <pt x="800" y="1274" on="0"/>
        <pt x="781" y="1287" on="1"/>
        <pt x="756" y="1305" on="0"/>
        <pt x="731" y="1313" on="1"/>
        <pt x="712" y="1319" on="0"/>
        <pt x="671" y="1319" on="1"/>
        <pt x="671" y="1356" on="1"/>
        <pt x="1199" y="1356" on="1"/>
        <pt x="1199" y="1319" on="1"/>
        <pt x="1163" y="1319" on="1"/>
        <pt x="1107" y="1319" on="0"/>
        <pt x="1055" y="1271" on="0"/>
        <pt x="1055" y="1230" on="1"/>
        <pt x="1055" y="1179" on="0"/>
        <pt x="1100" y="1052" on="1"/>
        <pt x="1360" y="315" on="1"/>
        <pt x="1618" y="1062" on="1"/>
        <pt x="1662" y="1186" on="0"/>
        <pt x="1662" y="1234" on="1"/>
        <pt x="1662" y="1257" on="0"/>
        <pt x="1633" y="1297" on="0"/>
        <pt x="1611" y="1305" on="1"/>
        <pt x="1573" y="1319" on="0"/>
        <pt x="1512" y="1319" on="1"/>
        <pt x="1512" y="1356" on="1"/>
      </contour>
    </TTGlyph>
    <TTGlyph name="X" xMin="15" yMin="0" xMax="1455" yMax="1356">
      <contour>
        <pt x="836" y="751" on="1"/>
        <pt x="1127" y="317" on="1"/>
        <pt x="1248" y="137" on="0"/>
        <pt x="1365" y="42" on="0"/>
        <pt x="1455" y="37" on="1"/>
        <pt x="1455" y="0" on="1"/>
        <pt x="873" y="0" on="1"/>
        <pt x="873" y="37" on="1"/>
        <pt x="931" y="38" on="0"/>
        <pt x="959" y="49" on="1"/>
        <pt x="980" y="58" on="0"/>
        <pt x="1007" y="95" on="0"/>
        <pt x="1007" y="114" on="1"/>
        <pt x="1007" y="137" on="0"/>
        <pt x="998" y="160" on="1"/>
        <pt x="991" y="177" on="0"/>
        <pt x="943" y="248" on="1"/>
        <pt x="713" y="596" on="1"/>
        <pt x="429" y="232" on="1"/>
        <pt x="384" y="174" on="0"/>
        <pt x="366" y="135" on="0"/>
        <pt x="366" y="114" on="1"/>
        <pt x="366" y="82" on="0"/>
        <pt x="420" y="40" on="0"/>
        <pt x="496" y="37" on="1"/>
        <pt x="496" y="0" on="1"/>
        <pt x="15" y="0" on="1"/>
        <pt x="15" y="37" on="1"/>
        <pt x="66" y="42" on="0"/>
        <pt x="103" y="58" on="1"/>
        <pt x="165" y="84" on="0"/>
        <pt x="277" y="172" on="0"/>
        <pt x="349" y="263" on="1"/>
        <pt x="669" y="667" on="1"/>
        <pt x="402" y="1058" on="1"/>
        <pt x="293" y="1217" on="0"/>
        <pt x="141" y="1316" on="0"/>
        <pt x="42" y="1319" on="1"/>
        <pt x="42" y="1356" on="1"/>
        <pt x="669" y="1356" on="1"/>
        <pt x="669" y="1319" on="1"/>
        <pt x="589" y="1316" on="0"/>
        <pt x="530" y="1270" on="0"/>
        <pt x="530" y="1242" on="1"/>
        <pt x="530" y="1205" on="0"/>
        <pt x="578" y="1134" on="1"/>
        <pt x="786" y="823" on="1"/>
        <pt x="1027" y="1128" on="1"/>
        <pt x="1069" y="1182" on="0"/>
        <pt x="1088" y="1222" on="0"/>
        <pt x="1088" y="1243" on="1"/>
        <pt x="1088" y="1264" on="0"/>
        <pt x="1076" y="1280" on="1"/>
        <pt x="1061" y="1301" on="0"/>
        <pt x="1015" y="1318" on="0"/>
        <pt x="943" y="1319" on="1"/>
        <pt x="943" y="1356" on="1"/>
        <pt x="1424" y="1356" on="1"/>
        <pt x="1424" y="1319" on="1"/>
        <pt x="1367" y="1316" on="0"/>
        <pt x="1331" y="1301" on="1"/>
        <pt x="1277" y="1278" on="0"/>
        <pt x="1187" y="1200" on="0"/>
        <pt x="1105" y="1095" on="1"/>
      </contour>
    </TTGlyph>
    <TTGlyph name="Y" xMin="19" yMin="0" xMax="1449" yMax="1356">
      <contour>
        <pt x="976" y="1356" on="1"/>
        <pt x="1449" y="1356" on="1"/>
        <pt x="1449" y="1319" on="1"/>
        <pt x="1423" y="1319" on="1"/>
        <pt x="1397" y="1319" on="0"/>
        <pt x="1297" y="1273" on="0"/>
        <pt x="1215" y="1187" on="0"/>
        <pt x="1155" y="1090" on="1"/>
        <pt x="828" y="575" on="1"/>
        <pt x="828" y="235" on="1"/>
        <pt x="828" y="110" on="0"/>
        <pt x="856" y="79" on="1"/>
        <pt x="894" y="37" on="0"/>
        <pt x="976" y="37" on="1"/>
        <pt x="1020" y="37" on="1"/>
        <pt x="1020" y="0" on="1"/>
        <pt x="444" y="0" on="1"/>
        <pt x="444" y="37" on="1"/>
        <pt x="492" y="37" on="1"/>
        <pt x="578" y="37" on="0"/>
        <pt x="614" y="89" on="1"/>
        <pt x="636" y="121" on="0"/>
        <pt x="636" y="235" on="1"/>
        <pt x="636" y="556" on="1"/>
        <pt x="264" y="1124" on="1"/>
        <pt x="198" y="1224" on="0"/>
        <pt x="151" y="1274" on="0"/>
        <pt x="77" y="1309" on="1"/>
        <pt x="57" y="1319" on="0"/>
        <pt x="19" y="1319" on="1"/>
        <pt x="19" y="1356" on="1"/>
        <pt x="599" y="1356" on="1"/>
        <pt x="599" y="1319" on="1"/>
        <pt x="569" y="1319" on="1"/>
        <pt x="522" y="1319" on="0"/>
        <pt x="443" y="1275" on="0"/>
        <pt x="443" y="1231" on="1"/>
        <pt x="443" y="1195" on="0"/>
        <pt x="504" y="1101" on="1"/>
        <pt x="787" y="664" on="1"/>
        <pt x="1053" y="1082" on="1"/>
        <pt x="1113" y="1176" on="0"/>
        <pt x="1113" y="1222" on="1"/>
        <pt x="1113" y="1250" on="0"/>
        <pt x="1084" y="1294" on="0"/>
        <pt x="1030" y="1319" on="0"/>
        <pt x="976" y="1319" on="1"/>
      </contour>
    </TTGlyph>
    <TTGlyph name="Z" xMin="26" yMin="0" xMax="1194" yMax="1356">
      <contour>
        <pt x="1178" y="1356" on="1"/>
        <pt x="287" y="82" on="1"/>
        <pt x="843" y="82" on="1"/>
        <pt x="971" y="82" on="0"/>
        <pt x="1108" y="194" on="0"/>
        <pt x="1161" y="365" on="1"/>
        <pt x="1194" y="359" on="1"/>
        <pt x="1130" y="0" on="1"/>
        <pt x="26" y="0" on="1"/>
        <pt x="26" y="37" on="1"/>
        <pt x="896" y="1275" on="1"/>
        <pt x="462" y="1275" on="1"/>
        <pt x="354" y="1275" on="0"/>
        <pt x="257" y="1228" on="0"/>
        <pt x="206" y="1139" on="0"/>
        <pt x="185" y="1017" on="1"/>
        <pt x="147" y="1017" on="1"/>
        <pt x="175" y="1356" on="1"/>
      </contour>
    </TTGlyph>
    <TTGlyph name="a" xMin="73" yMin="-19" xMax="905" yMax="943">
      <contour>
        <pt x="583" y="132" on="1"/>
        <pt x="442" y="23" on="0"/>
        <pt x="406" y="6" on="1"/>
        <pt x="352" y="-19" on="0"/>
        <pt x="291" y="-19" on="1"/>
        <pt x="196" y="-19" on="0"/>
        <pt x="73" y="111" on="0"/>
        <pt x="73" y="217" on="1"/>
        <pt x="73" y="284" on="0"/>
        <pt x="103" y="333" on="1"/>
        <pt x="144" y="401" on="0"/>
        <pt x="347" y="521" on="0"/>
        <pt x="583" y="607" on="1"/>
        <pt x="583" y="643" on="1"/>
        <pt x="583" y="780" on="0"/>
        <pt x="496" y="882" on="0"/>
        <pt x="413" y="882" on="1"/>
        <pt x="350" y="882" on="0"/>
        <pt x="313" y="848" on="1"/>
        <pt x="275" y="814" on="0"/>
        <pt x="275" y="770" on="1"/>
        <pt x="277" y="712" on="1"/>
        <pt x="277" y="666" on="0"/>
        <pt x="230" y="616" on="0"/>
        <pt x="192" y="616" on="1"/>
        <pt x="155" y="616" on="0"/>
        <pt x="108" y="668" on="0"/>
        <pt x="108" y="713" on="1"/>
        <pt x="108" y="799" on="0"/>
        <pt x="284" y="943" on="0"/>
        <pt x="443" y="943" on="1"/>
        <pt x="565" y="943" on="0"/>
        <pt x="643" y="902" on="1"/>
        <pt x="702" y="871" on="0"/>
        <pt x="730" y="805" on="1"/>
        <pt x="748" y="762" on="0"/>
        <pt x="748" y="629" on="1"/>
        <pt x="748" y="318" on="1"/>
        <pt x="748" y="187" on="0"/>
        <pt x="758" y="128" on="0"/>
        <pt x="781" y="108" on="0"/>
        <pt x="796" y="108" on="1"/>
        <pt x="812" y="108" on="0"/>
        <pt x="824" y="115" on="1"/>
        <pt x="845" y="128" on="0"/>
        <pt x="905" y="188" on="1"/>
        <pt x="905" y="132" on="1"/>
        <pt x="793" y="-18" on="0"/>
        <pt x="691" y="-18" on="1"/>
        <pt x="642" y="-18" on="0"/>
        <pt x="584" y="50" on="0"/>
      </contour>
      <contour>
        <pt x="583" y="197" on="1"/>
        <pt x="583" y="546" on="1"/>
        <pt x="432" y="486" on="0"/>
        <pt x="388" y="461" on="1"/>
        <pt x="309" y="417" on="0"/>
        <pt x="241" y="321" on="0"/>
        <pt x="241" y="264" on="1"/>
        <pt x="241" y="192" on="0"/>
        <pt x="327" y="97" on="0"/>
        <pt x="383" y="97" on="1"/>
        <pt x="459" y="97" on="0"/>
      </contour>
    </TTGlyph>
    <TTGlyph name="a.fina" xMin="0" yMin="196" xMax="1055" yMax="2004">
      <contour>
        <pt x="0" y="647" on="1"/>
        <pt x="0" y="825" on="1"/>
        <pt x="213" y="825" on="1"/>
        <pt x="372" y="656" on="1"/>
        <pt x="452" y="915" on="1"/>
        <pt x="519" y="1131" on="0"/>
        <pt x="837" y="1584" on="0"/>
        <pt x="837" y="2004" on="1"/>
        <pt x="1055" y="1504" on="1"/>
        <pt x="880" y="1317" on="0"/>
        <pt x="634" y="991" on="0"/>
        <pt x="525" y="775" on="1"/>
        <pt x="476" y="545" on="0"/>
        <pt x="536" y="196" on="1"/>
        <pt x="433" y="373" on="0"/>
        <pt x="298" y="587" on="0"/>
        <pt x="219" y="647" on="1"/>
      </contour>
    </TTGlyph>
    <TTGlyph name="a.init" xMin="97" yMin="255" xMax="1288" yMax="1141">
      <contour>
        <pt x="878" y="647" on="1"/>
        <pt x="735" y="647" on="1"/>
        <pt x="614" y="307" on="1"/>
        <pt x="518" y="572" on="0"/>
        <pt x="280" y="1007" on="0"/>
        <pt x="97" y="976" on="1"/>
        <pt x="134" y="1044" on="0"/>
        <pt x="284" y="1141" on="0"/>
        <pt x="352" y="1138" on="1"/>
        <pt x="445" y="1113" on="0"/>
        <pt x="578" y="842" on="0"/>
        <pt x="626" y="721" on="1"/>
        <pt x="661" y="825" on="1"/>
        <pt x="1288" y="825" on="1"/>
        <pt x="1288" y="647" on="1"/>
        <pt x="1087" y="647" on="1"/>
        <pt x="982" y="255" on="1"/>
      </contour>
    </TTGlyph>
    <TTGlyph name="a.isol" xMin="100" yMin="202" xMax="1759" yMax="1906">
      <contour>
        <pt x="738" y="647" on="1"/>
        <pt x="617" y="307" on="1"/>
        <pt x="521" y="572" on="0"/>
        <pt x="283" y="1007" on="0"/>
        <pt x="100" y="976" on="1"/>
        <pt x="137" y="1044" on="0"/>
        <pt x="287" y="1141" on="0"/>
        <pt x="355" y="1138" on="1"/>
        <pt x="448" y="1113" on="0"/>
        <pt x="581" y="842" on="0"/>
        <pt x="629" y="721" on="1"/>
        <pt x="664" y="825" on="1"/>
        <pt x="969" y="825" on="1"/>
        <pt x="1126" y="656" on="1"/>
        <pt x="1204" y="913" on="1"/>
        <pt x="1272" y="1127" on="0"/>
        <pt x="1554" y="1575" on="0"/>
        <pt x="1585" y="1906" on="1"/>
        <pt x="1759" y="1530" on="1"/>
        <pt x="1594" y="1328" on="0"/>
        <pt x="1351" y="1005" on="0"/>
        <pt x="1277" y="775" on="1"/>
        <pt x="1219" y="546" on="0"/>
        <pt x="1289" y="202" on="1"/>
        <pt x="1186" y="377" on="0"/>
        <pt x="1052" y="589" on="0"/>
        <pt x="974" y="647" on="1"/>
      </contour>
    </TTGlyph>
    <TTGlyph name="a.medi" xMin="0" yMin="255" xMax="565" yMax="825">
      <contour>
        <pt x="565" y="825" on="1"/>
        <pt x="565" y="647" on="1"/>
        <pt x="364" y="647" on="1"/>
        <pt x="261" y="255" on="1"/>
        <pt x="156" y="647" on="1"/>
        <pt x="0" y="647" on="1"/>
        <pt x="0" y="825" on="1"/>
      </contour>
    </TTGlyph>
    <TTGlyph name="a1.fina" xMin="0" yMin="-654" xMax="1144" yMax="825">
      <contour>
        <pt x="79" y="333" on="1"/>
        <pt x="0" y="647" on="1"/>
        <pt x="0" y="825" on="1"/>
        <pt x="305" y="825" on="1"/>
        <pt x="739" y="773" on="0"/>
        <pt x="930" y="406" on="1"/>
        <pt x="1118" y="4" on="0"/>
        <pt x="1144" y="-428" on="1"/>
        <pt x="1141" y="-586" on="0"/>
        <pt x="920" y="-611" on="1"/>
        <pt x="805" y="-616" on="0"/>
        <pt x="721" y="-654" on="1"/>
        <pt x="689" y="-654" on="0"/>
        <pt x="689" y="-638" on="1"/>
        <pt x="776" y="-572" on="0"/>
        <pt x="877" y="-476" on="1"/>
        <pt x="982" y="-382" on="0"/>
        <pt x="992" y="-271" on="1"/>
        <pt x="974" y="90" on="0"/>
        <pt x="793" y="365" on="1"/>
        <pt x="645" y="594" on="0"/>
        <pt x="362" y="637" on="1"/>
        <pt x="158" y="637" on="1"/>
      </contour>
    </TTGlyph>
    <TTGlyph name="ampersand" xMin="75" yMin="-31" xMax="1531" yMax="1387">
      <contour>
        <pt x="1045" y="873" on="1"/>
        <pt x="1465" y="873" on="1"/>
        <pt x="1465" y="836" on="1"/>
        <pt x="1378" y="829" on="0"/>
        <pt x="1295" y="766" on="0"/>
        <pt x="1119" y="448" on="0"/>
        <pt x="1009" y="310" on="1"/>
        <pt x="1098" y="206" on="0"/>
        <pt x="1238" y="123" on="0"/>
        <pt x="1309" y="123" on="1"/>
        <pt x="1378" y="123" on="0"/>
        <pt x="1474" y="198" on="0"/>
        <pt x="1494" y="271" on="1"/>
        <pt x="1531" y="244" on="1"/>
        <pt x="1494" y="103" on="0"/>
        <pt x="1330" y="-31" on="0"/>
        <pt x="1221" y="-31" on="1"/>
        <pt x="1139" y="-31" on="0"/>
        <pt x="970" y="58" on="0"/>
        <pt x="870" y="164" on="1"/>
        <pt x="746" y="54" on="0"/>
        <pt x="547" y="-31" on="0"/>
        <pt x="434" y="-31" on="1"/>
        <pt x="269" y="-31" on="0"/>
        <pt x="75" y="145" on="0"/>
        <pt x="75" y="267" on="1"/>
        <pt x="75" y="388" on="0"/>
        <pt x="249" y="629" on="0"/>
        <pt x="489" y="758" on="1"/>
        <pt x="442" y="862" on="0"/>
        <pt x="408" y="995" on="0"/>
        <pt x="408" y="1056" on="1"/>
        <pt x="408" y="1227" on="0"/>
        <pt x="534" y="1317" on="1"/>
        <pt x="632" y="1387" on="0"/>
        <pt x="757" y="1387" on="1"/>
        <pt x="876" y="1387" on="0"/>
        <pt x="1026" y="1246" on="0"/>
        <pt x="1026" y="1143" on="1"/>
        <pt x="1026" y="1037" on="0"/>
        <pt x="881" y="877" on="0"/>
        <pt x="697" y="782" on="1"/>
        <pt x="824" y="556" on="0"/>
        <pt x="962" y="368" on="1"/>
        <pt x="1138" y="578" on="0"/>
        <pt x="1138" y="722" on="1"/>
        <pt x="1138" y="768" on="0"/>
        <pt x="1108" y="804" on="1"/>
        <pt x="1086" y="831" on="0"/>
        <pt x="1045" y="836" on="1"/>
      </contour>
      <contour>
        <pt x="663" y="847" on="1"/>
        <pt x="787" y="906" on="0"/>
        <pt x="910" y="1056" on="0"/>
        <pt x="910" y="1148" on="1"/>
        <pt x="910" y="1220" on="0"/>
        <pt x="821" y="1314" on="0"/>
        <pt x="755" y="1314" on="1"/>
        <pt x="668" y="1314" on="0"/>
        <pt x="579" y="1193" on="0"/>
        <pt x="579" y="1135" on="1"/>
        <pt x="579" y="1086" on="0"/>
        <pt x="613" y="965" on="0"/>
      </contour>
      <contour>
        <pt x="818" y="222" on="1"/>
        <pt x="686" y="402" on="0"/>
        <pt x="584" y="568" on="0"/>
        <pt x="523" y="691" on="1"/>
        <pt x="403" y="622" on="0"/>
        <pt x="282" y="456" on="0"/>
        <pt x="282" y="359" on="1"/>
        <pt x="282" y="252" on="0"/>
        <pt x="420" y="90" on="0"/>
        <pt x="537" y="90" on="1"/>
        <pt x="600" y="90" on="0"/>
        <pt x="717" y="140" on="0"/>
      </contour>
    </TTGlyph>
    <TTGlyph name="arrowdown" xMin="255" yMin="-442" xMax="1004" yMax="1714">
      <contour>
        <pt x="667" y="1714" on="1"/>
        <pt x="667" y="-153" on="1"/>
        <pt x="971" y="263" on="1"/>
        <pt x="1004" y="243" on="1"/>
        <pt x="630" y="-442" on="1"/>
        <pt x="255" y="240" on="1"/>
        <pt x="286" y="263" on="1"/>
        <pt x="589" y="-153" on="1"/>
        <pt x="589" y="1714" on="1"/>
      </contour>
    </TTGlyph>
    <TTGlyph name="arrowleft" xMin="340" yMin="379" xMax="2494" yMax="1129">
      <contour>
        <pt x="2494" y="715" on="1"/>
        <pt x="629" y="715" on="1"/>
        <pt x="1044" y="412" on="1"/>
        <pt x="1025" y="379" on="1"/>
        <pt x="340" y="753" on="1"/>
        <pt x="1023" y="1129" on="1"/>
        <pt x="1044" y="1097" on="1"/>
        <pt x="629" y="794" on="1"/>
        <pt x="2494" y="794" on="1"/>
      </contour>
    </TTGlyph>
    <TTGlyph name="arrowright" xMin="340" yMin="379" xMax="2494" yMax="1129">
      <contour>
        <pt x="2494" y="753" on="1"/>
        <pt x="1811" y="379" on="1"/>
        <pt x="1790" y="412" on="1"/>
        <pt x="2207" y="715" on="1"/>
        <pt x="340" y="715" on="1"/>
        <pt x="340" y="794" on="1"/>
        <pt x="2207" y="794" on="1"/>
        <pt x="1790" y="1097" on="1"/>
        <pt x="1813" y="1129" on="1"/>
      </contour>
    </TTGlyph>
    <TTGlyph name="arrowup" xMin="255" yMin="-442" xMax="1004" yMax="1714">
      <contour>
        <pt x="592" y="-442" on="1"/>
        <pt x="592" y="1425" on="1"/>
        <pt x="289" y="1009" on="1"/>
        <pt x="255" y="1028" on="1"/>
        <pt x="629" y="1714" on="1"/>
        <pt x="1004" y="1031" on="1"/>
        <pt x="972" y="1009" on="1"/>
        <pt x="670" y="1425" on="1"/>
        <pt x="670" y="-442" on="1"/>
      </contour>
    </TTGlyph>
    <TTGlyph name="asciicircum" xMin="37" yMin="667" xMax="923" yMax="1384">
      <contour>
        <pt x="498" y="1384" on="1"/>
        <pt x="923" y="667" on="1"/>
        <pt x="831" y="667" on="1"/>
        <pt x="481" y="1253" on="1"/>
        <pt x="131" y="667" on="1"/>
        <pt x="37" y="667" on="1"/>
        <pt x="468" y="1384" on="1"/>
      </contour>
    </TTGlyph>
    <TTGlyph name="asciitilde" xMin="400" yMin="572" xMax="1899" yMax="898">
      <contour>
        <pt x="1821" y="897" on="1"/>
        <pt x="1899" y="897" on="1"/>
        <pt x="1891" y="737" on="0"/>
        <pt x="1680" y="572" on="0"/>
        <pt x="1529" y="572" on="1"/>
        <pt x="1456" y="572" on="0"/>
        <pt x="1292" y="606" on="0"/>
        <pt x="1013" y="692" on="1"/>
        <pt x="812" y="753" on="0"/>
        <pt x="722" y="753" on="1"/>
        <pt x="628" y="753" on="0"/>
        <pt x="503" y="670" on="0"/>
        <pt x="480" y="573" on="1"/>
        <pt x="400" y="573" on="1"/>
        <pt x="411" y="738" on="0"/>
        <pt x="613" y="898" on="0"/>
        <pt x="758" y="898" on="1"/>
        <pt x="831" y="898" on="0"/>
        <pt x="901" y="884" on="1"/>
        <pt x="1040" y="855" on="0"/>
        <pt x="1285" y="779" on="1"/>
        <pt x="1417" y="736" on="0"/>
        <pt x="1487" y="722" on="1"/>
        <pt x="1529" y="714" on="0"/>
        <pt x="1577" y="714" on="1"/>
        <pt x="1675" y="714" on="0"/>
        <pt x="1808" y="809" on="0"/>
      </contour>
    </TTGlyph>
    <TTGlyph name="asterisk" xMin="145" yMin="592" xMax="880" yMax="1422">
      <contour>
        <pt x="494" y="1044" on="1"/>
        <pt x="490" y="1113" on="0"/>
        <pt x="466" y="1181" on="1"/>
        <pt x="432" y="1279" on="0"/>
        <pt x="432" y="1316" on="1"/>
        <pt x="432" y="1368" on="0"/>
        <pt x="481" y="1422" on="0"/>
        <pt x="517" y="1422" on="1"/>
        <pt x="548" y="1422" on="0"/>
        <pt x="594" y="1368" on="0"/>
        <pt x="594" y="1318" on="1"/>
        <pt x="594" y="1273" on="0"/>
        <pt x="541" y="1112" on="0"/>
        <pt x="535" y="1044" on="1"/>
        <pt x="590" y="1079" on="0"/>
        <pt x="634" y="1129" on="1"/>
        <pt x="702" y="1208" on="0"/>
        <pt x="768" y="1246" on="0"/>
        <pt x="802" y="1246" on="1"/>
        <pt x="835" y="1246" on="0"/>
        <pt x="880" y="1201" on="0"/>
        <pt x="880" y="1170" on="1"/>
        <pt x="880" y="1133" on="0"/>
        <pt x="814" y="1075" on="0"/>
        <pt x="682" y="1046" on="1"/>
        <pt x="605" y="1029" on="0"/>
        <pt x="554" y="1007" on="1"/>
        <pt x="606" y="980" on="0"/>
        <pt x="681" y="966" on="1"/>
        <pt x="802" y="944" on="0"/>
        <pt x="877" y="878" on="0"/>
        <pt x="877" y="839" on="1"/>
        <pt x="877" y="809" on="0"/>
        <pt x="832" y="765" on="0"/>
        <pt x="802" y="765" on="1"/>
        <pt x="772" y="765" on="0"/>
        <pt x="699" y="807" on="0"/>
        <pt x="637" y="880" on="1"/>
        <pt x="596" y="929" on="0"/>
        <pt x="535" y="972" on="1"/>
        <pt x="537" y="915" on="0"/>
        <pt x="558" y="848" on="1"/>
        <pt x="594" y="730" on="0"/>
        <pt x="594" y="687" on="1"/>
        <pt x="594" y="647" on="0"/>
        <pt x="546" y="592" on="0"/>
        <pt x="519" y="592" on="1"/>
        <pt x="482" y="592" on="0"/>
        <pt x="452" y="621" on="1"/>
        <pt x="431" y="642" on="0"/>
        <pt x="431" y="688" on="1"/>
        <pt x="431" y="736" on="0"/>
        <pt x="477" y="871" on="0"/>
        <pt x="489" y="922" on="0"/>
        <pt x="494" y="972" on="1"/>
        <pt x="435" y="933" on="0"/>
        <pt x="391" y="885" on="1"/>
        <pt x="318" y="803" on="0"/>
        <pt x="281" y="781" on="1"/>
        <pt x="255" y="765" on="0"/>
        <pt x="227" y="765" on="1"/>
        <pt x="193" y="765" on="0"/>
        <pt x="145" y="811" on="0"/>
        <pt x="145" y="839" on="1"/>
        <pt x="145" y="864" on="0"/>
        <pt x="186" y="919" on="0"/>
        <pt x="227" y="937" on="1"/>
        <pt x="254" y="949" on="0"/>
        <pt x="350" y="969" on="1"/>
        <pt x="412" y="982" on="0"/>
        <pt x="471" y="1007" on="1"/>
        <pt x="417" y="1034" on="0"/>
        <pt x="342" y="1049" on="1"/>
        <pt x="219" y="1075" on="0"/>
        <pt x="190" y="1096" on="1"/>
        <pt x="145" y="1129" on="0"/>
        <pt x="145" y="1176" on="1"/>
        <pt x="145" y="1203" on="0"/>
        <pt x="190" y="1248" on="0"/>
        <pt x="220" y="1248" on="1"/>
        <pt x="253" y="1248" on="0"/>
        <pt x="327" y="1206" on="0"/>
        <pt x="437" y="1079" on="0"/>
      </contour>
    </TTGlyph>
    <TTGlyph name="at" xMin="97" yMin="-442" xMax="1836" yMax="1422">
      <contour>
        <pt x="1408" y="958" on="1"/>
        <pt x="1291" y="559" on="1"/>
        <pt x="1226" y="335" on="0"/>
        <pt x="1198" y="215" on="0"/>
        <pt x="1198" y="179" on="1"/>
        <pt x="1198" y="147" on="0"/>
        <pt x="1241" y="103" on="0"/>
        <pt x="1273" y="103" on="1"/>
        <pt x="1346" y="103" on="0"/>
        <pt x="1551" y="249" on="0"/>
        <pt x="1697" y="577" on="0"/>
        <pt x="1697" y="755" on="1"/>
        <pt x="1697" y="926" on="0"/>
        <pt x="1532" y="1216" on="0"/>
        <pt x="1231" y="1371" on="0"/>
        <pt x="1049" y="1371" on="1"/>
        <pt x="818" y="1371" on="0"/>
        <pt x="422" y="1126" on="0"/>
        <pt x="191" y="666" on="0"/>
        <pt x="191" y="418" on="1"/>
        <pt x="191" y="188" on="0"/>
        <pt x="394" y="-188" on="0"/>
        <pt x="762" y="-381" on="0"/>
        <pt x="974" y="-381" on="1"/>
        <pt x="1237" y="-381" on="0"/>
        <pt x="1662" y="-99" on="0"/>
        <pt x="1778" y="172" on="1"/>
        <pt x="1836" y="172" on="1"/>
        <pt x="1746" y="-102" on="0"/>
        <pt x="1272" y="-442" on="0"/>
        <pt x="969" y="-442" on="1"/>
        <pt x="731" y="-442" on="0"/>
        <pt x="323" y="-217" on="0"/>
        <pt x="97" y="196" on="0"/>
        <pt x="97" y="444" on="1"/>
        <pt x="97" y="708" on="0"/>
        <pt x="345" y="1165" on="0"/>
        <pt x="792" y="1422" on="0"/>
        <pt x="1043" y="1422" on="1"/>
        <pt x="1250" y="1422" on="0"/>
        <pt x="1583" y="1251" on="0"/>
        <pt x="1757" y="922" on="0"/>
        <pt x="1757" y="737" on="1"/>
        <pt x="1757" y="554" on="0"/>
        <pt x="1594" y="195" on="0"/>
        <pt x="1342" y="31" on="0"/>
        <pt x="1205" y="31" on="1"/>
        <pt x="1129" y="31" on="0"/>
        <pt x="1052" y="103" on="0"/>
        <pt x="1052" y="168" on="1"/>
        <pt x="1052" y="224" on="0"/>
        <pt x="1070" y="315" on="1"/>
        <pt x="922" y="136" on="0"/>
        <pt x="744" y="30" on="0"/>
        <pt x="676" y="30" on="1"/>
        <pt x="605" y="30" on="0"/>
        <pt x="495" y="157" on="0"/>
        <pt x="495" y="263" on="1"/>
        <pt x="495" y="408" on="0"/>
        <pt x="684" y="768" on="0"/>
        <pt x="840" y="881" on="1"/>
        <pt x="955" y="964" on="0"/>
        <pt x="1046" y="964" on="1"/>
        <pt x="1113" y="964" on="0"/>
        <pt x="1202" y="895" on="0"/>
        <pt x="1218" y="826" on="1"/>
        <pt x="1251" y="936" on="1"/>
      </contour>
      <contour>
        <pt x="1057" y="917" on="1"/>
        <pt x="982" y="917" on="0"/>
        <pt x="905" y="838" on="1"/>
        <pt x="792" y="722" on="0"/>
        <pt x="712" y="525" on="1"/>
        <pt x="653" y="381" on="0"/>
        <pt x="653" y="293" on="1"/>
        <pt x="653" y="230" on="0"/>
        <pt x="724" y="151" on="0"/>
        <pt x="768" y="151" on="1"/>
        <pt x="826" y="151" on="0"/>
        <pt x="954" y="239" on="0"/>
        <pt x="1094" y="422" on="0"/>
        <pt x="1126" y="514" on="1"/>
        <pt x="1182" y="673" on="0"/>
        <pt x="1182" y="773" on="1"/>
        <pt x="1182" y="839" on="0"/>
        <pt x="1109" y="917" on="0"/>
      </contour>
    </TTGlyph>
    <TTGlyph name="b" xMin="-5" yMin="-28" xMax="953" yMax="1422">
      <contour>
        <pt x="315" y="758" on="1"/>
        <pt x="448" y="943" on="0"/>
        <pt x="602" y="943" on="1"/>
        <pt x="743" y="943" on="0"/>
        <pt x="953" y="702" on="0"/>
        <pt x="953" y="493" on="1"/>
        <pt x="953" y="249" on="0"/>
        <pt x="791" y="100" on="1"/>
        <pt x="652" y="-28" on="0"/>
        <pt x="481" y="-28" on="1"/>
        <pt x="401" y="-28" on="0"/>
        <pt x="236" y="30" on="0"/>
        <pt x="150" y="88" on="1"/>
        <pt x="150" y="1037" on="1"/>
        <pt x="150" y="1193" on="0"/>
        <pt x="135" y="1265" on="0"/>
        <pt x="103" y="1291" on="0"/>
        <pt x="79" y="1291" on="1"/>
        <pt x="51" y="1291" on="0"/>
        <pt x="9" y="1275" on="1"/>
        <pt x="-5" y="1310" on="1"/>
        <pt x="270" y="1422" on="1"/>
        <pt x="315" y="1422" on="1"/>
      </contour>
      <contour>
        <pt x="315" y="694" on="1"/>
        <pt x="315" y="146" on="1"/>
        <pt x="366" y="96" on="0"/>
        <pt x="475" y="45" on="0"/>
        <pt x="532" y="45" on="1"/>
        <pt x="623" y="45" on="0"/>
        <pt x="780" y="245" on="0"/>
        <pt x="780" y="436" on="1"/>
        <pt x="780" y="612" on="0"/>
        <pt x="623" y="801" on="0"/>
        <pt x="523" y="801" on="1"/>
        <pt x="470" y="801" on="0"/>
        <pt x="417" y="774" on="1"/>
        <pt x="377" y="754" on="0"/>
      </contour>
    </TTGlyph>
    <TTGlyph name="b.fina" xMin="0" yMin="-653" xMax="1576" yMax="1323">
      <contour>
        <pt x="243" y="647" on="1"/>
        <pt x="297" y="529" on="0"/>
        <pt x="391" y="484" on="1"/>
        <pt x="482" y="436" on="0"/>
        <pt x="542" y="436" on="1"/>
        <pt x="542" y="436" on="1"/>
        <pt x="542" y="436" on="1"/>
        <pt x="698" y="426" on="0"/>
        <pt x="689" y="647" on="1"/>
      </contour>
      <contour>
        <pt x="81" y="825" on="1"/>
        <pt x="144" y="926" on="0"/>
        <pt x="238" y="1067" on="1"/>
        <pt x="381" y="1288" on="0"/>
        <pt x="632" y="1298" on="1"/>
        <pt x="849" y="1323" on="0"/>
        <pt x="1056" y="1020" on="1"/>
        <pt x="1266" y="741" on="0"/>
        <pt x="1563" y="-7" on="0"/>
        <pt x="1574" y="-391" on="1"/>
        <pt x="1576" y="-514" on="0"/>
        <pt x="1532" y="-554" on="1"/>
        <pt x="1485" y="-609" on="0"/>
        <pt x="1359" y="-616" on="1"/>
        <pt x="1256" y="-621" on="0"/>
        <pt x="1169" y="-653" on="1"/>
        <pt x="1133" y="-651" on="0"/>
        <pt x="1138" y="-644" on="1"/>
        <pt x="1225" y="-577" on="0"/>
        <pt x="1327" y="-480" on="1"/>
        <pt x="1431" y="-386" on="0"/>
        <pt x="1437" y="-275" on="1"/>
        <pt x="1435" y="-90" on="0"/>
        <pt x="1151" y="687" on="0"/>
        <pt x="909" y="993" on="1"/>
        <pt x="797" y="1132" on="0"/>
        <pt x="643" y="1140" on="1"/>
        <pt x="356" y="1132" on="0"/>
        <pt x="223" y="825" on="1"/>
        <pt x="790" y="825" on="1"/>
        <pt x="837" y="620" on="0"/>
        <pt x="790" y="463" on="1"/>
        <pt x="743" y="300" on="0"/>
        <pt x="553" y="295" on="1"/>
        <pt x="364" y="303" on="0"/>
        <pt x="238" y="468" on="1"/>
        <pt x="157" y="565" on="0"/>
        <pt x="102" y="647" on="1"/>
        <pt x="0" y="647" on="1"/>
        <pt x="0" y="825" on="1"/>
      </contour>
    </TTGlyph>
    <TTGlyph name="b.init" xMin="100" yMin="269" xMax="1135" yMax="1298">
      <component glyphName="b.isol" x="0" y="0" flags="0x1000"/>
    </TTGlyph>
    <TTGlyph name="b.isol" xMin="100" yMin="269" xMax="1135" yMax="1298">
      <contour>
        <pt x="862" y="825" on="1"/>
        <pt x="908" y="620" on="0"/>
        <pt x="862" y="463" on="1"/>
        <pt x="814" y="274" on="0"/>
        <pt x="625" y="269" on="1"/>
        <pt x="437" y="276" on="0"/>
        <pt x="311" y="468" on="1"/>
        <pt x="184" y="626" on="0"/>
        <pt x="100" y="736" on="1"/>
        <pt x="100" y="746" on="1"/>
        <pt x="177" y="862" on="0"/>
        <pt x="311" y="1067" on="1"/>
        <pt x="452" y="1288" on="0"/>
        <pt x="645" y="1298" on="1"/>
        <pt x="832" y="1294" on="0"/>
        <pt x="923" y="1176" on="1"/>
        <pt x="1027" y="1056" on="0"/>
        <pt x="1135" y="735" on="1"/>
        <pt x="1135" y="647" on="1"/>
        <pt x="1082" y="647" on="1"/>
        <pt x="993" y="917" on="0"/>
        <pt x="893" y="1025" on="1"/>
        <pt x="797" y="1140" on="0"/>
        <pt x="655" y="1140" on="1"/>
        <pt x="429" y="1132" on="0"/>
        <pt x="296" y="825" on="1"/>
      </contour>
      <contour>
        <pt x="316" y="647" on="1"/>
        <pt x="368" y="529" on="0"/>
        <pt x="462" y="484" on="1"/>
        <pt x="554" y="436" on="0"/>
        <pt x="615" y="436" on="1"/>
        <pt x="770" y="426" on="0"/>
        <pt x="762" y="647" on="1"/>
      </contour>
    </TTGlyph>
    <TTGlyph name="b.medi" xMin="0" yMin="295" xMax="1063" yMax="1298">
      <contour>
        <pt x="243" y="647" on="1"/>
        <pt x="297" y="529" on="0"/>
        <pt x="391" y="484" on="1"/>
        <pt x="482" y="436" on="0"/>
        <pt x="542" y="436" on="1"/>
        <pt x="698" y="426" on="0"/>
        <pt x="689" y="647" on="1"/>
      </contour>
      <contour>
        <pt x="0" y="825" on="1"/>
        <pt x="81" y="825" on="1"/>
        <pt x="144" y="926" on="0"/>
        <pt x="238" y="1067" on="1"/>
        <pt x="381" y="1288" on="0"/>
        <pt x="572" y="1298" on="1"/>
        <pt x="759" y="1294" on="0"/>
        <pt x="852" y="1176" on="1"/>
        <pt x="955" y="1056" on="0"/>
        <pt x="1063" y="735" on="1"/>
        <pt x="1063" y="647" on="1"/>
        <pt x="1011" y="647" on="1"/>
        <pt x="922" y="917" on="0"/>
        <pt x="820" y="1025" on="1"/>
        <pt x="725" y="1140" on="0"/>
        <pt x="583" y="1140" on="1"/>
        <pt x="356" y="1132" on="0"/>
        <pt x="223" y="825" on="1"/>
        <pt x="790" y="825" on="1"/>
        <pt x="837" y="620" on="0"/>
        <pt x="790" y="463" on="1"/>
        <pt x="743" y="300" on="0"/>
        <pt x="553" y="295" on="1"/>
        <pt x="365" y="303" on="0"/>
        <pt x="238" y="468" on="1"/>
        <pt x="157" y="565" on="0"/>
        <pt x="102" y="647" on="1"/>
        <pt x="0" y="647" on="1"/>
      </contour>
    </TTGlyph>
    <TTGlyph name="backslash" xMin="3" yMin="-28" xMax="573" yMax="1422">
      <contour>
        <pt x="83" y="1422" on="1"/>
        <pt x="573" y="-28" on="1"/>
        <pt x="493" y="-28" on="1"/>
        <pt x="3" y="1422" on="1"/>
      </contour>
    </TTGlyph>
    <TTGlyph name="bar" xMin="161" yMin="-442" xMax="244" yMax="1422">
      <contour>
        <pt x="244" y="1422" on="1"/>
        <pt x="244" y="-442" on="1"/>
        <pt x="161" y="-442" on="1"/>
        <pt x="161" y="1422" on="1"/>
      </contour>
    </TTGlyph>
    <TTGlyph name="braceleft" xMin="283" yMin="-442" xMax="841" yMax="1422">
      <contour>
        <pt x="841" y="-407" on="1"/>
        <pt x="841" y="-442" on="1"/>
        <pt x="674" y="-419" on="0"/>
        <pt x="465" y="-194" on="0"/>
        <pt x="465" y="-57" on="1"/>
        <pt x="465" y="15" on="0"/>
        <pt x="511" y="206" on="0"/>
        <pt x="511" y="259" on="1"/>
        <pt x="511" y="331" on="0"/>
        <pt x="390" y="456" on="0"/>
        <pt x="283" y="470" on="1"/>
        <pt x="283" y="511" on="1"/>
        <pt x="390" y="525" on="0"/>
        <pt x="511" y="649" on="0"/>
        <pt x="511" y="722" on="1"/>
        <pt x="511" y="775" on="0"/>
        <pt x="465" y="965" on="0"/>
        <pt x="465" y="1038" on="1"/>
        <pt x="465" y="1174" on="0"/>
        <pt x="674" y="1400" on="0"/>
        <pt x="841" y="1422" on="1"/>
        <pt x="841" y="1387" on="1"/>
        <pt x="724" y="1359" on="0"/>
        <pt x="615" y="1232" on="0"/>
        <pt x="615" y="1156" on="1"/>
        <pt x="615" y="1097" on="0"/>
        <pt x="660" y="904" on="0"/>
        <pt x="660" y="836" on="1"/>
        <pt x="660" y="735" on="0"/>
        <pt x="512" y="545" on="0"/>
        <pt x="365" y="493" on="1"/>
        <pt x="509" y="440" on="0"/>
        <pt x="660" y="246" on="0"/>
        <pt x="660" y="145" on="1"/>
        <pt x="660" y="77" on="0"/>
        <pt x="615" y="-116" on="0"/>
        <pt x="615" y="-175" on="1"/>
        <pt x="615" y="-251" on="0"/>
        <pt x="724" y="-378" on="0"/>
      </contour>
    </TTGlyph>
    <TTGlyph name="braceright" xMin="177" yMin="-442" xMax="735" yMax="1422">
      <contour>
        <pt x="177" y="1387" on="1"/>
        <pt x="177" y="1422" on="1"/>
        <pt x="344" y="1400" on="0"/>
        <pt x="553" y="1175" on="0"/>
        <pt x="553" y="1037" on="1"/>
        <pt x="553" y="965" on="0"/>
        <pt x="507" y="775" on="0"/>
        <pt x="507" y="722" on="1"/>
        <pt x="507" y="650" on="0"/>
        <pt x="628" y="525" on="0"/>
        <pt x="735" y="511" on="1"/>
        <pt x="735" y="470" on="1"/>
        <pt x="628" y="456" on="0"/>
        <pt x="507" y="331" on="0"/>
        <pt x="507" y="259" on="1"/>
        <pt x="507" y="206" on="0"/>
        <pt x="553" y="15" on="0"/>
        <pt x="553" y="-57" on="1"/>
        <pt x="553" y="-193" on="0"/>
        <pt x="344" y="-419" on="0"/>
        <pt x="177" y="-442" on="1"/>
        <pt x="177" y="-407" on="1"/>
        <pt x="294" y="-378" on="0"/>
        <pt x="403" y="-252" on="0"/>
        <pt x="403" y="-175" on="1"/>
        <pt x="403" y="-116" on="0"/>
        <pt x="357" y="77" on="0"/>
        <pt x="357" y="144" on="1"/>
        <pt x="357" y="246" on="0"/>
        <pt x="506" y="436" on="0"/>
        <pt x="653" y="488" on="1"/>
        <pt x="509" y="541" on="0"/>
        <pt x="357" y="735" on="0"/>
        <pt x="357" y="836" on="1"/>
        <pt x="357" y="904" on="0"/>
        <pt x="403" y="1097" on="0"/>
        <pt x="403" y="1156" on="1"/>
        <pt x="403" y="1232" on="0"/>
        <pt x="294" y="1359" on="0"/>
      </contour>
    </TTGlyph>
    <TTGlyph name="bracketleft" xMin="168" yMin="-406" xMax="608" yMax="1387">
      <contour>
        <pt x="608" y="-406" on="1"/>
        <pt x="168" y="-406" on="1"/>
        <pt x="168" y="1387" on="1"/>
        <pt x="608" y="1387" on="1"/>
        <pt x="608" y="1308" on="1"/>
        <pt x="318" y="1308" on="1"/>
        <pt x="318" y="-328" on="1"/>
        <pt x="608" y="-328" on="1"/>
      </contour>
    </TTGlyph>
    <TTGlyph name="bracketright" xMin="75" yMin="-407" xMax="515" yMax="1387">
      <contour>
        <pt x="75" y="1387" on="1"/>
        <pt x="515" y="1387" on="1"/>
        <pt x="515" y="-407" on="1"/>
        <pt x="75" y="-407" on="1"/>
        <pt x="75" y="-328" on="1"/>
        <pt x="365" y="-328" on="1"/>
        <pt x="365" y="1308" on="1"/>
        <pt x="75" y="1308" on="1"/>
      </contour>
    </TTGlyph>
    <TTGlyph name="c" xMin="70" yMin="-28" xMax="842" yMax="943">
      <contour>
        <pt x="842" y="348" on="1"/>
        <pt x="805" y="167" on="0"/>
        <pt x="589" y="-28" on="0"/>
        <pt x="458" y="-28" on="1"/>
        <pt x="302" y="-28" on="0"/>
        <pt x="70" y="234" on="0"/>
        <pt x="70" y="457" on="1"/>
        <pt x="70" y="673" on="0"/>
        <pt x="327" y="943" on="0"/>
        <pt x="507" y="943" on="1"/>
        <pt x="642" y="943" on="0"/>
        <pt x="816" y="800" on="0"/>
        <pt x="816" y="723" on="1"/>
        <pt x="816" y="685" on="0"/>
        <pt x="767" y="638" on="0"/>
        <pt x="723" y="638" on="1"/>
        <pt x="664" y="638" on="0"/>
        <pt x="634" y="676" on="1"/>
        <pt x="617" y="697" on="0"/>
        <pt x="606" y="815" on="0"/>
        <pt x="571" y="846" on="1"/>
        <pt x="536" y="876" on="0"/>
        <pt x="474" y="876" on="1"/>
        <pt x="374" y="876" on="0"/>
        <pt x="313" y="802" on="1"/>
        <pt x="232" y="704" on="0"/>
        <pt x="232" y="543" on="1"/>
        <pt x="232" y="379" on="0"/>
        <pt x="393" y="128" on="0"/>
        <pt x="530" y="128" on="1"/>
        <pt x="628" y="128" on="0"/>
        <pt x="706" y="195" on="1"/>
        <pt x="761" y="241" on="0"/>
        <pt x="813" y="362" on="1"/>
      </contour>
    </TTGlyph>
    <TTGlyph name="c.fina" xMin="0" yMin="87" xMax="815" yMax="825">
      <component glyphName="c.medi" x="0" y="0" flags="0x1000"/>
    </TTGlyph>
    <TTGlyph name="c.init" xMin="0" yMin="87" xMax="1056" yMax="825">
      <component glyphName="c.isol" x="0" y="0" flags="0x1000"/>
    </TTGlyph>
    <TTGlyph name="c.isol" xMin="0" yMin="87" xMax="1056" yMax="825">
      <contour>
        <pt x="1056" y="825" on="1"/>
        <pt x="1056" y="647" on="1"/>
        <pt x="835" y="647" on="1"/>
        <pt x="835" y="272" on="1"/>
        <pt x="844" y="87" on="0"/>
        <pt x="799" y="87" on="1"/>
        <pt x="238" y="87" on="1"/>
        <pt x="238" y="93" on="1"/>
        <pt x="383" y="122" on="0"/>
        <pt x="380" y="202" on="1"/>
        <pt x="375" y="287" on="0"/>
        <pt x="507" y="293" on="1"/>
        <pt x="539" y="293" on="1"/>
        <pt x="664" y="293" on="0"/>
        <pt x="666" y="324" on="1"/>
        <pt x="666" y="647" on="1"/>
        <pt x="0" y="647" on="1"/>
        <pt x="138" y="825" on="1"/>
      </contour>
    </TTGlyph>
    <TTGlyph name="c.medi" xMin="0" yMin="87" xMax="815" yMax="825">
      <contour>
        <pt x="0" y="825" on="1"/>
        <pt x="815" y="825" on="1"/>
        <pt x="815" y="647" on="1"/>
        <pt x="577" y="647" on="1"/>
        <pt x="577" y="272" on="1"/>
        <pt x="585" y="87" on="0"/>
        <pt x="540" y="87" on="1"/>
        <pt x="43" y="87" on="1"/>
        <pt x="37" y="93" on="1"/>
        <pt x="130" y="122" on="0"/>
        <pt x="138" y="202" on="1"/>
        <pt x="133" y="287" on="0"/>
        <pt x="264" y="293" on="1"/>
        <pt x="281" y="293" on="1"/>
        <pt x="405" y="293" on="0"/>
        <pt x="408" y="324" on="1"/>
        <pt x="408" y="647" on="1"/>
        <pt x="0" y="647" on="1"/>
      </contour>
    </TTGlyph>
    <TTGlyph name="ch.fina" xMin="0" yMin="87" xMax="815" yMax="1396">
      <component glyphName="ch.medi" x="0" y="0" flags="0x1000"/>
    </TTGlyph>
    <TTGlyph name="ch.init" xMin="100" yMin="87" xMax="1156" yMax="1396">
      <component glyphName="ch.isol" x="0" y="0" flags="0x1000"/>
    </TTGlyph>
    <TTGlyph name="ch.isol" xMin="100" yMin="87" xMax="1156" yMax="1396">
      <contour>
        <pt x="1156" y="825" on="1"/>
        <pt x="1156" y="647" on="1"/>
        <pt x="935" y="647" on="1"/>
        <pt x="935" y="272" on="1"/>
        <pt x="944" y="87" on="0"/>
        <pt x="899" y="87" on="1"/>
        <pt x="338" y="87" on="1"/>
        <pt x="338" y="93" on="1"/>
        <pt x="483" y="122" on="0"/>
        <pt x="480" y="202" on="1"/>
        <pt x="475" y="287" on="0"/>
        <pt x="607" y="293" on="1"/>
        <pt x="639" y="293" on="1"/>
        <pt x="764" y="293" on="0"/>
        <pt x="766" y="324" on="1"/>
        <pt x="766" y="647" on="1"/>
        <pt x="100" y="647" on="1"/>
        <pt x="238" y="825" on="1"/>
      </contour>
      <contour>
        <pt x="897" y="903" on="1"/>
        <pt x="819" y="967" on="0"/>
        <pt x="754" y="1041" on="1"/>
        <pt x="689" y="1110" on="0"/>
        <pt x="686" y="1190" on="1"/>
        <pt x="696" y="1383" on="0"/>
        <pt x="892" y="1396" on="1"/>
        <pt x="1077" y="1391" on="0"/>
        <pt x="1087" y="1195" on="1"/>
        <pt x="1082" y="1110" on="0"/>
        <pt x="1014" y="1036" on="1"/>
        <pt x="942" y="957" on="0"/>
      </contour>
      <contour>
        <pt x="897" y="1021" on="1"/>
        <pt x="984" y="1091" on="0"/>
        <pt x="992" y="1178" on="1"/>
        <pt x="992" y="1292" on="0"/>
        <pt x="892" y="1295" on="1"/>
        <pt x="789" y="1295" on="0"/>
        <pt x="781" y="1183" on="1"/>
        <pt x="787" y="1113" on="0"/>
      </contour>
    </TTGlyph>
    <TTGlyph name="ch.medi" xMin="0" yMin="87" xMax="815" yMax="1396">
      <contour>
        <pt x="0" y="825" on="1"/>
        <pt x="815" y="825" on="1"/>
        <pt x="815" y="647" on="1"/>
        <pt x="577" y="647" on="1"/>
        <pt x="577" y="272" on="1"/>
        <pt x="585" y="87" on="0"/>
        <pt x="540" y="87" on="1"/>
        <pt x="43" y="87" on="1"/>
        <pt x="37" y="93" on="1"/>
        <pt x="130" y="122" on="0"/>
        <pt x="138" y="202" on="1"/>
        <pt x="133" y="287" on="0"/>
        <pt x="264" y="293" on="1"/>
        <pt x="281" y="293" on="1"/>
        <pt x="405" y="293" on="0"/>
        <pt x="408" y="324" on="1"/>
        <pt x="408" y="647" on="1"/>
        <pt x="0" y="647" on="1"/>
      </contour>
      <contour>
        <pt x="582" y="903" on="1"/>
        <pt x="504" y="967" on="0"/>
        <pt x="439" y="1041" on="1"/>
        <pt x="373" y="1110" on="0"/>
        <pt x="371" y="1190" on="1"/>
        <pt x="382" y="1383" on="0"/>
        <pt x="577" y="1396" on="1"/>
        <pt x="762" y="1391" on="0"/>
        <pt x="773" y="1195" on="1"/>
        <pt x="768" y="1110" on="0"/>
        <pt x="700" y="1036" on="1"/>
        <pt x="627" y="957" on="0"/>
      </contour>
      <contour>
        <pt x="582" y="1021" on="1"/>
        <pt x="669" y="1091" on="0"/>
        <pt x="677" y="1178" on="1"/>
        <pt x="677" y="1292" on="0"/>
        <pt x="577" y="1295" on="1"/>
        <pt x="473" y="1295" on="0"/>
        <pt x="467" y="1183" on="1"/>
        <pt x="472" y="1113" on="0"/>
      </contour>
    </TTGlyph>
    <TTGlyph name="colon" xMin="176" yMin="-28" xMax="400" yMax="944">
      <contour>
        <pt x="289" y="944" on="1"/>
        <pt x="335" y="944" on="0"/>
        <pt x="400" y="879" on="0"/>
        <pt x="400" y="833" on="1"/>
        <pt x="400" y="787" on="0"/>
        <pt x="335" y="722" on="0"/>
        <pt x="289" y="722" on="1"/>
        <pt x="243" y="722" on="0"/>
        <pt x="178" y="787" on="0"/>
        <pt x="178" y="833" on="1"/>
        <pt x="178" y="879" on="0"/>
        <pt x="243" y="944" on="0"/>
      </contour>
      <contour>
        <pt x="287" y="195" on="1"/>
        <pt x="334" y="195" on="0"/>
        <pt x="399" y="129" on="0"/>
        <pt x="399" y="83" on="1"/>
        <pt x="399" y="37" on="0"/>
        <pt x="333" y="-28" on="0"/>
        <pt x="287" y="-28" on="1"/>
        <pt x="241" y="-28" on="0"/>
        <pt x="176" y="37" on="0"/>
        <pt x="176" y="83" on="1"/>
        <pt x="176" y="129" on="0"/>
        <pt x="241" y="195" on="0"/>
      </contour>
    </TTGlyph>
    <TTGlyph name="colon.vrt2" xMin="510" yMin="600" xMax="1327" yMax="853">
      <contour>
        <pt x="763" y="727" on="1"/>
        <pt x="752" y="611" on="0"/>
        <pt x="637" y="600" on="1"/>
        <pt x="524" y="611" on="0"/>
        <pt x="510" y="727" on="1"/>
        <pt x="524" y="840" on="0"/>
        <pt x="637" y="853" on="1"/>
        <pt x="752" y="840" on="0"/>
        <pt x="763" y="727" on="1"/>
      </contour>
      <contour>
        <pt x="1327" y="727" on="1"/>
        <pt x="1317" y="611" on="0"/>
        <pt x="1201" y="600" on="1"/>
        <pt x="1088" y="611" on="0"/>
        <pt x="1074" y="727" on="1"/>
        <pt x="1088" y="840" on="0"/>
        <pt x="1201" y="853" on="1"/>
        <pt x="1317" y="840" on="0"/>
        <pt x="1327" y="727" on="1"/>
      </contour>
    </TTGlyph>
    <TTGlyph name="combiningcaron" xMin="181" yMin="1207" xMax="758" yMax="1665">
      <contour>
        <pt x="274" y="1665" on="1"/>
        <pt x="469" y="1338" on="1"/>
        <pt x="665" y="1665" on="1"/>
        <pt x="758" y="1665" on="1"/>
        <pt x="482" y="1207" on="1"/>
        <pt x="452" y="1207" on="1"/>
        <pt x="181" y="1665" on="1"/>
      </contour>
    </TTGlyph>
    <TTGlyph name="comma" xMin="110" yMin="-341" xMax="408" yMax="200">
      <contour>
        <pt x="110" y="-341" on="1"/>
        <pt x="110" y="-297" on="1"/>
        <pt x="213" y="-263" on="0"/>
        <pt x="326" y="-120" on="0"/>
        <pt x="326" y="-40" on="1"/>
        <pt x="326" y="-21" on="0"/>
        <pt x="317" y="-8" on="1"/>
        <pt x="310" y="1" on="0"/>
        <pt x="303" y="1" on="1"/>
        <pt x="292" y="1" on="0"/>
        <pt x="255" y="-19" on="1"/>
        <pt x="237" y="-28" on="0"/>
        <pt x="217" y="-28" on="1"/>
        <pt x="168" y="-28" on="0"/>
        <pt x="110" y="30" on="0"/>
        <pt x="110" y="81" on="1"/>
        <pt x="110" y="130" on="0"/>
        <pt x="185" y="200" on="0"/>
        <pt x="239" y="200" on="1"/>
        <pt x="305" y="200" on="0"/>
        <pt x="408" y="85" on="0"/>
        <pt x="408" y="-10" on="1"/>
        <pt x="408" y="-113" on="0"/>
        <pt x="265" y="-290" on="0"/>
      </contour>
    </TTGlyph>
    <TTGlyph name="comma.vrt2" xMin="506" yMin="589" xMax="1025" yMax="875">
      <contour>
        <pt x="1025" y="631" on="1"/>
        <pt x="1002" y="609" on="1"/>
        <pt x="1000" y="615" on="0"/>
        <pt x="859" y="743" on="0"/>
        <pt x="750" y="752" on="1"/>
        <pt x="758" y="743" on="0"/>
        <pt x="741" y="618" on="0"/>
        <pt x="643" y="592" on="1"/>
        <pt x="636" y="589" on="0"/>
        <pt x="514" y="638" on="0"/>
        <pt x="510" y="738" on="1"/>
        <pt x="506" y="745" on="0"/>
        <pt x="592" y="862" on="0"/>
        <pt x="727" y="871" on="1"/>
        <pt x="736" y="875" on="0"/>
        <pt x="939" y="784" on="0"/>
        <pt x="1025" y="631" on="1"/>
      </contour>
    </TTGlyph>
    <TTGlyph name="commamnc" xMin="510" yMin="507" xMax="740" yMax="948">
      <contour>
        <pt x="519" y="948" on="1"/>
        <pt x="725" y="878" on="0"/>
        <pt x="740" y="730" on="1"/>
        <pt x="725" y="576" on="0"/>
        <pt x="519" y="507" on="1"/>
        <pt x="525" y="539" on="1"/>
        <pt x="587" y="623" on="0"/>
        <pt x="604" y="730" on="1"/>
        <pt x="587" y="839" on="0"/>
        <pt x="510" y="932" on="1"/>
      </contour>
    </TTGlyph>
    <TTGlyph name="d" xMin="68" yMin="-28" xMax="1029" yMax="1422">
      <contour>
        <pt x="711" y="103" on="1"/>
        <pt x="644" y="33" on="0"/>
        <pt x="516" y="-28" on="0"/>
        <pt x="442" y="-28" on="1"/>
        <pt x="292" y="-28" on="0"/>
        <pt x="68" y="223" on="0"/>
        <pt x="68" y="420" on="1"/>
        <pt x="68" y="617" on="0"/>
        <pt x="316" y="944" on="0"/>
        <pt x="511" y="944" on="1"/>
        <pt x="632" y="944" on="0"/>
        <pt x="711" y="867" on="1"/>
        <pt x="711" y="1036" on="1"/>
        <pt x="711" y="1193" on="0"/>
        <pt x="696" y="1265" on="0"/>
        <pt x="664" y="1291" on="0"/>
        <pt x="640" y="1291" on="1"/>
        <pt x="614" y="1291" on="0"/>
        <pt x="571" y="1275" on="1"/>
        <pt x="558" y="1310" on="1"/>
        <pt x="831" y="1422" on="1"/>
        <pt x="876" y="1422" on="1"/>
        <pt x="876" y="363" on="1"/>
        <pt x="876" y="202" on="0"/>
        <pt x="891" y="131" on="0"/>
        <pt x="924" y="103" on="0"/>
        <pt x="946" y="103" on="1"/>
        <pt x="973" y="103" on="0"/>
        <pt x="1018" y="120" on="1"/>
        <pt x="1029" y="85" on="1"/>
        <pt x="757" y="-28" on="1"/>
        <pt x="711" y="-28" on="1"/>
      </contour>
      <contour>
        <pt x="711" y="173" on="1"/>
        <pt x="711" y="645" on="1"/>
        <pt x="705" y="713" on="0"/>
        <pt x="645" y="825" on="0"/>
        <pt x="546" y="882" on="0"/>
        <pt x="499" y="882" on="1"/>
        <pt x="411" y="882" on="0"/>
        <pt x="342" y="803" on="1"/>
        <pt x="251" y="699" on="0"/>
        <pt x="251" y="499" on="1"/>
        <pt x="251" y="297" on="0"/>
        <pt x="427" y="82" on="0"/>
        <pt x="535" y="82" on="1"/>
        <pt x="626" y="82" on="0"/>
      </contour>
    </TTGlyph>
    <TTGlyph name="d.fina" xMin="0" yMin="-218" xMax="953" yMax="1404">
      <component glyphName="d.medi" x="0" y="0" flags="0x1000"/>
    </TTGlyph>
    <TTGlyph name="d.init" xMin="100" yMin="328" xMax="1452" yMax="1404">
      <component glyphName="d.isol" x="0" y="0" flags="0x1000"/>
    </TTGlyph>
    <TTGlyph name="d.isol" xMin="100" yMin="328" xMax="1452" yMax="1404">
      <contour>
        <pt x="1194" y="1264" on="0"/>
        <pt x="1251" y="1401" on="1"/>
        <pt x="1426" y="1404" on="0"/>
        <pt x="1452" y="1306" on="1"/>
        <pt x="1446" y="1258" on="0"/>
        <pt x="1304" y="1148" on="0"/>
        <pt x="1214" y="1111" on="1"/>
      </contour>
      <contour>
        <pt x="100" y="793" on="1"/>
        <pt x="100" y="793" on="1"/>
        <pt x="100" y="803" on="1"/>
        <pt x="248" y="835" on="0"/>
        <pt x="332" y="1011" on="1"/>
        <pt x="435" y="1203" on="0"/>
        <pt x="634" y="1215" on="1"/>
        <pt x="769" y="1210" on="0"/>
        <pt x="840" y="1141" on="1"/>
        <pt x="903" y="1081" on="0"/>
        <pt x="929" y="983" on="1"/>
        <pt x="951" y="888" on="0"/>
        <pt x="971" y="809" on="1"/>
        <pt x="998" y="730" on="0"/>
        <pt x="1056" y="698" on="1"/>
        <pt x="1125" y="825" on="1"/>
        <pt x="1421" y="825" on="1"/>
        <pt x="1421" y="647" on="1"/>
        <pt x="1183" y="647" on="1"/>
        <pt x="1077" y="328" on="1"/>
        <pt x="919" y="698" on="1"/>
        <pt x="879" y="624" on="0"/>
        <pt x="807" y="529" on="1"/>
        <pt x="734" y="428" on="0"/>
        <pt x="607" y="423" on="1"/>
        <pt x="404" y="432" on="0"/>
        <pt x="342" y="592" on="1"/>
        <pt x="272" y="740" on="0"/>
        <pt x="100" y="793" on="1"/>
      </contour>
      <contour>
        <pt x="629" y="609" on="1"/>
        <pt x="629" y="609" on="1"/>
        <pt x="823" y="631" on="0"/>
        <pt x="840" y="820" on="1"/>
        <pt x="832" y="1021" on="0"/>
        <pt x="629" y="1030" on="1"/>
        <pt x="411" y="1022" on="0"/>
        <pt x="401" y="809" on="1"/>
        <pt x="404" y="624" on="0"/>
        <pt x="629" y="609" on="1"/>
      </contour>
    </TTGlyph>
    <TTGlyph name="d.medi" xMin="0" yMin="-218" xMax="953" yMax="1404">
      <contour>
        <pt x="846" y="33" on="1"/>
        <pt x="832" y="105" on="0"/>
        <pt x="756" y="123" on="1"/>
        <pt x="654" y="132" on="0"/>
        <pt x="582" y="59" on="1"/>
        <pt x="649" y="-96" on="0"/>
        <pt x="730" y="-98" on="1"/>
        <pt x="861" y="-96" on="0"/>
      </contour>
      <contour>
        <pt x="600" y="1401" on="1"/>
        <pt x="775" y="1404" on="0"/>
        <pt x="801" y="1306" on="1"/>
        <pt x="796" y="1258" on="0"/>
        <pt x="653" y="1148" on="0"/>
        <pt x="564" y="1111" on="1"/>
        <pt x="543" y="1264" on="0"/>
      </contour>
      <contour>
        <pt x="0" y="825" on="1"/>
        <pt x="770" y="825" on="1"/>
        <pt x="770" y="647" on="1"/>
        <pt x="266" y="647" on="1"/>
        <pt x="374" y="401" on="0"/>
        <pt x="518" y="186" on="1"/>
        <pt x="629" y="263" on="0"/>
        <pt x="724" y="255" on="1"/>
        <pt x="896" y="241" on="0"/>
        <pt x="935" y="49" on="1"/>
        <pt x="953" y="-159" on="0"/>
        <pt x="765" y="-209" on="1"/>
        <pt x="607" y="-218" on="0"/>
        <pt x="538" y="-135" on="1"/>
        <pt x="472" y="-80" on="0"/>
        <pt x="397" y="97" on="1"/>
        <pt x="103" y="647" on="1"/>
        <pt x="0" y="647" on="1"/>
      </contour>
    </TTGlyph>
    <TTGlyph name="d1.init" xMin="100" yMin="352" xMax="1411" yMax="1440">
      <contour>
        <pt x="1153" y="1300" on="0"/>
        <pt x="1211" y="1437" on="1"/>
        <pt x="1386" y="1440" on="0"/>
        <pt x="1411" y="1343" on="1"/>
        <pt x="1406" y="1295" on="0"/>
        <pt x="1263" y="1185" on="0"/>
        <pt x="1175" y="1147" on="1"/>
      </contour>
      <contour>
        <pt x="208" y="825" on="1"/>
        <pt x="208" y="825" on="1"/>
        <pt x="374" y="825" on="1"/>
        <pt x="359" y="920" on="0"/>
        <pt x="341" y="1002" on="1"/>
        <pt x="316" y="1086" on="0"/>
        <pt x="227" y="1168" on="1"/>
        <pt x="331" y="1176" on="0"/>
        <pt x="403" y="1237" on="1"/>
        <pt x="484" y="1300" on="0"/>
        <pt x="619" y="1305" on="1"/>
        <pt x="644" y="1305" on="1"/>
        <pt x="857" y="1297" on="0"/>
        <pt x="924" y="1113" on="1"/>
        <pt x="989" y="936" on="0"/>
        <pt x="1026" y="825" on="1"/>
        <pt x="1346" y="825" on="1"/>
        <pt x="1346" y="647" on="1"/>
        <pt x="1108" y="647" on="1"/>
        <pt x="1021" y="352" on="1"/>
        <pt x="899" y="647" on="1"/>
        <pt x="100" y="647" on="1"/>
        <pt x="208" y="825" on="1"/>
      </contour>
      <contour>
        <pt x="531" y="825" on="1"/>
        <pt x="531" y="825" on="1"/>
        <pt x="874" y="825" on="1"/>
        <pt x="869" y="936" on="0"/>
        <pt x="808" y="1057" on="1"/>
        <pt x="739" y="1142" on="0"/>
        <pt x="649" y="1145" on="1"/>
        <pt x="539" y="1130" on="0"/>
        <pt x="501" y="1052" on="1"/>
        <pt x="479" y="943" on="0"/>
        <pt x="531" y="825" on="1"/>
      </contour>
    </TTGlyph>
    <TTGlyph name="d1.medi" xMin="0" yMin="-445" xMax="927" yMax="1404">
      <contour>
        <pt x="646" y="-20" on="1"/>
        <pt x="792" y="2" on="0"/>
        <pt x="779" y="118" on="1"/>
        <pt x="749" y="218" on="0"/>
        <pt x="667" y="218" on="1"/>
        <pt x="589" y="217" on="0"/>
        <pt x="535" y="181" on="1"/>
        <pt x="599" y="75" on="0"/>
      </contour>
      <contour>
        <pt x="599" y="1401" on="1"/>
        <pt x="775" y="1404" on="0"/>
        <pt x="801" y="1306" on="1"/>
        <pt x="795" y="1258" on="0"/>
        <pt x="653" y="1148" on="0"/>
        <pt x="563" y="1111" on="1"/>
        <pt x="543" y="1264" on="0"/>
      </contour>
      <contour>
        <pt x="0" y="825" on="1"/>
        <pt x="770" y="825" on="1"/>
        <pt x="770" y="647" on="1"/>
        <pt x="266" y="647" on="1"/>
        <pt x="371" y="429" on="0"/>
        <pt x="462" y="308" on="1"/>
        <pt x="572" y="369" on="0"/>
        <pt x="710" y="345" on="1"/>
        <pt x="863" y="324" on="0"/>
        <pt x="905" y="123" on="1"/>
        <pt x="927" y="-53" on="0"/>
        <pt x="705" y="-140" on="1"/>
        <pt x="757" y="-252" on="1"/>
        <pt x="683" y="-429" on="0"/>
        <pt x="604" y="-445" on="1"/>
        <pt x="548" y="-93" on="0"/>
        <pt x="402" y="139" on="1"/>
        <pt x="103" y="647" on="1"/>
        <pt x="0" y="647" on="1"/>
      </contour>
    </TTGlyph>
    <TTGlyph name="dollar" xMin="108" yMin="-156" xMax="921" yMax="1470">
      <contour>
        <pt x="108" y="334" on="1"/>
        <pt x="152" y="334" on="1"/>
        <pt x="163" y="197" on="0"/>
        <pt x="313" y="51" on="0"/>
        <pt x="462" y="37" on="1"/>
        <pt x="462" y="621" on="1"/>
        <pt x="237" y="760" on="0"/>
        <pt x="162" y="867" on="1"/>
        <pt x="109" y="943" on="0"/>
        <pt x="109" y="1052" on="1"/>
        <pt x="109" y="1175" on="0"/>
        <pt x="292" y="1359" on="0"/>
        <pt x="462" y="1378" on="1"/>
        <pt x="462" y="1470" on="1"/>
        <pt x="526" y="1470" on="1"/>
        <pt x="526" y="1378" on="1"/>
        <pt x="608" y="1373" on="0"/>
        <pt x="664" y="1359" on="1"/>
        <pt x="693" y="1352" on="0"/>
        <pt x="856" y="1290" on="1"/>
        <pt x="856" y="991" on="1"/>
        <pt x="817" y="991" on="1"/>
        <pt x="804" y="1150" on="0"/>
        <pt x="665" y="1297" on="0"/>
        <pt x="526" y="1311" on="1"/>
        <pt x="526" y="803" on="1"/>
        <pt x="778" y="627" on="0"/>
        <pt x="921" y="460" on="0"/>
        <pt x="921" y="336" on="1"/>
        <pt x="921" y="198" on="0"/>
        <pt x="712" y="-12" on="0"/>
        <pt x="526" y="-28" on="1"/>
        <pt x="526" y="-156" on="1"/>
        <pt x="462" y="-156" on="1"/>
        <pt x="462" y="-28" on="1"/>
        <pt x="368" y="-24" on="0"/>
        <pt x="206" y="11" on="0"/>
        <pt x="108" y="51" on="1"/>
      </contour>
      <contour>
        <pt x="462" y="845" on="1"/>
        <pt x="462" y="1310" on="1"/>
        <pt x="362" y="1298" on="0"/>
        <pt x="265" y="1195" on="0"/>
        <pt x="265" y="1117" on="1"/>
        <pt x="265" y="1044" on="0"/>
        <pt x="353" y="917" on="0"/>
      </contour>
      <contour>
        <pt x="526" y="37" on="1"/>
        <pt x="601" y="50" on="0"/>
        <pt x="641" y="74" on="1"/>
        <pt x="697" y="109" on="0"/>
        <pt x="762" y="222" on="0"/>
        <pt x="762" y="286" on="1"/>
        <pt x="762" y="352" on="0"/>
        <pt x="683" y="470" on="0"/>
        <pt x="526" y="578" on="1"/>
      </contour>
    </TTGlyph>
    <TTGlyph name="dz.fina" xMin="0" yMin="223" xMax="1187" yMax="1554">
      <contour>
        <pt x="466" y="1360" on="1"/>
        <pt x="95" y="1360" on="1"/>
        <pt x="95" y="1481" on="1"/>
        <pt x="809" y="1481" on="1"/>
        <pt x="809" y="1360" on="1"/>
        <pt x="490" y="1360" on="1"/>
        <pt x="691" y="756" on="1"/>
        <pt x="780" y="946" on="0"/>
        <pt x="887" y="1147" on="1"/>
        <pt x="997" y="1368" on="0"/>
        <pt x="1187" y="1554" on="1"/>
        <pt x="999" y="1094" on="0"/>
        <pt x="870" y="777" on="1"/>
        <pt x="733" y="392" on="0"/>
        <pt x="706" y="223" on="1"/>
        <pt x="474" y="977" on="1"/>
        <pt x="247" y="381" on="1"/>
        <pt x="201" y="474" on="0"/>
        <pt x="136" y="647" on="1"/>
        <pt x="0" y="647" on="1"/>
        <pt x="0" y="825" on="1"/>
        <pt x="190" y="825" on="1"/>
        <pt x="210" y="782" on="0"/>
        <pt x="226" y="756" on="1"/>
      </contour>
    </TTGlyph>
    <TTGlyph name="dz.init" xMin="100" yMin="329" xMax="1234" yMax="1549">
      <component glyphName="dz.isol" x="0" y="0" flags="0x1000"/>
    </TTGlyph>
    <TTGlyph name="dz.isol" xMin="100" yMin="329" xMax="1234" yMax="1549">
      <contour>
        <pt x="1234" y="647" on="1"/>
        <pt x="1013" y="647" on="1"/>
        <pt x="886" y="329" on="1"/>
        <pt x="596" y="1014" on="1"/>
        <pt x="524" y="630" on="0"/>
        <pt x="454" y="529" on="1"/>
        <pt x="391" y="410" on="0"/>
        <pt x="247" y="476" on="1"/>
        <pt x="165" y="521" on="0"/>
        <pt x="100" y="630" on="1"/>
        <pt x="261" y="588" on="0"/>
        <pt x="375" y="751" on="1"/>
        <pt x="434" y="843" on="0"/>
        <pt x="479" y="1036" on="1"/>
        <pt x="524" y="1226" on="0"/>
        <pt x="568" y="1426" on="1"/>
        <pt x="224" y="1426" on="1"/>
        <pt x="224" y="1549" on="1"/>
        <pt x="937" y="1549" on="1"/>
        <pt x="937" y="1426" on="1"/>
        <pt x="588" y="1426" on="1"/>
        <pt x="860" y="725" on="1"/>
        <pt x="934" y="825" on="1"/>
        <pt x="1234" y="825" on="1"/>
      </contour>
    </TTGlyph>
    <TTGlyph name="dz.medi" xMin="0" yMin="331" xMax="1028" yMax="1481">
      <contour>
        <pt x="0" y="825" on="1"/>
        <pt x="241" y="825" on="1"/>
        <pt x="442" y="1360" on="1"/>
        <pt x="95" y="1360" on="1"/>
        <pt x="95" y="1481" on="1"/>
        <pt x="809" y="1481" on="1"/>
        <pt x="809" y="1360" on="1"/>
        <pt x="460" y="1361" on="1"/>
        <pt x="674" y="725" on="1"/>
        <pt x="732" y="825" on="1"/>
        <pt x="1028" y="825" on="1"/>
        <pt x="1028" y="647" on="1"/>
        <pt x="806" y="647" on="1"/>
        <pt x="679" y="331" on="1"/>
        <pt x="458" y="994" on="1"/>
        <pt x="220" y="405" on="1"/>
        <pt x="135" y="647" on="1"/>
        <pt x="0" y="647" on="1"/>
      </contour>
    </TTGlyph>
    <TTGlyph name="dz1.init" xMin="100" yMin="410" xMax="929" yMax="1549">
      <contour>
        <pt x="794" y="610" on="0"/>
        <pt x="726" y="647" on="1"/>
        <pt x="596" y="1035" on="1"/>
        <pt x="524" y="630" on="0"/>
        <pt x="454" y="529" on="1"/>
        <pt x="391" y="410" on="0"/>
        <pt x="247" y="476" on="1"/>
        <pt x="165" y="521" on="0"/>
        <pt x="100" y="630" on="1"/>
        <pt x="261" y="588" on="0"/>
        <pt x="375" y="751" on="1"/>
        <pt x="434" y="843" on="0"/>
        <pt x="479" y="1036" on="1"/>
        <pt x="524" y="1226" on="0"/>
        <pt x="568" y="1426" on="1"/>
        <pt x="216" y="1426" on="1"/>
        <pt x="216" y="1549" on="1"/>
        <pt x="929" y="1549" on="1"/>
        <pt x="929" y="1426" on="1"/>
        <pt x="588" y="1426" on="1"/>
        <pt x="745" y="996" on="1"/>
        <pt x="811" y="825" on="1"/>
        <pt x="829" y="762" on="0"/>
      </contour>
    </TTGlyph>
    <TTGlyph name="dz1.medi" xMin="0" yMin="405" xMax="810" yMax="1496">
      <contour>
        <pt x="0" y="825" on="1"/>
        <pt x="242" y="825" on="1"/>
        <pt x="450" y="1374" on="1"/>
        <pt x="96" y="1374" on="1"/>
        <pt x="96" y="1496" on="1"/>
        <pt x="810" y="1496" on="1"/>
        <pt x="810" y="1374" on="1"/>
        <pt x="456" y="1374" on="1"/>
        <pt x="648" y="825" on="1"/>
        <pt x="702" y="647" on="0"/>
        <pt x="575" y="647" on="1"/>
        <pt x="459" y="994" on="1"/>
        <pt x="221" y="405" on="1"/>
        <pt x="136" y="647" on="1"/>
        <pt x="0" y="647" on="1"/>
      </contour>
    </TTGlyph>
    <TTGlyph name="e" xMin="76" yMin="-28" xMax="851" yMax="944">
      <contour>
        <pt x="218" y="571" on="1"/>
        <pt x="217" y="367" on="0"/>
        <pt x="317" y="251" on="1"/>
        <pt x="417" y="135" on="0"/>
        <pt x="552" y="135" on="1"/>
        <pt x="642" y="135" on="0"/>
        <pt x="775" y="234" on="0"/>
        <pt x="820" y="354" on="1"/>
        <pt x="851" y="334" on="1"/>
        <pt x="830" y="197" on="0"/>
        <pt x="628" y="-28" on="0"/>
        <pt x="476" y="-28" on="1"/>
        <pt x="311" y="-28" on="0"/>
        <pt x="76" y="229" on="0"/>
        <pt x="76" y="446" on="1"/>
        <pt x="76" y="681" on="0"/>
        <pt x="317" y="944" on="0"/>
        <pt x="499" y="944" on="1"/>
        <pt x="653" y="944" on="0"/>
        <pt x="851" y="741" on="0"/>
        <pt x="851" y="571" on="1"/>
      </contour>
      <contour>
        <pt x="218" y="629" on="1"/>
        <pt x="642" y="629" on="1"/>
        <pt x="637" y="717" on="0"/>
        <pt x="621" y="753" on="1"/>
        <pt x="596" y="809" on="0"/>
        <pt x="497" y="873" on="0"/>
        <pt x="443" y="873" on="1"/>
        <pt x="360" y="873" on="0"/>
        <pt x="229" y="744" on="0"/>
      </contour>
    </TTGlyph>
    <TTGlyph name="e.fina" xMin="0" yMin="196" xMax="1055" yMax="2004">
      <contour>
        <pt x="56" y="1265" on="0"/>
        <pt x="115" y="1401" on="1"/>
        <pt x="287" y="1403" on="0"/>
        <pt x="313" y="1306" on="1"/>
        <pt x="308" y="1260" on="0"/>
        <pt x="166" y="1150" on="0"/>
        <pt x="78" y="1113" on="1"/>
      </contour>
      <contour>
        <pt x="0" y="647" on="1"/>
        <pt x="0" y="825" on="1"/>
        <pt x="213" y="825" on="1"/>
        <pt x="372" y="656" on="1"/>
        <pt x="452" y="915" on="1"/>
        <pt x="519" y="1131" on="0"/>
        <pt x="837" y="1584" on="0"/>
        <pt x="837" y="2004" on="1"/>
        <pt x="1055" y="1504" on="1"/>
        <pt x="880" y="1317" on="0"/>
        <pt x="634" y="991" on="0"/>
        <pt x="525" y="775" on="1"/>
        <pt x="476" y="545" on="0"/>
        <pt x="536" y="196" on="1"/>
        <pt x="433" y="373" on="0"/>
        <pt x="298" y="587" on="0"/>
        <pt x="219" y="647" on="1"/>
      </contour>
    </TTGlyph>
    <TTGlyph name="e.init" xMin="96" yMin="307" xMax="1115" yMax="1141">
      <contour>
        <pt x="1115" y="825" on="1"/>
        <pt x="1115" y="647" on="1"/>
        <pt x="734" y="647" on="1"/>
        <pt x="613" y="307" on="1"/>
        <pt x="517" y="572" on="0"/>
        <pt x="279" y="1007" on="0"/>
        <pt x="96" y="976" on="1"/>
        <pt x="133" y="1044" on="0"/>
        <pt x="283" y="1141" on="0"/>
        <pt x="351" y="1138" on="1"/>
        <pt x="444" y="1113" on="0"/>
        <pt x="577" y="842" on="0"/>
        <pt x="625" y="721" on="1"/>
        <pt x="660" y="825" on="1"/>
      </contour>
    </TTGlyph>
    <TTGlyph name="e.isol" xMin="100" yMin="-654" xMax="1704" yMax="1141">
      <contour>
        <pt x="743" y="647" on="1"/>
        <pt x="738" y="647" on="1"/>
        <pt x="617" y="307" on="1"/>
        <pt x="521" y="572" on="0"/>
        <pt x="283" y="1007" on="0"/>
        <pt x="100" y="976" on="1"/>
        <pt x="137" y="1044" on="0"/>
        <pt x="287" y="1141" on="0"/>
        <pt x="355" y="1138" on="1"/>
        <pt x="448" y="1113" on="0"/>
        <pt x="581" y="842" on="0"/>
        <pt x="629" y="721" on="1"/>
        <pt x="664" y="825" on="1"/>
        <pt x="960" y="825" on="1"/>
        <pt x="1298" y="803" on="0"/>
        <pt x="1489" y="406" on="1"/>
        <pt x="1677" y="4" on="0"/>
        <pt x="1704" y="-428" on="1"/>
        <pt x="1701" y="-586" on="0"/>
        <pt x="1479" y="-611" on="1"/>
        <pt x="1364" y="-616" on="0"/>
        <pt x="1280" y="-654" on="1"/>
        <pt x="1249" y="-654" on="0"/>
        <pt x="1249" y="-638" on="1"/>
        <pt x="1335" y="-572" on="0"/>
        <pt x="1437" y="-476" on="1"/>
        <pt x="1542" y="-382" on="0"/>
        <pt x="1551" y="-271" on="1"/>
        <pt x="1534" y="90" on="0"/>
        <pt x="1352" y="365" on="1"/>
        <pt x="1165" y="644" on="0"/>
        <pt x="1032" y="637" on="1"/>
      </contour>
    </TTGlyph>
    <TTGlyph name="e.medi" xMin="0" yMin="255" xMax="565" yMax="1403">
      <contour>
        <pt x="565" y="825" on="1"/>
        <pt x="565" y="647" on="1"/>
        <pt x="364" y="647" on="1"/>
        <pt x="261" y="255" on="1"/>
        <pt x="156" y="647" on="1"/>
        <pt x="0" y="647" on="1"/>
        <pt x="0" y="825" on="1"/>
      </contour>
      <contour>
        <pt x="103" y="1265" on="0"/>
        <pt x="161" y="1401" on="1"/>
        <pt x="334" y="1403" on="0"/>
        <pt x="360" y="1306" on="1"/>
        <pt x="355" y="1260" on="0"/>
        <pt x="214" y="1150" on="0"/>
        <pt x="125" y="1113" on="1"/>
      </contour>
    </TTGlyph>
    <TTGlyph name="e1.fina" xMin="0" yMin="196" xMax="1055" yMax="2004">
      <contour>
        <pt x="0" y="647" on="1"/>
        <pt x="0" y="825" on="1"/>
        <pt x="213" y="825" on="1"/>
        <pt x="372" y="656" on="1"/>
        <pt x="452" y="915" on="1"/>
        <pt x="519" y="1131" on="0"/>
        <pt x="837" y="1584" on="0"/>
        <pt x="837" y="2004" on="1"/>
        <pt x="1055" y="1504" on="1"/>
        <pt x="880" y="1317" on="0"/>
        <pt x="634" y="991" on="0"/>
        <pt x="525" y="775" on="1"/>
        <pt x="476" y="545" on="0"/>
        <pt x="536" y="196" on="1"/>
        <pt x="433" y="373" on="0"/>
        <pt x="298" y="587" on="0"/>
        <pt x="219" y="647" on="1"/>
      </contour>
    </TTGlyph>
    <TTGlyph name="e1.medi" xMin="0" yMin="255" xMax="565" yMax="825">
      <contour>
        <pt x="565" y="825" on="1"/>
        <pt x="565" y="647" on="1"/>
        <pt x="364" y="647" on="1"/>
        <pt x="261" y="255" on="1"/>
        <pt x="156" y="647" on="1"/>
        <pt x="0" y="647" on="1"/>
        <pt x="0" y="825" on="1"/>
      </contour>
    </TTGlyph>
    <TTGlyph name="e2.fina" xMin="0" yMin="-654" xMax="1144" yMax="825">
      <contour>
        <pt x="79" y="333" on="1"/>
        <pt x="0" y="647" on="1"/>
        <pt x="0" y="825" on="1"/>
        <pt x="305" y="825" on="1"/>
        <pt x="739" y="773" on="0"/>
        <pt x="930" y="406" on="1"/>
        <pt x="1118" y="4" on="0"/>
        <pt x="1144" y="-428" on="1"/>
        <pt x="1141" y="-586" on="0"/>
        <pt x="920" y="-611" on="1"/>
        <pt x="805" y="-616" on="0"/>
        <pt x="721" y="-654" on="1"/>
        <pt x="689" y="-654" on="0"/>
        <pt x="689" y="-638" on="1"/>
        <pt x="776" y="-572" on="0"/>
        <pt x="877" y="-476" on="1"/>
        <pt x="982" y="-382" on="0"/>
        <pt x="992" y="-271" on="1"/>
        <pt x="974" y="90" on="0"/>
        <pt x="793" y="365" on="1"/>
        <pt x="645" y="594" on="0"/>
        <pt x="362" y="637" on="1"/>
        <pt x="158" y="637" on="1"/>
      </contour>
    </TTGlyph>
    <TTGlyph name="e3.fina" xMin="-496" yMin="-654" xMax="1144" yMax="1721">
      <contour>
        <pt x="-467" y="1420" on="1"/>
        <pt x="-496" y="1583" on="0"/>
        <pt x="-430" y="1708" on="1"/>
        <pt x="-244" y="1721" on="0"/>
        <pt x="-221" y="1604" on="1"/>
        <pt x="-221" y="1554" on="0"/>
        <pt x="-305" y="1499" on="1"/>
        <pt x="-383" y="1443" on="0"/>
      </contour>
      <contour>
        <pt x="79" y="333" on="1"/>
        <pt x="0" y="647" on="1"/>
        <pt x="0" y="825" on="1"/>
        <pt x="305" y="825" on="1"/>
        <pt x="739" y="773" on="0"/>
        <pt x="930" y="406" on="1"/>
        <pt x="1118" y="4" on="0"/>
        <pt x="1144" y="-428" on="1"/>
        <pt x="1141" y="-586" on="0"/>
        <pt x="920" y="-611" on="1"/>
        <pt x="805" y="-616" on="0"/>
        <pt x="721" y="-654" on="1"/>
        <pt x="689" y="-654" on="0"/>
        <pt x="689" y="-638" on="1"/>
        <pt x="776" y="-572" on="0"/>
        <pt x="877" y="-476" on="1"/>
        <pt x="982" y="-382" on="0"/>
        <pt x="992" y="-271" on="1"/>
        <pt x="974" y="90" on="0"/>
        <pt x="793" y="365" on="1"/>
        <pt x="645" y="594" on="0"/>
        <pt x="362" y="637" on="1"/>
        <pt x="158" y="637" on="1"/>
      </contour>
    </TTGlyph>
    <TTGlyph name="eight" xMin="124" yMin="-24" xMax="906" yMax="1384">
      <contour>
        <pt x="393" y="683" on="1"/>
        <pt x="232" y="815" on="0"/>
        <pt x="139" y="975" on="0"/>
        <pt x="139" y="1061" on="1"/>
        <pt x="139" y="1193" on="0"/>
        <pt x="343" y="1384" on="0"/>
        <pt x="512" y="1384" on="1"/>
        <pt x="676" y="1384" on="0"/>
        <pt x="876" y="1206" on="0"/>
        <pt x="876" y="1092" on="1"/>
        <pt x="876" y="1016" on="0"/>
        <pt x="768" y="858" on="0"/>
        <pt x="597" y="751" on="1"/>
        <pt x="773" y="615" on="0"/>
        <pt x="830" y="537" on="1"/>
        <pt x="906" y="435" on="0"/>
        <pt x="906" y="322" on="1"/>
        <pt x="906" y="179" on="0"/>
        <pt x="688" y="-24" on="0"/>
        <pt x="511" y="-24" on="1"/>
        <pt x="318" y="-24" on="0"/>
        <pt x="210" y="97" on="1"/>
        <pt x="124" y="194" on="0"/>
        <pt x="124" y="309" on="1"/>
        <pt x="124" y="399" on="0"/>
        <pt x="245" y="576" on="0"/>
      </contour>
      <contour>
        <pt x="550" y="790" on="1"/>
        <pt x="670" y="898" on="0"/>
        <pt x="734" y="1023" on="0"/>
        <pt x="734" y="1102" on="1"/>
        <pt x="734" y="1207" on="0"/>
        <pt x="616" y="1326" on="0"/>
        <pt x="514" y="1326" on="1"/>
        <pt x="412" y="1326" on="0"/>
        <pt x="284" y="1208" on="0"/>
        <pt x="284" y="1129" on="1"/>
        <pt x="284" y="1077" on="0"/>
        <pt x="337" y="973" on="0"/>
        <pt x="386" y="926" on="1"/>
      </contour>
      <contour>
        <pt x="440" y="645" on="1"/>
        <pt x="357" y="575" on="0"/>
        <pt x="277" y="410" on="0"/>
        <pt x="277" y="314" on="1"/>
        <pt x="277" y="185" on="0"/>
        <pt x="418" y="30" on="0"/>
        <pt x="527" y="30" on="1"/>
        <pt x="635" y="30" on="0"/>
        <pt x="765" y="152" on="0"/>
        <pt x="765" y="239" on="1"/>
        <pt x="765" y="311" on="0"/>
        <pt x="727" y="368" on="1"/>
        <pt x="656" y="474" on="0"/>
      </contour>
    </TTGlyph>
    <TTGlyph name="eight.vert" xMin="100" yMin="391" xMax="1338" yMax="1079">
      <contour>
        <pt x="717" y="627" on="1"/>
        <pt x="600" y="486" on="0"/>
        <pt x="460" y="404" on="0"/>
        <pt x="384" y="404" on="1"/>
        <pt x="268" y="404" on="0"/>
        <pt x="100" y="583" on="0"/>
        <pt x="100" y="732" on="1"/>
        <pt x="100" y="876" on="0"/>
        <pt x="257" y="1052" on="0"/>
        <pt x="357" y="1052" on="1"/>
        <pt x="424" y="1052" on="0"/>
        <pt x="563" y="957" on="0"/>
        <pt x="657" y="807" on="1"/>
        <pt x="776" y="962" on="0"/>
        <pt x="845" y="1012" on="1"/>
        <pt x="935" y="1079" on="0"/>
        <pt x="1034" y="1079" on="1"/>
        <pt x="1160" y="1079" on="0"/>
        <pt x="1338" y="887" on="0"/>
        <pt x="1338" y="731" on="1"/>
        <pt x="1338" y="561" on="0"/>
        <pt x="1232" y="466" on="1"/>
        <pt x="1147" y="391" on="0"/>
        <pt x="1046" y="391" on="1"/>
        <pt x="966" y="391" on="0"/>
        <pt x="811" y="497" on="0"/>
      </contour>
      <contour>
        <pt x="622" y="766" on="1"/>
        <pt x="527" y="871" on="0"/>
        <pt x="418" y="927" on="0"/>
        <pt x="348" y="927" on="1"/>
        <pt x="256" y="927" on="0"/>
        <pt x="151" y="824" on="0"/>
        <pt x="151" y="734" on="1"/>
        <pt x="151" y="644" on="0"/>
        <pt x="255" y="532" on="0"/>
        <pt x="324" y="532" on="1"/>
        <pt x="370" y="532" on="0"/>
        <pt x="462" y="578" on="0"/>
        <pt x="503" y="621" on="1"/>
      </contour>
      <contour>
        <pt x="750" y="669" on="1"/>
        <pt x="812" y="596" on="0"/>
        <pt x="957" y="525" on="0"/>
        <pt x="1041" y="525" on="1"/>
        <pt x="1155" y="525" on="0"/>
        <pt x="1291" y="649" on="0"/>
        <pt x="1291" y="745" on="1"/>
        <pt x="1291" y="840" on="0"/>
        <pt x="1184" y="955" on="0"/>
        <pt x="1107" y="955" on="1"/>
        <pt x="1044" y="955" on="0"/>
        <pt x="994" y="921" on="1"/>
        <pt x="900" y="859" on="0"/>
      </contour>
    </TTGlyph>
    <TTGlyph name="eightleft.hwid" xMin="85" yMin="86" xMax="1137" yMax="671">
      <contour>
        <pt x="609" y="286" on="1"/>
        <pt x="510" y="167" on="0"/>
        <pt x="391" y="97" on="0"/>
        <pt x="326" y="97" on="1"/>
        <pt x="228" y="97" on="0"/>
        <pt x="85" y="249" on="0"/>
        <pt x="85" y="376" on="1"/>
        <pt x="85" y="498" on="0"/>
        <pt x="218" y="648" on="0"/>
        <pt x="303" y="648" on="1"/>
        <pt x="360" y="648" on="0"/>
        <pt x="479" y="567" on="0"/>
        <pt x="558" y="439" on="1"/>
        <pt x="660" y="571" on="0"/>
        <pt x="718" y="614" on="1"/>
        <pt x="795" y="671" on="0"/>
        <pt x="879" y="671" on="1"/>
        <pt x="986" y="671" on="0"/>
        <pt x="1137" y="507" on="0"/>
        <pt x="1137" y="375" on="1"/>
        <pt x="1137" y="230" on="0"/>
        <pt x="1047" y="150" on="1"/>
        <pt x="975" y="86" on="0"/>
        <pt x="889" y="86" on="1"/>
        <pt x="821" y="86" on="0"/>
        <pt x="689" y="176" on="0"/>
      </contour>
      <contour>
        <pt x="529" y="405" on="1"/>
        <pt x="448" y="494" on="0"/>
        <pt x="355" y="541" on="0"/>
        <pt x="296" y="541" on="1"/>
        <pt x="218" y="541" on="0"/>
        <pt x="128" y="454" on="0"/>
        <pt x="128" y="377" on="1"/>
        <pt x="128" y="301" on="0"/>
        <pt x="217" y="206" on="0"/>
        <pt x="275" y="206" on="1"/>
        <pt x="315" y="206" on="0"/>
        <pt x="393" y="245" on="0"/>
        <pt x="428" y="281" on="1"/>
      </contour>
      <contour>
        <pt x="638" y="322" on="1"/>
        <pt x="690" y="260" on="0"/>
        <pt x="813" y="200" on="0"/>
        <pt x="885" y="200" on="1"/>
        <pt x="982" y="200" on="0"/>
        <pt x="1097" y="305" on="0"/>
        <pt x="1097" y="387" on="1"/>
        <pt x="1097" y="467" on="0"/>
        <pt x="1006" y="565" on="0"/>
        <pt x="941" y="565" on="1"/>
        <pt x="887" y="565" on="0"/>
        <pt x="845" y="536" on="1"/>
        <pt x="765" y="484" on="0"/>
      </contour>
    </TTGlyph>
    <TTGlyph name="eightright.hwid" xMin="-542" yMin="791" xMax="510" yMax="1376">
      <contour>
        <pt x="-18" y="992" on="1"/>
        <pt x="-117" y="872" on="0"/>
        <pt x="-236" y="802" on="0"/>
        <pt x="-301" y="802" on="1"/>
        <pt x="-399" y="802" on="0"/>
        <pt x="-542" y="954" on="0"/>
        <pt x="-542" y="1081" on="1"/>
        <pt x="-542" y="1204" on="0"/>
        <pt x="-409" y="1353" on="0"/>
        <pt x="-324" y="1353" on="1"/>
        <pt x="-267" y="1353" on="0"/>
        <pt x="-148" y="1272" on="0"/>
        <pt x="-69" y="1145" on="1"/>
        <pt x="33" y="1277" on="0"/>
        <pt x="91" y="1319" on="1"/>
        <pt x="168" y="1376" on="0"/>
        <pt x="252" y="1376" on="1"/>
        <pt x="359" y="1376" on="0"/>
        <pt x="510" y="1213" on="0"/>
        <pt x="510" y="1080" on="1"/>
        <pt x="510" y="936" on="0"/>
        <pt x="420" y="855" on="1"/>
        <pt x="348" y="791" on="0"/>
        <pt x="262" y="791" on="1"/>
        <pt x="194" y="791" on="0"/>
        <pt x="62" y="881" on="0"/>
      </contour>
      <contour>
        <pt x="-98" y="1110" on="1"/>
        <pt x="-179" y="1199" on="0"/>
        <pt x="-272" y="1247" on="0"/>
        <pt x="-331" y="1247" on="1"/>
        <pt x="-409" y="1247" on="0"/>
        <pt x="-499" y="1159" on="0"/>
        <pt x="-499" y="1083" on="1"/>
        <pt x="-499" y="1006" on="0"/>
        <pt x="-410" y="911" on="0"/>
        <pt x="-352" y="911" on="1"/>
        <pt x="-312" y="911" on="0"/>
        <pt x="-234" y="950" on="0"/>
        <pt x="-199" y="987" on="1"/>
      </contour>
      <contour>
        <pt x="11" y="1028" on="1"/>
        <pt x="63" y="966" on="0"/>
        <pt x="186" y="905" on="0"/>
        <pt x="258" y="905" on="1"/>
        <pt x="355" y="905" on="0"/>
        <pt x="470" y="1011" on="0"/>
        <pt x="470" y="1092" on="1"/>
        <pt x="470" y="1173" on="0"/>
        <pt x="379" y="1271" on="0"/>
        <pt x="314" y="1271" on="1"/>
        <pt x="260" y="1271" on="0"/>
        <pt x="218" y="1242" on="1"/>
        <pt x="138" y="1189" on="0"/>
      </contour>
    </TTGlyph>
    <TTGlyph name="ellipsis.vrt2" xMin="440" yMin="607" xMax="1771" yMax="860">
      <contour>
        <pt x="1644" y="607" on="1"/>
        <pt x="1529" y="618" on="0"/>
        <pt x="1519" y="733" on="1"/>
        <pt x="1529" y="846" on="0"/>
        <pt x="1644" y="860" on="1"/>
        <pt x="1758" y="846" on="0"/>
        <pt x="1771" y="733" on="1"/>
        <pt x="1758" y="618" on="0"/>
        <pt x="1644" y="607" on="1"/>
      </contour>
      <contour>
        <pt x="1097" y="607" on="1"/>
        <pt x="981" y="618" on="0"/>
        <pt x="970" y="733" on="1"/>
        <pt x="981" y="846" on="0"/>
        <pt x="1097" y="860" on="1"/>
        <pt x="1209" y="846" on="0"/>
        <pt x="1222" y="733" on="1"/>
        <pt x="1209" y="618" on="0"/>
        <pt x="1097" y="607" on="1"/>
      </contour>
      <contour>
        <pt x="567" y="607" on="1"/>
        <pt x="451" y="618" on="0"/>
        <pt x="440" y="733" on="1"/>
        <pt x="451" y="846" on="0"/>
        <pt x="567" y="860" on="1"/>
        <pt x="680" y="846" on="0"/>
        <pt x="693" y="733" on="1"/>
        <pt x="680" y="618" on="0"/>
        <pt x="567" y="607" on="1"/>
      </contour>
    </TTGlyph>
    <TTGlyph name="emdash.vrt2" xMin="340" yMin="672" xMax="1793" yMax="795">
      <contour>
        <pt x="1793" y="672" on="1"/>
        <pt x="340" y="672" on="1"/>
        <pt x="340" y="795" on="1"/>
        <pt x="1793" y="795" on="1"/>
      </contour>
    </TTGlyph>
    <TTGlyph name="equal" xMin="100" yMin="525" xMax="1179" yMax="933">
      <contour>
        <pt x="100" y="933" on="1"/>
        <pt x="1179" y="933" on="1"/>
        <pt x="1179" y="851" on="1"/>
        <pt x="100" y="851" on="1"/>
      </contour>
      <contour>
        <pt x="100" y="607" on="1"/>
        <pt x="1179" y="607" on="1"/>
        <pt x="1179" y="525" on="1"/>
        <pt x="100" y="525" on="1"/>
      </contour>
    </TTGlyph>
    <TTGlyph name="exclam" xMin="228" yMin="-28" xMax="454" yMax="1387">
      <contour>
        <pt x="360" y="359" on="1"/>
        <pt x="322" y="359" on="1"/>
        <pt x="234" y="1169" on="1"/>
        <pt x="228" y="1222" on="0"/>
        <pt x="228" y="1248" on="1"/>
        <pt x="228" y="1311" on="0"/>
        <pt x="295" y="1387" on="0"/>
        <pt x="342" y="1387" on="1"/>
        <pt x="389" y="1387" on="0"/>
        <pt x="454" y="1311" on="0"/>
        <pt x="454" y="1236" on="1"/>
        <pt x="454" y="1212" on="0"/>
        <pt x="450" y="1169" on="1"/>
      </contour>
      <contour>
        <pt x="340" y="193" on="1"/>
        <pt x="386" y="193" on="0"/>
        <pt x="451" y="128" on="0"/>
        <pt x="451" y="83" on="1"/>
        <pt x="451" y="37" on="0"/>
        <pt x="386" y="-28" on="0"/>
        <pt x="340" y="-28" on="1"/>
        <pt x="294" y="-28" on="0"/>
        <pt x="229" y="37" on="0"/>
        <pt x="229" y="83" on="1"/>
        <pt x="229" y="128" on="0"/>
        <pt x="294" y="193" on="0"/>
      </contour>
    </TTGlyph>
    <TTGlyph name="exclam.vrt2" xMin="510" yMin="609" xMax="1848" yMax="868">
      <contour>
        <pt x="510" y="727" on="1"/>
        <pt x="530" y="864" on="0"/>
        <pt x="660" y="839" on="1"/>
        <pt x="853" y="815" on="0"/>
        <pt x="1207" y="773" on="0"/>
        <pt x="1419" y="749" on="1"/>
        <pt x="1419" y="727" on="1"/>
        <pt x="1179" y="694" on="0"/>
        <pt x="762" y="631" on="0"/>
        <pt x="660" y="614" on="1"/>
        <pt x="514" y="609" on="0"/>
        <pt x="510" y="727" on="1"/>
      </contour>
      <contour>
        <pt x="1848" y="741" on="1"/>
        <pt x="1837" y="626" on="0"/>
        <pt x="1721" y="614" on="1"/>
        <pt x="1608" y="626" on="0"/>
        <pt x="1595" y="741" on="1"/>
        <pt x="1608" y="854" on="0"/>
        <pt x="1721" y="868" on="1"/>
        <pt x="1837" y="854" on="0"/>
        <pt x="1848" y="741" on="1"/>
      </contour>
    </TTGlyph>
    <TTGlyph name="exclam_question.vrt2" xMin="508" yMin="287" xMax="1857" yMax="1436">
      <contour>
        <pt x="519" y="405" on="1"/>
        <pt x="539" y="542" on="0"/>
        <pt x="669" y="518" on="1"/>
        <pt x="862" y="494" on="0"/>
        <pt x="1216" y="452" on="0"/>
        <pt x="1428" y="427" on="1"/>
        <pt x="1428" y="405" on="1"/>
        <pt x="1188" y="373" on="0"/>
        <pt x="771" y="310" on="0"/>
        <pt x="669" y="292" on="1"/>
        <pt x="523" y="287" on="0"/>
        <pt x="519" y="405" on="1"/>
      </contour>
      <contour>
        <pt x="1857" y="1038" on="1"/>
        <pt x="1846" y="922" on="0"/>
        <pt x="1730" y="912" on="1"/>
        <pt x="1617" y="922" on="0"/>
        <pt x="1604" y="1038" on="1"/>
        <pt x="1617" y="1151" on="0"/>
        <pt x="1730" y="1164" on="1"/>
        <pt x="1846" y="1151" on="0"/>
        <pt x="1857" y="1038" on="1"/>
      </contour>
      <contour>
        <pt x="1446" y="1006" on="1"/>
        <pt x="1231" y="1032" on="0"/>
        <pt x="901" y="1220" on="0"/>
        <pt x="800" y="1233" on="1"/>
        <pt x="564" y="1212" on="0"/>
        <pt x="564" y="1003" on="1"/>
        <pt x="562" y="945" on="0"/>
        <pt x="600" y="817" on="0"/>
        <pt x="669" y="794" on="1"/>
        <pt x="702" y="788" on="0"/>
        <pt x="752" y="841" on="0"/>
        <pt x="809" y="849" on="1"/>
        <pt x="888" y="846" on="0"/>
        <pt x="899" y="757" on="1"/>
        <pt x="885" y="636" on="0"/>
        <pt x="777" y="645" on="1"/>
        <pt x="646" y="649" on="0"/>
        <pt x="511" y="878" on="0"/>
        <pt x="510" y="1034" on="1"/>
        <pt x="508" y="1194" on="0"/>
        <pt x="623" y="1429" on="0"/>
        <pt x="772" y="1436" on="1"/>
        <pt x="917" y="1436" on="0"/>
        <pt x="1026" y="1314" on="1"/>
        <pt x="1083" y="1241" on="0"/>
        <pt x="1294" y="1066" on="0"/>
        <pt x="1446" y="1029" on="1"/>
        <pt x="1446" y="1006" on="1"/>
      </contour>
      <contour>
        <pt x="1857" y="420" on="1"/>
        <pt x="1846" y="305" on="0"/>
        <pt x="1730" y="293" on="1"/>
        <pt x="1617" y="305" on="0"/>
        <pt x="1604" y="420" on="1"/>
        <pt x="1617" y="533" on="0"/>
        <pt x="1730" y="546" on="1"/>
        <pt x="1846" y="533" on="0"/>
        <pt x="1857" y="420" on="1"/>
      </contour>
    </TTGlyph>
    <TTGlyph name="exclamdbl.vrt2" xMin="510" yMin="339" xMax="1848" yMax="1118">
      <contour>
        <pt x="1848" y="477" on="1"/>
        <pt x="1837" y="362" on="0"/>
        <pt x="1721" y="352" on="1"/>
        <pt x="1608" y="362" on="0"/>
        <pt x="1595" y="477" on="1"/>
        <pt x="1608" y="591" on="0"/>
        <pt x="1721" y="603" on="1"/>
        <pt x="1837" y="591" on="0"/>
        <pt x="1848" y="477" on="1"/>
      </contour>
      <contour>
        <pt x="510" y="457" on="1"/>
        <pt x="530" y="594" on="0"/>
        <pt x="660" y="569" on="1"/>
        <pt x="853" y="546" on="0"/>
        <pt x="1207" y="504" on="0"/>
        <pt x="1419" y="479" on="1"/>
        <pt x="1419" y="457" on="1"/>
        <pt x="1180" y="425" on="0"/>
        <pt x="762" y="362" on="0"/>
        <pt x="660" y="344" on="1"/>
        <pt x="514" y="339" on="0"/>
        <pt x="510" y="457" on="1"/>
      </contour>
      <contour>
        <pt x="510" y="977" on="1"/>
        <pt x="530" y="1113" on="0"/>
        <pt x="660" y="1089" on="1"/>
        <pt x="853" y="1065" on="0"/>
        <pt x="1207" y="1023" on="0"/>
        <pt x="1419" y="999" on="1"/>
        <pt x="1419" y="977" on="1"/>
        <pt x="1180" y="944" on="0"/>
        <pt x="762" y="881" on="0"/>
        <pt x="660" y="864" on="1"/>
        <pt x="514" y="858" on="0"/>
        <pt x="510" y="977" on="1"/>
      </contour>
      <contour>
        <pt x="1848" y="991" on="1"/>
        <pt x="1837" y="875" on="0"/>
        <pt x="1721" y="864" on="1"/>
        <pt x="1608" y="875" on="0"/>
        <pt x="1595" y="991" on="1"/>
        <pt x="1608" y="1104" on="0"/>
        <pt x="1721" y="1118" on="1"/>
        <pt x="1837" y="1104" on="0"/>
        <pt x="1848" y="991" on="1"/>
      </contour>
    </TTGlyph>
    <TTGlyph name="f" xMin="79" yMin="0" xMax="890" yMax="1420">
      <contour>
        <pt x="422" y="844" on="1"/>
        <pt x="422" y="242" on="1"/>
        <pt x="422" y="114" on="0"/>
        <pt x="450" y="80" on="1"/>
        <pt x="487" y="36" on="0"/>
        <pt x="549" y="36" on="1"/>
        <pt x="632" y="36" on="1"/>
        <pt x="632" y="0" on="1"/>
        <pt x="85" y="0" on="1"/>
        <pt x="85" y="36" on="1"/>
        <pt x="126" y="36" on="1"/>
        <pt x="166" y="36" on="0"/>
        <pt x="232" y="76" on="0"/>
        <pt x="257" y="144" on="0"/>
        <pt x="257" y="242" on="1"/>
        <pt x="257" y="844" on="1"/>
        <pt x="79" y="844" on="1"/>
        <pt x="79" y="916" on="1"/>
        <pt x="257" y="916" on="1"/>
        <pt x="257" y="976" on="1"/>
        <pt x="257" y="1113" on="0"/>
        <pt x="345" y="1303" on="0"/>
        <pt x="526" y="1420" on="0"/>
        <pt x="639" y="1420" on="1"/>
        <pt x="744" y="1420" on="0"/>
        <pt x="832" y="1352" on="1"/>
        <pt x="890" y="1307" on="0"/>
        <pt x="890" y="1251" on="1"/>
        <pt x="890" y="1221" on="0"/>
        <pt x="838" y="1168" on="0"/>
        <pt x="808" y="1168" on="1"/>
        <pt x="785" y="1168" on="0"/>
        <pt x="734" y="1201" on="0"/>
        <pt x="660" y="1310" on="0"/>
        <pt x="629" y="1329" on="1"/>
        <pt x="598" y="1348" on="0"/>
        <pt x="560" y="1348" on="1"/>
        <pt x="514" y="1348" on="0"/>
        <pt x="450" y="1299" on="0"/>
        <pt x="422" y="1196" on="0"/>
        <pt x="422" y="982" on="1"/>
        <pt x="422" y="916" on="1"/>
        <pt x="658" y="916" on="1"/>
        <pt x="658" y="844" on="1"/>
      </contour>
    </TTGlyph>
    <TTGlyph name="f.fina" xMin="-54" yMin="-102" xMax="946" yMax="1087">
      <component glyphName="f.medi" x="0" y="0" flags="0x1000"/>
    </TTGlyph>
    <TTGlyph name="f.init" xMin="100" yMin="-102" xMax="1116" yMax="1087">
      <component glyphName="f.isol" x="0" y="0" flags="0x1000"/>
    </TTGlyph>
    <TTGlyph name="f.isol" xMin="100" yMin="-102" xMax="1116" yMax="1087">
      <contour>
        <pt x="276" y="825" on="1"/>
        <pt x="207" y="969" on="0"/>
        <pt x="100" y="1024" on="1"/>
        <pt x="234" y="1087" on="0"/>
        <pt x="298" y="1035" on="1"/>
        <pt x="382" y="971" on="0"/>
        <pt x="430" y="825" on="1"/>
        <pt x="1034" y="825" on="1"/>
        <pt x="1034" y="647" on="1"/>
        <pt x="508" y="647" on="1"/>
        <pt x="738" y="120" on="0"/>
        <pt x="888" y="112" on="1"/>
        <pt x="1019" y="115" on="0"/>
        <pt x="1067" y="302" on="1"/>
        <pt x="1082" y="302" on="1"/>
        <pt x="1061" y="191" on="0"/>
        <pt x="1072" y="128" on="1"/>
        <pt x="1116" y="42" on="0"/>
        <pt x="1061" y="-29" on="1"/>
        <pt x="1006" y="-102" on="0"/>
        <pt x="920" y="-102" on="1"/>
        <pt x="738" y="-102" on="0"/>
        <pt x="631" y="102" on="1"/>
        <pt x="522" y="280" on="0"/>
        <pt x="351" y="647" on="1"/>
      </contour>
    </TTGlyph>
    <TTGlyph name="f.medi" xMin="-54" yMin="-102" xMax="946" yMax="1087">
      <contour>
        <pt x="178" y="647" on="1"/>
        <pt x="0" y="647" on="1"/>
        <pt x="0" y="825" on="1"/>
        <pt x="121" y="825" on="1"/>
        <pt x="54" y="969" on="0"/>
        <pt x="-54" y="1024" on="1"/>
        <pt x="80" y="1087" on="0"/>
        <pt x="144" y="1035" on="1"/>
        <pt x="228" y="971" on="0"/>
        <pt x="276" y="825" on="1"/>
        <pt x="867" y="825" on="1"/>
        <pt x="867" y="647" on="1"/>
        <pt x="336" y="647" on="1"/>
        <pt x="569" y="120" on="0"/>
        <pt x="718" y="112" on="1"/>
        <pt x="849" y="115" on="0"/>
        <pt x="897" y="302" on="1"/>
        <pt x="912" y="302" on="1"/>
        <pt x="891" y="191" on="0"/>
        <pt x="902" y="128" on="1"/>
        <pt x="946" y="42" on="0"/>
        <pt x="891" y="-29" on="1"/>
        <pt x="836" y="-102" on="0"/>
        <pt x="750" y="-102" on="1"/>
        <pt x="568" y="-102" on="0"/>
        <pt x="461" y="102" on="1"/>
        <pt x="354" y="278" on="0"/>
      </contour>
    </TTGlyph>
    <TTGlyph name="f1.init" xMin="100" yMin="-102" xMax="966" yMax="825">
      <contour>
        <pt x="100" y="825" on="1"/>
        <pt x="884" y="825" on="1"/>
        <pt x="884" y="647" on="1"/>
        <pt x="358" y="647" on="1"/>
        <pt x="588" y="120" on="0"/>
        <pt x="738" y="112" on="1"/>
        <pt x="869" y="115" on="0"/>
        <pt x="917" y="302" on="1"/>
        <pt x="932" y="302" on="1"/>
        <pt x="911" y="191" on="0"/>
        <pt x="922" y="128" on="1"/>
        <pt x="966" y="42" on="0"/>
        <pt x="911" y="-29" on="1"/>
        <pt x="856" y="-102" on="0"/>
        <pt x="770" y="-102" on="1"/>
        <pt x="588" y="-102" on="0"/>
        <pt x="481" y="102" on="1"/>
        <pt x="372" y="280" on="0"/>
        <pt x="201" y="647" on="1"/>
      </contour>
    </TTGlyph>
    <TTGlyph name="f1.medi" xMin="0" yMin="-102" xMax="866" yMax="825">
      <contour>
        <pt x="0" y="825" on="1"/>
        <pt x="784" y="825" on="1"/>
        <pt x="784" y="647" on="1"/>
        <pt x="258" y="647" on="1"/>
        <pt x="488" y="120" on="0"/>
        <pt x="638" y="112" on="1"/>
        <pt x="769" y="115" on="0"/>
        <pt x="817" y="302" on="1"/>
        <pt x="832" y="302" on="1"/>
        <pt x="811" y="191" on="0"/>
        <pt x="822" y="128" on="1"/>
        <pt x="866" y="42" on="0"/>
        <pt x="811" y="-29" on="1"/>
        <pt x="756" y="-102" on="0"/>
        <pt x="670" y="-102" on="1"/>
        <pt x="488" y="-102" on="0"/>
        <pt x="381" y="102" on="1"/>
        <pt x="272" y="280" on="0"/>
        <pt x="101" y="647" on="1"/>
        <pt x="0" y="647" on="1"/>
      </contour>
    </TTGlyph>
    <TTGlyph name="five" xMin="98" yMin="-24" xMax="889" yMax="1356">
      <contour>
        <pt x="889" y="1356" on="1"/>
        <pt x="811" y="1186" on="1"/>
        <pt x="403" y="1186" on="1"/>
        <pt x="314" y="1004" on="1"/>
        <pt x="579" y="965" on="0"/>
        <pt x="734" y="807" on="1"/>
        <pt x="867" y="671" on="0"/>
        <pt x="867" y="487" on="1"/>
        <pt x="867" y="380" on="0"/>
        <pt x="780" y="198" on="0"/>
        <pt x="648" y="70" on="0"/>
        <pt x="567" y="31" on="1"/>
        <pt x="452" y="-24" on="0"/>
        <pt x="331" y="-24" on="1"/>
        <pt x="209" y="-24" on="0"/>
        <pt x="98" y="59" on="0"/>
        <pt x="98" y="109" on="1"/>
        <pt x="98" y="137" on="0"/>
        <pt x="144" y="180" on="0"/>
        <pt x="179" y="180" on="1"/>
        <pt x="205" y="180" on="0"/>
        <pt x="244" y="164" on="0"/>
        <pt x="291" y="131" on="1"/>
        <pt x="366" y="79" on="0"/>
        <pt x="443" y="79" on="1"/>
        <pt x="560" y="79" on="0"/>
        <pt x="737" y="256" on="0"/>
        <pt x="737" y="383" on="1"/>
        <pt x="737" y="506" on="0"/>
        <pt x="579" y="719" on="0"/>
        <pt x="440" y="777" on="1"/>
        <pt x="331" y="822" on="0"/>
        <pt x="143" y="829" on="1"/>
        <pt x="403" y="1356" on="1"/>
      </contour>
    </TTGlyph>
    <TTGlyph name="five.vert" xMin="100" yMin="355" xMax="1314" yMax="1050">
      <contour>
        <pt x="100" y="1050" on="1"/>
        <pt x="250" y="982" on="1"/>
        <pt x="250" y="623" on="1"/>
        <pt x="410" y="545" on="1"/>
        <pt x="444" y="778" on="0"/>
        <pt x="583" y="914" on="1"/>
        <pt x="703" y="1031" on="0"/>
        <pt x="864" y="1031" on="1"/>
        <pt x="958" y="1031" on="0"/>
        <pt x="1119" y="954" on="0"/>
        <pt x="1231" y="838" on="0"/>
        <pt x="1265" y="767" on="1"/>
        <pt x="1314" y="666" on="0"/>
        <pt x="1314" y="560" on="1"/>
        <pt x="1314" y="452" on="0"/>
        <pt x="1241" y="355" on="0"/>
        <pt x="1197" y="355" on="1"/>
        <pt x="1172" y="355" on="0"/>
        <pt x="1134" y="395" on="0"/>
        <pt x="1134" y="426" on="1"/>
        <pt x="1134" y="449" on="0"/>
        <pt x="1148" y="483" on="0"/>
        <pt x="1178" y="524" on="1"/>
        <pt x="1223" y="590" on="0"/>
        <pt x="1223" y="658" on="1"/>
        <pt x="1223" y="761" on="0"/>
        <pt x="1068" y="917" on="0"/>
        <pt x="956" y="917" on="1"/>
        <pt x="848" y="917" on="0"/>
        <pt x="660" y="778" on="0"/>
        <pt x="609" y="655" on="1"/>
        <pt x="570" y="560" on="0"/>
        <pt x="564" y="394" on="1"/>
        <pt x="100" y="623" on="1"/>
      </contour>
    </TTGlyph>
    <TTGlyph name="fiveleft.hwid" xMin="85" yMin="72" xMax="1117" yMax="663">
      <contour>
        <pt x="85" y="663" on="1"/>
        <pt x="213" y="605" on="1"/>
        <pt x="213" y="300" on="1"/>
        <pt x="349" y="234" on="1"/>
        <pt x="377" y="432" on="0"/>
        <pt x="496" y="547" on="1"/>
        <pt x="598" y="647" on="0"/>
        <pt x="734" y="647" on="1"/>
        <pt x="814" y="647" on="0"/>
        <pt x="951" y="581" on="0"/>
        <pt x="1046" y="483" on="0"/>
        <pt x="1075" y="422" on="1"/>
        <pt x="1117" y="337" on="0"/>
        <pt x="1117" y="246" on="1"/>
        <pt x="1117" y="155" on="0"/>
        <pt x="1055" y="72" on="0"/>
        <pt x="1017" y="72" on="1"/>
        <pt x="996" y="72" on="0"/>
        <pt x="964" y="106" on="0"/>
        <pt x="964" y="133" on="1"/>
        <pt x="964" y="152" on="0"/>
        <pt x="976" y="181" on="0"/>
        <pt x="1001" y="216" on="1"/>
        <pt x="1040" y="272" on="0"/>
        <pt x="1040" y="330" on="1"/>
        <pt x="1040" y="417" on="0"/>
        <pt x="908" y="550" on="0"/>
        <pt x="813" y="550" on="1"/>
        <pt x="721" y="550" on="0"/>
        <pt x="561" y="432" on="0"/>
        <pt x="518" y="327" on="1"/>
        <pt x="485" y="246" on="0"/>
        <pt x="479" y="105" on="1"/>
        <pt x="85" y="300" on="1"/>
      </contour>
    </TTGlyph>
    <TTGlyph name="fiveright.hwid" xMin="-542" yMin="795" xMax="490" yMax="1385">
      <contour>
        <pt x="-542" y="1385" on="1"/>
        <pt x="-414" y="1328" on="1"/>
        <pt x="-414" y="1022" on="1"/>
        <pt x="-278" y="956" on="1"/>
        <pt x="-250" y="1154" on="0"/>
        <pt x="-131" y="1270" on="1"/>
        <pt x="-29" y="1369" on="0"/>
        <pt x="107" y="1369" on="1"/>
        <pt x="187" y="1369" on="0"/>
        <pt x="324" y="1304" on="0"/>
        <pt x="419" y="1205" on="0"/>
        <pt x="448" y="1145" on="1"/>
        <pt x="490" y="1059" on="0"/>
        <pt x="490" y="969" on="1"/>
        <pt x="490" y="877" on="0"/>
        <pt x="428" y="795" on="0"/>
        <pt x="390" y="795" on="1"/>
        <pt x="369" y="795" on="0"/>
        <pt x="337" y="829" on="0"/>
        <pt x="337" y="855" on="1"/>
        <pt x="337" y="875" on="0"/>
        <pt x="349" y="903" on="0"/>
        <pt x="374" y="938" on="1"/>
        <pt x="413" y="994" on="0"/>
        <pt x="413" y="1052" on="1"/>
        <pt x="413" y="1140" on="0"/>
        <pt x="281" y="1272" on="0"/>
        <pt x="186" y="1272" on="1"/>
        <pt x="94" y="1272" on="0"/>
        <pt x="-66" y="1154" on="0"/>
        <pt x="-109" y="1050" on="1"/>
        <pt x="-142" y="969" on="0"/>
        <pt x="-148" y="828" on="1"/>
        <pt x="-542" y="1022" on="1"/>
      </contour>
    </TTGlyph>
    <TTGlyph name="four" xMin="32" yMin="0" xMax="953" yMax="1384">
      <contour>
        <pt x="953" y="500" on="1"/>
        <pt x="953" y="358" on="1"/>
        <pt x="771" y="358" on="1"/>
        <pt x="771" y="0" on="1"/>
        <pt x="606" y="0" on="1"/>
        <pt x="606" y="358" on="1"/>
        <pt x="32" y="358" on="1"/>
        <pt x="32" y="486" on="1"/>
        <pt x="661" y="1384" on="1"/>
        <pt x="771" y="1384" on="1"/>
        <pt x="771" y="500" on="1"/>
      </contour>
      <contour>
        <pt x="606" y="500" on="1"/>
        <pt x="606" y="1173" on="1"/>
        <pt x="130" y="500" on="1"/>
      </contour>
    </TTGlyph>
    <TTGlyph name="four.vert" xMin="100" yMin="320" xMax="1317" yMax="1130">
      <contour>
        <pt x="878" y="1130" on="1"/>
        <pt x="1002" y="1130" on="1"/>
        <pt x="1002" y="970" on="1"/>
        <pt x="1317" y="970" on="1"/>
        <pt x="1317" y="825" on="1"/>
        <pt x="1002" y="825" on="1"/>
        <pt x="1002" y="320" on="1"/>
        <pt x="890" y="320" on="1"/>
        <pt x="100" y="874" on="1"/>
        <pt x="100" y="970" on="1"/>
        <pt x="878" y="970" on="1"/>
      </contour>
      <contour>
        <pt x="878" y="825" on="1"/>
        <pt x="286" y="825" on="1"/>
        <pt x="878" y="406" on="1"/>
      </contour>
    </TTGlyph>
    <TTGlyph name="fourleft.hwid" xMin="85" yMin="34" xMax="1119" yMax="722">
      <contour>
        <pt x="746" y="722" on="1"/>
        <pt x="852" y="722" on="1"/>
        <pt x="852" y="586" on="1"/>
        <pt x="1119" y="586" on="1"/>
        <pt x="1119" y="463" on="1"/>
        <pt x="852" y="463" on="1"/>
        <pt x="852" y="34" on="1"/>
        <pt x="757" y="34" on="1"/>
        <pt x="85" y="505" on="1"/>
        <pt x="85" y="586" on="1"/>
        <pt x="746" y="586" on="1"/>
      </contour>
      <contour>
        <pt x="746" y="463" on="1"/>
        <pt x="243" y="463" on="1"/>
        <pt x="746" y="107" on="1"/>
      </contour>
    </TTGlyph>
    <TTGlyph name="fourright.hwid" xMin="-542" yMin="748" xMax="492" yMax="1436">
      <contour>
        <pt x="119" y="1436" on="1"/>
        <pt x="225" y="1436" on="1"/>
        <pt x="225" y="1300" on="1"/>
        <pt x="492" y="1300" on="1"/>
        <pt x="492" y="1177" on="1"/>
        <pt x="225" y="1177" on="1"/>
        <pt x="225" y="748" on="1"/>
        <pt x="130" y="748" on="1"/>
        <pt x="-542" y="1219" on="1"/>
        <pt x="-542" y="1300" on="1"/>
        <pt x="119" y="1300" on="1"/>
      </contour>
      <contour>
        <pt x="119" y="1177" on="1"/>
        <pt x="-384" y="1177" on="1"/>
        <pt x="119" y="821" on="1"/>
      </contour>
    </TTGlyph>
    <TTGlyph name="fs.fina" xMin="-54" yMin="-102" xMax="946" yMax="1087">
      <component glyphName="f.medi" x="0" y="0" flags="0x1000"/>
    </TTGlyph>
    <TTGlyph name="fs.init" xMin="100" yMin="-102" xMax="1116" yMax="1087">
      <component glyphName="f.isol" x="0" y="0" flags="0x1000"/>
    </TTGlyph>
    <TTGlyph name="fs.isol" xMin="100" yMin="-102" xMax="1116" yMax="1087">
      <component glyphName="f.isol" x="0" y="0" flags="0x1000"/>
    </TTGlyph>
    <TTGlyph name="fs.medi" xMin="-54" yMin="-102" xMax="946" yMax="1087">
      <component glyphName="f.medi" x="0" y="0" flags="0x1000"/>
    </TTGlyph>
    <TTGlyph name="fullstopmnc" xMin="510" yMin="499" xMax="1081" yMax="947">
      <contour>
        <pt x="1081" y="722" on="1"/>
        <pt x="1064" y="577" on="0"/>
        <pt x="858" y="507" on="1"/>
        <pt x="865" y="539" on="1"/>
        <pt x="927" y="623" on="0"/>
        <pt x="943" y="722" on="1"/>
        <pt x="927" y="839" on="0"/>
        <pt x="849" y="932" on="1"/>
        <pt x="858" y="947" on="1"/>
        <pt x="1064" y="878" on="0"/>
      </contour>
      <contour>
        <pt x="519" y="941" on="1"/>
        <pt x="725" y="871" on="0"/>
        <pt x="740" y="722" on="1"/>
        <pt x="725" y="569" on="0"/>
        <pt x="519" y="499" on="1"/>
        <pt x="525" y="531" on="1"/>
        <pt x="587" y="615" on="0"/>
        <pt x="604" y="722" on="1"/>
        <pt x="587" y="831" on="0"/>
        <pt x="510" y="925" on="1"/>
      </contour>
    </TTGlyph>
    <TTGlyph name="g" xMin="61" yMin="-442" xMax="987" yMax="943">
      <contour>
        <pt x="309" y="334" on="1"/>
        <pt x="225" y="375" on="0"/>
        <pt x="135" y="522" on="0"/>
        <pt x="135" y="611" on="1"/>
        <pt x="135" y="747" on="0"/>
        <pt x="340" y="943" on="0"/>
        <pt x="500" y="943" on="1"/>
        <pt x="631" y="943" on="0"/>
        <pt x="727" y="879" on="1"/>
        <pt x="921" y="879" on="1"/>
        <pt x="964" y="879" on="0"/>
        <pt x="978" y="874" on="0"/>
        <pt x="981" y="868" on="1"/>
        <pt x="987" y="859" on="0"/>
        <pt x="987" y="836" on="1"/>
        <pt x="987" y="810" on="0"/>
        <pt x="982" y="800" on="1"/>
        <pt x="979" y="795" on="0"/>
        <pt x="964" y="789" on="0"/>
        <pt x="921" y="789" on="1"/>
        <pt x="802" y="789" on="1"/>
        <pt x="858" y="717" on="0"/>
        <pt x="858" y="605" on="1"/>
        <pt x="858" y="477" on="0"/>
        <pt x="662" y="295" on="0"/>
        <pt x="497" y="295" on="1"/>
        <pt x="429" y="295" on="0"/>
        <pt x="358" y="315" on="1"/>
        <pt x="314" y="277" on="0"/>
        <pt x="283" y="220" on="0"/>
        <pt x="283" y="200" on="1"/>
        <pt x="283" y="183" on="0"/>
        <pt x="316" y="151" on="0"/>
        <pt x="364" y="144" on="1"/>
        <pt x="392" y="140" on="0"/>
        <pt x="504" y="137" on="1"/>
        <pt x="710" y="132" on="0"/>
        <pt x="771" y="123" on="1"/>
        <pt x="864" y="110" on="0"/>
        <pt x="975" y="-2" on="0"/>
        <pt x="975" y="-84" on="1"/>
        <pt x="975" y="-197" on="0"/>
        <pt x="869" y="-296" on="1"/>
        <pt x="713" y="-442" on="0"/>
        <pt x="462" y="-442" on="1"/>
        <pt x="269" y="-442" on="0"/>
        <pt x="136" y="-355" on="1"/>
        <pt x="61" y="-305" on="0"/>
        <pt x="61" y="-251" on="1"/>
        <pt x="61" y="-227" on="0"/>
        <pt x="72" y="-203" on="1"/>
        <pt x="89" y="-166" on="0"/>
        <pt x="142" y="-100" on="1"/>
        <pt x="149" y="-91" on="0"/>
        <pt x="244" y="8" on="1"/>
        <pt x="192" y="39" on="0"/>
        <pt x="149" y="88" on="0"/>
        <pt x="149" y="119" on="1"/>
        <pt x="149" y="154" on="0"/>
        <pt x="206" y="248" on="0"/>
      </contour>
      <contour>
        <pt x="483" y="895" on="1"/>
        <pt x="409" y="895" on="0"/>
        <pt x="309" y="777" on="0"/>
        <pt x="309" y="655" on="1"/>
        <pt x="309" y="497" on="0"/>
        <pt x="377" y="410" on="1"/>
        <pt x="429" y="344" on="0"/>
        <pt x="509" y="344" on="1"/>
        <pt x="585" y="344" on="0"/>
        <pt x="683" y="458" on="0"/>
        <pt x="683" y="580" on="1"/>
        <pt x="683" y="739" on="0"/>
        <pt x="614" y="829" on="1"/>
        <pt x="563" y="895" on="0"/>
      </contour>
      <contour>
        <pt x="299" y="0" on="1"/>
        <pt x="252" y="-51" on="0"/>
        <pt x="204" y="-139" on="0"/>
        <pt x="204" y="-176" on="1"/>
        <pt x="204" y="-224" on="0"/>
        <pt x="262" y="-260" on="1"/>
        <pt x="362" y="-322" on="0"/>
        <pt x="551" y="-322" on="1"/>
        <pt x="731" y="-322" on="0"/>
        <pt x="902" y="-195" on="0"/>
        <pt x="902" y="-123" on="1"/>
        <pt x="902" y="-71" on="0"/>
        <pt x="851" y="-49" on="1"/>
        <pt x="799" y="-27" on="0"/>
        <pt x="645" y="-23" on="1"/>
        <pt x="420" y="-17" on="0"/>
      </contour>
    </TTGlyph>
    <TTGlyph name="g.fina" xMin="0" yMin="255" xMax="955" yMax="1302">
      <component glyphName="g.medi" x="0" y="0" flags="0x1000"/>
    </TTGlyph>
    <TTGlyph name="g.init" xMin="100" yMin="329" xMax="1326" yMax="1340">
      <component glyphName="g.isol" x="0" y="0" flags="0x1000"/>
    </TTGlyph>
    <TTGlyph name="g.isol" xMin="100" yMin="329" xMax="1326" yMax="1340">
      <contour>
        <pt x="1069" y="1200" on="0"/>
        <pt x="1126" y="1337" on="1"/>
        <pt x="1301" y="1340" on="0"/>
        <pt x="1326" y="1242" on="1"/>
        <pt x="1321" y="1195" on="0"/>
        <pt x="1179" y="1084" on="0"/>
        <pt x="1091" y="1047" on="1"/>
      </contour>
      <contour>
        <pt x="1012" y="647" on="1"/>
        <pt x="924" y="329" on="1"/>
        <pt x="836" y="636" on="1"/>
        <pt x="821" y="735" on="0"/>
        <pt x="807" y="878" on="0"/>
        <pt x="752" y="989" on="1"/>
        <pt x="688" y="1109" on="0"/>
        <pt x="593" y="1111" on="1"/>
        <pt x="521" y="1109" on="0"/>
        <pt x="449" y="1042" on="1"/>
        <pt x="383" y="978" on="0"/>
        <pt x="381" y="899" on="1"/>
        <pt x="386" y="820" on="0"/>
        <pt x="466" y="750" on="1"/>
        <pt x="542" y="679" on="0"/>
        <pt x="551" y="608" on="1"/>
        <pt x="551" y="586" on="1"/>
        <pt x="548" y="515" on="0"/>
        <pt x="492" y="455" on="1"/>
        <pt x="433" y="391" on="0"/>
        <pt x="354" y="391" on="1"/>
        <pt x="238" y="403" on="0"/>
        <pt x="121" y="512" on="1"/>
        <pt x="211" y="499" on="0"/>
        <pt x="286" y="518" on="1"/>
        <pt x="365" y="534" on="0"/>
        <pt x="365" y="608" on="1"/>
        <pt x="362" y="688" on="0"/>
        <pt x="281" y="778" on="1"/>
        <pt x="199" y="871" on="0"/>
        <pt x="100" y="909" on="1"/>
        <pt x="219" y="997" on="0"/>
        <pt x="318" y="1143" on="1"/>
        <pt x="419" y="1294" on="0"/>
        <pt x="608" y="1302" on="1"/>
        <pt x="757" y="1300" on="0"/>
        <pt x="841" y="1154" on="1"/>
        <pt x="930" y="1009" on="0"/>
        <pt x="948" y="825" on="1"/>
        <pt x="1249" y="825" on="1"/>
        <pt x="1249" y="647" on="1"/>
      </contour>
    </TTGlyph>
    <TTGlyph name="g.medi" xMin="0" yMin="255" xMax="955" yMax="1302">
      <contour>
        <pt x="392" y="1163" on="0"/>
        <pt x="449" y="1300" on="1"/>
        <pt x="623" y="1302" on="0"/>
        <pt x="649" y="1205" on="1"/>
        <pt x="644" y="1157" on="0"/>
        <pt x="501" y="1047" on="0"/>
        <pt x="412" y="1010" on="1"/>
      </contour>
      <contour>
        <pt x="364" y="647" on="1"/>
        <pt x="261" y="255" on="1"/>
        <pt x="156" y="647" on="1"/>
        <pt x="0" y="647" on="1"/>
        <pt x="0" y="825" on="1"/>
        <pt x="955" y="825" on="1"/>
        <pt x="955" y="647" on="1"/>
        <pt x="754" y="647" on="1"/>
        <pt x="651" y="255" on="1"/>
        <pt x="546" y="647" on="1"/>
      </contour>
    </TTGlyph>
    <TTGlyph name="g1.init" xMin="100" yMin="212" xMax="955" yMax="1726">
      <contour>
        <pt x="515" y="1586" on="0"/>
        <pt x="572" y="1725" on="1"/>
        <pt x="747" y="1726" on="0"/>
        <pt x="772" y="1629" on="1"/>
        <pt x="767" y="1583" on="0"/>
        <pt x="625" y="1471" on="0"/>
        <pt x="535" y="1434" on="1"/>
      </contour>
      <contour>
        <pt x="850" y="764" on="0"/>
        <pt x="797" y="915" on="1"/>
        <pt x="747" y="1036" on="0"/>
        <pt x="644" y="1041" on="1"/>
        <pt x="534" y="1036" on="0"/>
        <pt x="465" y="936" on="1"/>
        <pt x="385" y="834" on="0"/>
        <pt x="385" y="762" on="1"/>
        <pt x="387" y="683" on="0"/>
        <pt x="494" y="519" on="0"/>
        <pt x="549" y="481" on="1"/>
        <pt x="531" y="331" on="0"/>
        <pt x="506" y="212" on="1"/>
        <pt x="387" y="444" on="0"/>
        <pt x="312" y="566" on="1"/>
        <pt x="222" y="700" on="0"/>
        <pt x="100" y="709" on="1"/>
        <pt x="160" y="714" on="0"/>
        <pt x="217" y="794" on="1"/>
        <pt x="274" y="870" on="0"/>
        <pt x="332" y="973" on="1"/>
        <pt x="397" y="1081" on="0"/>
        <pt x="460" y="1158" on="1"/>
        <pt x="520" y="1240" on="0"/>
        <pt x="644" y="1243" on="1"/>
        <pt x="779" y="1240" on="0"/>
        <pt x="850" y="1110" on="1"/>
        <pt x="908" y="986" on="0"/>
        <pt x="930" y="825" on="1"/>
        <pt x="955" y="653" on="1"/>
        <pt x="861" y="647" on="1"/>
      </contour>
    </TTGlyph>
    <TTGlyph name="g1.medi" xMin="0" yMin="210" xMax="848" yMax="1726">
      <contour>
        <pt x="354" y="1586" on="0"/>
        <pt x="412" y="1725" on="1"/>
        <pt x="587" y="1726" on="0"/>
        <pt x="613" y="1629" on="1"/>
        <pt x="608" y="1583" on="0"/>
        <pt x="464" y="1471" on="0"/>
        <pt x="376" y="1434" on="1"/>
      </contour>
      <contour>
        <pt x="101" y="825" on="1"/>
        <pt x="137" y="871" on="0"/>
        <pt x="194" y="973" on="1"/>
        <pt x="258" y="1082" on="0"/>
        <pt x="321" y="1159" on="1"/>
        <pt x="383" y="1242" on="0"/>
        <pt x="507" y="1243" on="1"/>
        <pt x="642" y="1242" on="0"/>
        <pt x="714" y="1111" on="1"/>
        <pt x="773" y="987" on="0"/>
        <pt x="814" y="825" on="1"/>
        <pt x="848" y="653" on="1"/>
        <pt x="725" y="647" on="1"/>
        <pt x="700" y="764" on="0"/>
        <pt x="662" y="916" on="1"/>
        <pt x="610" y="1037" on="0"/>
        <pt x="507" y="1042" on="1"/>
        <pt x="397" y="1037" on="0"/>
        <pt x="326" y="937" on="1"/>
        <pt x="248" y="834" on="0"/>
        <pt x="248" y="762" on="1"/>
        <pt x="251" y="683" on="0"/>
        <pt x="356" y="518" on="0"/>
        <pt x="412" y="480" on="1"/>
        <pt x="394" y="330" on="0"/>
        <pt x="370" y="210" on="1"/>
        <pt x="251" y="443" on="0"/>
        <pt x="173" y="566" on="1"/>
        <pt x="139" y="626" on="0"/>
        <pt x="121" y="647" on="1"/>
        <pt x="0" y="647" on="1"/>
        <pt x="0" y="825" on="1"/>
      </contour>
    </TTGlyph>
    <TTGlyph name="gh.fina" xMin="0" yMin="124" xMax="767" yMax="1726">
      <component glyphName="gh.medi" x="0" y="0" flags="0x1000"/>
    </TTGlyph>
    <TTGlyph name="gh.init" xMin="100" yMin="124" xMax="922" yMax="1726">
      <component glyphName="gh.isol" x="0" y="0" flags="0x1000"/>
    </TTGlyph>
    <TTGlyph name="gh.isol" xMin="100" yMin="124" xMax="922" yMax="1726">
      <contour>
        <pt x="515" y="1586" on="0"/>
        <pt x="572" y="1725" on="1"/>
        <pt x="747" y="1726" on="0"/>
        <pt x="772" y="1629" on="1"/>
        <pt x="767" y="1583" on="0"/>
        <pt x="625" y="1471" on="0"/>
        <pt x="535" y="1434" on="1"/>
      </contour>
      <contour>
        <pt x="922" y="825" on="1"/>
        <pt x="922" y="647" on="1"/>
        <pt x="879" y="647" on="1"/>
        <pt x="840" y="796" on="0"/>
        <pt x="795" y="915" on="1"/>
        <pt x="745" y="1036" on="0"/>
        <pt x="643" y="1041" on="1"/>
        <pt x="533" y="1036" on="0"/>
        <pt x="464" y="936" on="1"/>
        <pt x="385" y="834" on="0"/>
        <pt x="385" y="762" on="1"/>
        <pt x="396" y="603" on="0"/>
        <pt x="621" y="393" on="1"/>
        <pt x="603" y="242" on="0"/>
        <pt x="580" y="124" on="1"/>
        <pt x="493" y="264" on="0"/>
        <pt x="432" y="366" on="1"/>
        <pt x="301" y="257" on="0"/>
        <pt x="179" y="287" on="1"/>
        <pt x="302" y="405" on="0"/>
        <pt x="342" y="515" on="1"/>
        <pt x="327" y="543" on="0"/>
        <pt x="311" y="567" on="1"/>
        <pt x="222" y="700" on="0"/>
        <pt x="100" y="709" on="1"/>
        <pt x="161" y="714" on="0"/>
        <pt x="217" y="794" on="1"/>
        <pt x="274" y="870" on="0"/>
        <pt x="332" y="972" on="1"/>
        <pt x="396" y="1080" on="0"/>
        <pt x="458" y="1157" on="1"/>
        <pt x="519" y="1238" on="0"/>
        <pt x="643" y="1241" on="1"/>
        <pt x="777" y="1238" on="0"/>
        <pt x="849" y="1109" on="1"/>
        <pt x="909" y="986" on="0"/>
      </contour>
    </TTGlyph>
    <TTGlyph name="gh.medi" xMin="0" yMin="124" xMax="767" yMax="1726">
      <contour>
        <pt x="356" y="1586" on="0"/>
        <pt x="414" y="1725" on="1"/>
        <pt x="588" y="1726" on="0"/>
        <pt x="615" y="1629" on="1"/>
        <pt x="609" y="1583" on="0"/>
        <pt x="466" y="1471" on="0"/>
        <pt x="377" y="1434" on="1"/>
      </contour>
      <contour>
        <pt x="113" y="825" on="1"/>
        <pt x="127" y="907" on="0"/>
        <pt x="213" y="1062" on="1"/>
        <pt x="296" y="1225" on="0"/>
        <pt x="487" y="1241" on="1"/>
        <pt x="625" y="1238" on="0"/>
        <pt x="698" y="1109" on="1"/>
        <pt x="760" y="991" on="0"/>
        <pt x="767" y="825" on="1"/>
        <pt x="767" y="647" on="1"/>
        <pt x="725" y="647" on="1"/>
        <pt x="686" y="796" on="0"/>
        <pt x="641" y="915" on="1"/>
        <pt x="591" y="1036" on="0"/>
        <pt x="472" y="1041" on="1"/>
        <pt x="377" y="1036" on="0"/>
        <pt x="309" y="946" on="1"/>
        <pt x="235" y="854" on="0"/>
        <pt x="235" y="762" on="1"/>
        <pt x="248" y="580" on="0"/>
        <pt x="466" y="393" on="1"/>
        <pt x="446" y="242" on="0"/>
        <pt x="424" y="124" on="1"/>
        <pt x="349" y="262" on="0"/>
        <pt x="287" y="366" on="1"/>
        <pt x="172" y="257" on="0"/>
        <pt x="40" y="287" on="1"/>
        <pt x="158" y="405" on="0"/>
        <pt x="198" y="515" on="1"/>
        <pt x="118" y="647" on="0"/>
        <pt x="103" y="647" on="1"/>
        <pt x="0" y="647" on="1"/>
        <pt x="0" y="825" on="1"/>
      </contour>
    </TTGlyph>
    <TTGlyph name="glyph00147" xMin="0" yMin="144" xMax="1234" yMax="1304">
      <contour>
        <pt x="510" y="825" on="1"/>
        <pt x="521" y="972" on="0"/>
        <pt x="610" y="1113" on="1"/>
        <pt x="721" y="1295" on="0"/>
        <pt x="906" y="1304" on="1"/>
        <pt x="1047" y="1300" on="0"/>
        <pt x="1142" y="1157" on="1"/>
        <pt x="1234" y="1007" on="0"/>
        <pt x="1211" y="746" on="1"/>
        <pt x="1128" y="1091" on="0"/>
        <pt x="906" y="1099" on="1"/>
        <pt x="779" y="1096" on="0"/>
        <pt x="711" y="978" on="1"/>
        <pt x="661" y="891" on="0"/>
        <pt x="658" y="752" on="1"/>
        <pt x="661" y="633" on="0"/>
        <pt x="779" y="447" on="0"/>
        <pt x="858" y="421" on="1"/>
        <pt x="831" y="144" on="1"/>
        <pt x="734" y="284" on="0"/>
        <pt x="657" y="405" on="1"/>
        <pt x="603" y="486" on="0"/>
        <pt x="558" y="562" on="0"/>
        <pt x="527" y="647" on="1"/>
        <pt x="364" y="647" on="1"/>
        <pt x="261" y="255" on="1"/>
        <pt x="156" y="647" on="1"/>
        <pt x="0" y="647" on="1"/>
        <pt x="0" y="825" on="1"/>
      </contour>
    </TTGlyph>
    <TTGlyph name="glyph00183" xMin="0" yMin="-102" xMax="866" yMax="1213">
      <contour>
        <pt x="286" y="825" on="1"/>
        <pt x="268" y="954" on="0"/>
        <pt x="182" y="983" on="1"/>
        <pt x="155" y="1024" on="0"/>
        <pt x="160" y="1208" on="0"/>
        <pt x="192" y="1213" on="1"/>
        <pt x="232" y="1184" on="0"/>
        <pt x="313" y="1040" on="1"/>
        <pt x="344" y="990" on="0"/>
        <pt x="385" y="825" on="1"/>
        <pt x="784" y="825" on="1"/>
        <pt x="784" y="647" on="1"/>
        <pt x="258" y="647" on="1"/>
        <pt x="488" y="120" on="0"/>
        <pt x="638" y="112" on="1"/>
        <pt x="769" y="115" on="0"/>
        <pt x="817" y="302" on="1"/>
        <pt x="832" y="302" on="1"/>
        <pt x="811" y="191" on="0"/>
        <pt x="822" y="128" on="1"/>
        <pt x="866" y="42" on="0"/>
        <pt x="811" y="-29" on="1"/>
        <pt x="756" y="-102" on="0"/>
        <pt x="670" y="-102" on="1"/>
        <pt x="488" y="-102" on="0"/>
        <pt x="381" y="102" on="1"/>
        <pt x="272" y="280" on="0"/>
        <pt x="101" y="647" on="1"/>
        <pt x="0" y="647" on="1"/>
        <pt x="0" y="825" on="1"/>
      </contour>
    </TTGlyph>
    <TTGlyph name="glyph00275" xMin="60" yMin="0" xMax="519" yMax="943">
      <contour>
        <pt x="380" y="943" on="1"/>
        <pt x="380" y="207" on="1"/>
        <pt x="380" y="121" on="0"/>
        <pt x="405" y="64" on="0"/>
        <pt x="454" y="36" on="0"/>
        <pt x="519" y="36" on="1"/>
        <pt x="519" y="0" on="1"/>
        <pt x="74" y="0" on="1"/>
        <pt x="74" y="36" on="1"/>
        <pt x="141" y="36" on="0"/>
        <pt x="187" y="62" on="0"/>
        <pt x="214" y="122" on="0"/>
        <pt x="214" y="207" on="1"/>
        <pt x="214" y="560" on="1"/>
        <pt x="214" y="709" on="0"/>
        <pt x="205" y="753" on="1"/>
        <pt x="198" y="785" on="0"/>
        <pt x="168" y="810" on="0"/>
        <pt x="142" y="810" on="1"/>
        <pt x="114" y="810" on="0"/>
        <pt x="74" y="795" on="1"/>
        <pt x="60" y="831" on="1"/>
        <pt x="336" y="943" on="1"/>
      </contour>
    </TTGlyph>
    <TTGlyph name="glyph00276" xMin="-157" yMin="-442" xMax="382" yMax="943">
      <contour>
        <pt x="382" y="943" on="1"/>
        <pt x="382" y="21" on="1"/>
        <pt x="382" y="-214" on="0"/>
        <pt x="182" y="-442" on="0"/>
        <pt x="22" y="-442" on="1"/>
        <pt x="-69" y="-442" on="0"/>
        <pt x="-157" y="-376" on="0"/>
        <pt x="-157" y="-341" on="1"/>
        <pt x="-157" y="-306" on="0"/>
        <pt x="-108" y="-256" on="0"/>
        <pt x="-75" y="-256" on="1"/>
        <pt x="-49" y="-256" on="0"/>
        <pt x="-22" y="-269" on="1"/>
        <pt x="-5" y="-276" on="0"/>
        <pt x="92" y="-363" on="0"/>
        <pt x="125" y="-363" on="1"/>
        <pt x="149" y="-363" on="0"/>
        <pt x="195" y="-326" on="0"/>
        <pt x="217" y="-239" on="0"/>
        <pt x="217" y="-94" on="1"/>
        <pt x="217" y="558" on="1"/>
        <pt x="217" y="709" on="0"/>
        <pt x="208" y="752" on="1"/>
        <pt x="201" y="785" on="0"/>
        <pt x="171" y="810" on="0"/>
        <pt x="145" y="810" on="1"/>
        <pt x="117" y="810" on="0"/>
        <pt x="77" y="795" on="1"/>
        <pt x="63" y="831" on="1"/>
        <pt x="339" y="943" on="1"/>
      </contour>
    </TTGlyph>
    <TTGlyph name="glyph00277" xMin="0" yMin="251" xMax="432" yMax="825">
      <contour>
        <pt x="432" y="825" on="1"/>
        <pt x="432" y="647" on="1"/>
        <pt x="212" y="647" on="1"/>
        <pt x="105" y="251" on="1"/>
        <pt x="0" y="647" on="1"/>
        <pt x="0" y="825" on="1"/>
      </contour>
    </TTGlyph>
    <TTGlyph name="glyph00278" xMin="-503" yMin="251" xMax="432" yMax="1732">
      <contour>
        <pt x="-474" y="1428" on="1"/>
        <pt x="-503" y="1592" on="0"/>
        <pt x="-436" y="1719" on="1"/>
        <pt x="-249" y="1732" on="0"/>
        <pt x="-225" y="1613" on="1"/>
        <pt x="-225" y="1563" on="0"/>
        <pt x="-309" y="1508" on="1"/>
        <pt x="-389" y="1451" on="0"/>
      </contour>
      <contour>
        <pt x="432" y="825" on="1"/>
        <pt x="432" y="647" on="1"/>
        <pt x="211" y="647" on="1"/>
        <pt x="106" y="251" on="1"/>
        <pt x="0" y="647" on="1"/>
        <pt x="0" y="825" on="1"/>
      </contour>
    </TTGlyph>
    <TTGlyph name="glyph00279" xMin="0" yMin="7" xMax="498" yMax="825">
      <contour>
        <pt x="498" y="825" on="1"/>
        <pt x="498" y="647" on="1"/>
        <pt x="144" y="647" on="1"/>
        <pt x="225" y="486" on="0"/>
        <pt x="286" y="399" on="1"/>
        <pt x="357" y="282" on="0"/>
        <pt x="413" y="201" on="1"/>
        <pt x="303" y="7" on="1"/>
        <pt x="255" y="95" on="0"/>
        <pt x="80" y="465" on="0"/>
        <pt x="0" y="647" on="1"/>
        <pt x="0" y="825" on="1"/>
      </contour>
    </TTGlyph>
    <TTGlyph name="glyph00280" xMin="-110" yMin="258" xMax="698" yMax="825">
      <contour>
        <pt x="372" y="647" on="1"/>
        <pt x="1" y="647" on="1"/>
        <pt x="1" y="576" on="0"/>
        <pt x="59" y="499" on="1"/>
        <pt x="118" y="417" on="0"/>
        <pt x="208" y="414" on="1"/>
        <pt x="348" y="429" on="0"/>
      </contour>
      <contour>
        <pt x="698" y="825" on="1"/>
        <pt x="698" y="647" on="1"/>
        <pt x="494" y="647" on="1"/>
        <pt x="471" y="258" on="0"/>
        <pt x="224" y="260" on="1"/>
        <pt x="89" y="263" on="0"/>
        <pt x="-51" y="450" on="1"/>
        <pt x="-110" y="576" on="0"/>
        <pt x="-105" y="647" on="1"/>
        <pt x="-84" y="749" on="0"/>
        <pt x="-46" y="783" on="1"/>
        <pt x="-18" y="823" on="0"/>
        <pt x="32" y="825" on="1"/>
      </contour>
    </TTGlyph>
    <TTGlyph name="glyph00281" xMin="-110" yMin="258" xMax="494" yMax="825">
      <contour>
        <pt x="494" y="825" on="1"/>
        <pt x="494" y="647" on="1"/>
        <pt x="471" y="258" on="0"/>
        <pt x="224" y="260" on="1"/>
        <pt x="89" y="263" on="0"/>
        <pt x="-51" y="450" on="1"/>
        <pt x="-110" y="576" on="0"/>
        <pt x="-105" y="647" on="1"/>
        <pt x="-84" y="749" on="0"/>
        <pt x="-46" y="783" on="1"/>
        <pt x="-18" y="823" on="0"/>
        <pt x="32" y="825" on="1"/>
      </contour>
      <contour>
        <pt x="372" y="647" on="1"/>
        <pt x="1" y="647" on="1"/>
        <pt x="1" y="576" on="0"/>
        <pt x="59" y="499" on="1"/>
        <pt x="118" y="417" on="0"/>
        <pt x="208" y="414" on="1"/>
        <pt x="348" y="429" on="0"/>
      </contour>
    </TTGlyph>
    <TTGlyph name="glyph00282" xMin="-123" yMin="258" xMax="697" yMax="1735">
      <contour>
        <pt x="372" y="647" on="1"/>
        <pt x="0" y="647" on="1"/>
        <pt x="0" y="576" on="0"/>
        <pt x="59" y="499" on="1"/>
        <pt x="118" y="417" on="0"/>
        <pt x="208" y="414" on="1"/>
        <pt x="348" y="429" on="0"/>
      </contour>
      <contour>
        <pt x="697" y="825" on="1"/>
        <pt x="697" y="647" on="1"/>
        <pt x="493" y="647" on="1"/>
        <pt x="470" y="258" on="0"/>
        <pt x="224" y="260" on="1"/>
        <pt x="89" y="263" on="0"/>
        <pt x="-52" y="450" on="1"/>
        <pt x="-110" y="576" on="0"/>
        <pt x="-105" y="647" on="1"/>
        <pt x="-85" y="749" on="0"/>
        <pt x="-46" y="783" on="1"/>
        <pt x="-18" y="823" on="0"/>
        <pt x="32" y="825" on="1"/>
      </contour>
      <contour>
        <pt x="-123" y="1595" on="0"/>
        <pt x="-64" y="1731" on="1"/>
        <pt x="110" y="1735" on="0"/>
        <pt x="136" y="1636" on="1"/>
        <pt x="131" y="1589" on="0"/>
        <pt x="-12" y="1478" on="0"/>
        <pt x="-101" y="1441" on="1"/>
      </contour>
    </TTGlyph>
    <TTGlyph name="glyph00283" xMin="-123" yMin="258" xMax="493" yMax="1735">
      <contour>
        <pt x="493" y="825" on="1"/>
        <pt x="493" y="647" on="1"/>
        <pt x="470" y="258" on="0"/>
        <pt x="224" y="260" on="1"/>
        <pt x="89" y="263" on="0"/>
        <pt x="-52" y="450" on="1"/>
        <pt x="-110" y="576" on="0"/>
        <pt x="-105" y="647" on="1"/>
        <pt x="-85" y="749" on="0"/>
        <pt x="-46" y="783" on="1"/>
        <pt x="-18" y="823" on="0"/>
        <pt x="32" y="825" on="1"/>
      </contour>
      <contour>
        <pt x="372" y="647" on="1"/>
        <pt x="0" y="647" on="1"/>
        <pt x="0" y="576" on="0"/>
        <pt x="59" y="499" on="1"/>
        <pt x="118" y="417" on="0"/>
        <pt x="208" y="414" on="1"/>
        <pt x="348" y="429" on="0"/>
      </contour>
      <contour>
        <pt x="-123" y="1595" on="0"/>
        <pt x="-64" y="1731" on="1"/>
        <pt x="110" y="1735" on="0"/>
        <pt x="136" y="1636" on="1"/>
        <pt x="131" y="1589" on="0"/>
        <pt x="-12" y="1478" on="0"/>
        <pt x="-101" y="1441" on="1"/>
      </contour>
    </TTGlyph>
    <TTGlyph name="glyph00284" xMin="-110" yMin="-94" xMax="1132" yMax="825">
      <contour>
        <pt x="372" y="647" on="1"/>
        <pt x="1" y="647" on="1"/>
        <pt x="1" y="576" on="0"/>
        <pt x="59" y="499" on="1"/>
        <pt x="118" y="417" on="0"/>
        <pt x="208" y="414" on="1"/>
        <pt x="348" y="429" on="0"/>
      </contour>
      <contour>
        <pt x="1132" y="825" on="1"/>
        <pt x="1132" y="647" on="1"/>
        <pt x="783" y="647" on="1"/>
        <pt x="902" y="342" on="0"/>
        <pt x="1047" y="134" on="1"/>
        <pt x="927" y="-94" on="1"/>
        <pt x="777" y="287" on="0"/>
        <pt x="637" y="647" on="1"/>
        <pt x="494" y="647" on="1"/>
        <pt x="471" y="258" on="0"/>
        <pt x="224" y="260" on="1"/>
        <pt x="89" y="263" on="0"/>
        <pt x="-51" y="450" on="1"/>
        <pt x="-110" y="576" on="0"/>
        <pt x="-105" y="647" on="1"/>
        <pt x="-84" y="749" on="0"/>
        <pt x="-46" y="783" on="1"/>
        <pt x="-18" y="823" on="0"/>
        <pt x="32" y="825" on="1"/>
      </contour>
    </TTGlyph>
    <TTGlyph name="glyph00285" xMin="-110" yMin="258" xMax="1303" yMax="825">
      <contour>
        <pt x="372" y="647" on="1"/>
        <pt x="1" y="647" on="1"/>
        <pt x="1" y="576" on="0"/>
        <pt x="59" y="499" on="1"/>
        <pt x="118" y="417" on="0"/>
        <pt x="208" y="414" on="1"/>
        <pt x="348" y="429" on="0"/>
      </contour>
      <contour>
        <pt x="864" y="825" on="1"/>
        <pt x="1127" y="825" on="0"/>
        <pt x="1208" y="710" on="1"/>
        <pt x="1287" y="590" on="0"/>
        <pt x="1303" y="344" on="1"/>
        <pt x="1229" y="511" on="0"/>
        <pt x="1150" y="581" on="1"/>
        <pt x="1062" y="655" on="0"/>
        <pt x="864" y="647" on="1"/>
        <pt x="494" y="647" on="1"/>
        <pt x="471" y="258" on="0"/>
        <pt x="224" y="260" on="1"/>
        <pt x="89" y="263" on="0"/>
        <pt x="-51" y="450" on="1"/>
        <pt x="-110" y="576" on="0"/>
        <pt x="-105" y="647" on="1"/>
        <pt x="-84" y="749" on="0"/>
        <pt x="-46" y="783" on="1"/>
        <pt x="-18" y="823" on="0"/>
        <pt x="32" y="825" on="1"/>
      </contour>
    </TTGlyph>
    <TTGlyph name="glyph00286" xMin="0" yMin="263" xMax="1187" yMax="1282">
      <contour>
        <pt x="641" y="450" on="1"/>
        <pt x="553" y="263" on="0"/>
        <pt x="413" y="265" on="1"/>
        <pt x="309" y="270" on="0"/>
        <pt x="222" y="404" on="1"/>
        <pt x="135" y="533" on="0"/>
        <pt x="63" y="647" on="1"/>
        <pt x="40" y="687" on="0"/>
        <pt x="0" y="735" on="1"/>
        <pt x="40" y="775" on="0"/>
        <pt x="74" y="825" on="1"/>
        <pt x="194" y="995" on="0"/>
        <pt x="328" y="1133" on="1"/>
        <pt x="466" y="1278" on="0"/>
        <pt x="608" y="1282" on="1"/>
        <pt x="815" y="1277" on="0"/>
        <pt x="1081" y="1051" on="0"/>
        <pt x="1187" y="825" on="1"/>
        <pt x="1187" y="647" on="1"/>
        <pt x="1065" y="647" on="1"/>
        <pt x="1060" y="825" on="1"/>
        <pt x="962" y="984" on="0"/>
        <pt x="864" y="1059" on="1"/>
        <pt x="769" y="1128" on="0"/>
        <pt x="613" y="1128" on="1"/>
        <pt x="503" y="1123" on="0"/>
        <pt x="408" y="1033" on="1"/>
        <pt x="313" y="937" on="0"/>
        <pt x="233" y="825" on="1"/>
        <pt x="530" y="825" on="1"/>
        <pt x="614" y="825" on="0"/>
        <pt x="676" y="749" on="0"/>
        <pt x="694" y="647" on="1"/>
        <pt x="694" y="555" on="0"/>
      </contour>
      <contour>
        <pt x="540" y="504" on="1"/>
        <pt x="580" y="583" on="0"/>
        <pt x="577" y="647" on="1"/>
        <pt x="190" y="647" on="1"/>
        <pt x="230" y="559" on="0"/>
        <pt x="281" y="488" on="1"/>
        <pt x="328" y="410" on="0"/>
        <pt x="408" y="409" on="1"/>
        <pt x="498" y="417" on="0"/>
      </contour>
    </TTGlyph>
    <TTGlyph name="glyph00287" xMin="0" yMin="263" xMax="1226" yMax="1282">
      <contour>
        <pt x="580" y="504" on="1"/>
        <pt x="619" y="583" on="0"/>
        <pt x="617" y="647" on="1"/>
        <pt x="230" y="647" on="1"/>
        <pt x="269" y="559" on="0"/>
        <pt x="320" y="488" on="1"/>
        <pt x="368" y="410" on="0"/>
        <pt x="448" y="409" on="1"/>
        <pt x="537" y="417" on="0"/>
      </contour>
      <contour>
        <pt x="0" y="825" on="1"/>
        <pt x="114" y="825" on="1"/>
        <pt x="233" y="995" on="0"/>
        <pt x="368" y="1133" on="1"/>
        <pt x="505" y="1278" on="0"/>
        <pt x="648" y="1282" on="1"/>
        <pt x="854" y="1277" on="0"/>
        <pt x="1137" y="1051" on="0"/>
        <pt x="1226" y="825" on="1"/>
        <pt x="1226" y="647" on="1"/>
        <pt x="1105" y="647" on="1"/>
        <pt x="1099" y="825" on="1"/>
        <pt x="1019" y="984" on="0"/>
        <pt x="903" y="1059" on="1"/>
        <pt x="808" y="1128" on="0"/>
        <pt x="653" y="1128" on="1"/>
        <pt x="543" y="1123" on="0"/>
        <pt x="448" y="1033" on="1"/>
        <pt x="353" y="937" on="0"/>
        <pt x="273" y="825" on="1"/>
        <pt x="569" y="825" on="1"/>
        <pt x="654" y="825" on="0"/>
        <pt x="716" y="749" on="0"/>
        <pt x="734" y="647" on="1"/>
        <pt x="734" y="555" on="0"/>
        <pt x="681" y="450" on="1"/>
        <pt x="593" y="263" on="0"/>
        <pt x="453" y="265" on="1"/>
        <pt x="349" y="270" on="0"/>
        <pt x="261" y="404" on="1"/>
        <pt x="174" y="533" on="0"/>
        <pt x="102" y="647" on="1"/>
        <pt x="0" y="647" on="1"/>
      </contour>
    </TTGlyph>
    <TTGlyph name="glyph00288" xMin="0" yMin="263" xMax="1169" yMax="1288">
      <contour>
        <pt x="1046" y="647" on="1"/>
        <pt x="1041" y="825" on="1"/>
        <pt x="929" y="1126" on="0"/>
        <pt x="794" y="1119" on="1"/>
        <pt x="685" y="1124" on="0"/>
        <pt x="632" y="974" on="1"/>
        <pt x="589" y="1125" on="0"/>
        <pt x="494" y="1129" on="1"/>
        <pt x="420" y="1124" on="0"/>
        <pt x="340" y="1033" on="1"/>
        <pt x="263" y="945" on="0"/>
        <pt x="202" y="825" on="1"/>
        <pt x="509" y="825" on="1"/>
        <pt x="594" y="818" on="0"/>
        <pt x="626" y="740" on="1"/>
        <pt x="675" y="603" on="0"/>
        <pt x="621" y="450" on="1"/>
        <pt x="539" y="263" on="0"/>
        <pt x="394" y="264" on="1"/>
        <pt x="286" y="269" on="0"/>
        <pt x="196" y="402" on="1"/>
        <pt x="112" y="528" on="0"/>
        <pt x="54" y="647" on="1"/>
        <pt x="35" y="698" on="0"/>
        <pt x="0" y="746" on="1"/>
        <pt x="26" y="770" on="0"/>
        <pt x="48" y="810" on="1"/>
        <pt x="154" y="996" on="0"/>
        <pt x="244" y="1129" on="1"/>
        <pt x="348" y="1277" on="0"/>
        <pt x="484" y="1283" on="1"/>
        <pt x="571" y="1288" on="0"/>
        <pt x="643" y="1134" on="1"/>
        <pt x="727" y="1283" on="0"/>
        <pt x="815" y="1273" on="1"/>
        <pt x="943" y="1269" on="0"/>
        <pt x="1124" y="1033" on="0"/>
        <pt x="1169" y="825" on="1"/>
        <pt x="1169" y="647" on="1"/>
      </contour>
      <contour>
        <pt x="520" y="504" on="1"/>
        <pt x="566" y="583" on="0"/>
        <pt x="531" y="647" on="1"/>
        <pt x="169" y="647" on="1"/>
        <pt x="218" y="559" on="0"/>
        <pt x="260" y="487" on="1"/>
        <pt x="308" y="410" on="0"/>
        <pt x="388" y="408" on="1"/>
        <pt x="478" y="416" on="0"/>
      </contour>
    </TTGlyph>
    <TTGlyph name="glyph00289" xMin="0" yMin="263" xMax="1218" yMax="1288">
      <contour>
        <pt x="570" y="504" on="1"/>
        <pt x="615" y="583" on="0"/>
        <pt x="581" y="647" on="1"/>
        <pt x="219" y="647" on="1"/>
        <pt x="268" y="559" on="0"/>
        <pt x="310" y="487" on="1"/>
        <pt x="357" y="410" on="0"/>
        <pt x="438" y="408" on="1"/>
        <pt x="528" y="416" on="0"/>
      </contour>
      <contour>
        <pt x="0" y="825" on="1"/>
        <pt x="102" y="825" on="1"/>
        <pt x="203" y="996" on="0"/>
        <pt x="293" y="1129" on="1"/>
        <pt x="397" y="1277" on="0"/>
        <pt x="533" y="1283" on="1"/>
        <pt x="621" y="1288" on="0"/>
        <pt x="692" y="1134" on="1"/>
        <pt x="777" y="1283" on="0"/>
        <pt x="864" y="1273" on="1"/>
        <pt x="992" y="1269" on="0"/>
        <pt x="1173" y="1043" on="0"/>
        <pt x="1218" y="825" on="1"/>
        <pt x="1218" y="647" on="1"/>
        <pt x="1096" y="647" on="1"/>
        <pt x="1091" y="825" on="1"/>
        <pt x="978" y="1126" on="0"/>
        <pt x="843" y="1119" on="1"/>
        <pt x="735" y="1124" on="0"/>
        <pt x="682" y="974" on="1"/>
        <pt x="638" y="1125" on="0"/>
        <pt x="543" y="1129" on="1"/>
        <pt x="469" y="1124" on="0"/>
        <pt x="390" y="1033" on="1"/>
        <pt x="312" y="945" on="0"/>
        <pt x="252" y="825" on="1"/>
        <pt x="559" y="825" on="1"/>
        <pt x="644" y="818" on="0"/>
        <pt x="677" y="740" on="1"/>
        <pt x="724" y="603" on="0"/>
        <pt x="672" y="450" on="1"/>
        <pt x="588" y="263" on="0"/>
        <pt x="443" y="264" on="1"/>
        <pt x="337" y="269" on="0"/>
        <pt x="247" y="402" on="1"/>
        <pt x="162" y="528" on="0"/>
        <pt x="102" y="647" on="1"/>
        <pt x="0" y="647" on="1"/>
      </contour>
    </TTGlyph>
    <TTGlyph name="glyph00290" xMin="0" yMin="255" xMax="799" yMax="825">
      <contour>
        <pt x="208" y="647" on="1"/>
        <pt x="105" y="255" on="1"/>
        <pt x="0" y="647" on="1"/>
        <pt x="0" y="825" on="1"/>
        <pt x="799" y="825" on="1"/>
        <pt x="799" y="647" on="1"/>
        <pt x="598" y="647" on="1"/>
        <pt x="495" y="255" on="1"/>
        <pt x="390" y="647" on="1"/>
      </contour>
    </TTGlyph>
    <TTGlyph name="glyph00291" xMin="-12" yMin="-468" xMax="485" yMax="825">
      <contour>
        <pt x="431" y="825" on="1"/>
        <pt x="431" y="647" on="1"/>
        <pt x="211" y="647" on="1"/>
        <pt x="105" y="251" on="1"/>
        <pt x="0" y="647" on="1"/>
        <pt x="0" y="825" on="1"/>
      </contour>
      <contour>
        <pt x="36" y="-207" on="1"/>
        <pt x="-12" y="-51" on="0"/>
        <pt x="83" y="85" on="1"/>
        <pt x="251" y="92" on="0"/>
        <pt x="274" y="-11" on="1"/>
        <pt x="277" y="-59" on="0"/>
        <pt x="200" y="-112" on="1"/>
        <pt x="126" y="-168" on="0"/>
      </contour>
      <contour>
        <pt x="245" y="-468" on="1"/>
        <pt x="196" y="-312" on="0"/>
        <pt x="291" y="-176" on="1"/>
        <pt x="459" y="-168" on="0"/>
        <pt x="483" y="-271" on="1"/>
        <pt x="485" y="-319" on="0"/>
        <pt x="409" y="-372" on="1"/>
        <pt x="334" y="-428" on="0"/>
      </contour>
    </TTGlyph>
    <TTGlyph name="glyph00292" xMin="0" yMin="-468" xMax="799" yMax="825">
      <contour>
        <pt x="197" y="-207" on="1"/>
        <pt x="149" y="-51" on="0"/>
        <pt x="244" y="85" on="1"/>
        <pt x="462" y="92" on="0"/>
        <pt x="435" y="-11" on="1"/>
        <pt x="438" y="-59" on="0"/>
        <pt x="361" y="-112" on="1"/>
        <pt x="287" y="-168" on="0"/>
      </contour>
      <contour>
        <pt x="406" y="-468" on="1"/>
        <pt x="357" y="-312" on="0"/>
        <pt x="452" y="-176" on="1"/>
        <pt x="620" y="-168" on="0"/>
        <pt x="644" y="-271" on="1"/>
        <pt x="646" y="-319" on="0"/>
        <pt x="570" y="-372" on="1"/>
        <pt x="495" y="-428" on="0"/>
      </contour>
      <contour>
        <pt x="208" y="647" on="1"/>
        <pt x="105" y="255" on="1"/>
        <pt x="0" y="647" on="1"/>
        <pt x="0" y="825" on="1"/>
        <pt x="799" y="825" on="1"/>
        <pt x="799" y="647" on="1"/>
        <pt x="598" y="647" on="1"/>
        <pt x="495" y="255" on="1"/>
        <pt x="390" y="647" on="1"/>
      </contour>
    </TTGlyph>
    <TTGlyph name="glyph00293" xMin="0" yMin="255" xMax="799" yMax="1304">
      <contour>
        <pt x="242" y="1164" on="0"/>
        <pt x="300" y="1301" on="1"/>
        <pt x="474" y="1304" on="0"/>
        <pt x="501" y="1206" on="1"/>
        <pt x="496" y="1158" on="0"/>
        <pt x="352" y="1048" on="0"/>
        <pt x="264" y="1011" on="1"/>
      </contour>
      <contour>
        <pt x="208" y="647" on="1"/>
        <pt x="105" y="255" on="1"/>
        <pt x="0" y="647" on="1"/>
        <pt x="0" y="825" on="1"/>
        <pt x="799" y="825" on="1"/>
        <pt x="799" y="647" on="1"/>
        <pt x="598" y="647" on="1"/>
        <pt x="495" y="255" on="1"/>
        <pt x="390" y="647" on="1"/>
      </contour>
    </TTGlyph>
    <TTGlyph name="glyph00294" xMin="0" yMin="255" xMax="799" yMax="1499">
      <contour>
        <pt x="349" y="1007" on="1"/>
        <pt x="270" y="1071" on="0"/>
        <pt x="207" y="1145" on="1"/>
        <pt x="140" y="1214" on="0"/>
        <pt x="139" y="1293" on="1"/>
        <pt x="149" y="1486" on="0"/>
        <pt x="344" y="1499" on="1"/>
        <pt x="529" y="1494" on="0"/>
        <pt x="539" y="1299" on="1"/>
        <pt x="534" y="1214" on="0"/>
        <pt x="466" y="1139" on="1"/>
        <pt x="394" y="1061" on="0"/>
      </contour>
      <contour>
        <pt x="349" y="1124" on="1"/>
        <pt x="437" y="1195" on="0"/>
        <pt x="444" y="1283" on="1"/>
        <pt x="444" y="1396" on="0"/>
        <pt x="344" y="1399" on="1"/>
        <pt x="242" y="1399" on="0"/>
        <pt x="234" y="1288" on="1"/>
        <pt x="239" y="1217" on="0"/>
      </contour>
      <contour>
        <pt x="208" y="647" on="1"/>
        <pt x="105" y="255" on="1"/>
        <pt x="0" y="647" on="1"/>
        <pt x="0" y="825" on="1"/>
        <pt x="799" y="825" on="1"/>
        <pt x="799" y="647" on="1"/>
        <pt x="598" y="647" on="1"/>
        <pt x="495" y="255" on="1"/>
        <pt x="390" y="647" on="1"/>
      </contour>
    </TTGlyph>
    <TTGlyph name="glyph00295" xMin="60" yMin="198" xMax="1107" yMax="1300">
      <contour>
        <pt x="60" y="303" on="1"/>
        <pt x="178" y="433" on="0"/>
        <pt x="232" y="556" on="1"/>
        <pt x="184" y="641" on="0"/>
        <pt x="168" y="656" on="1"/>
        <pt x="142" y="694" on="0"/>
        <pt x="100" y="746" on="1"/>
        <pt x="126" y="784" on="0"/>
        <pt x="168" y="847" on="1"/>
        <pt x="252" y="995" on="0"/>
        <pt x="384" y="1158" on="1"/>
        <pt x="516" y="1292" on="0"/>
        <pt x="696" y="1300" on="1"/>
        <pt x="878" y="1299" on="0"/>
        <pt x="991" y="1153" on="1"/>
        <pt x="1105" y="1008" on="0"/>
        <pt x="1107" y="825" on="1"/>
        <pt x="1107" y="646" on="1"/>
        <pt x="1022" y="618" on="0"/>
        <pt x="991" y="825" on="1"/>
        <pt x="951" y="1113" on="0"/>
        <pt x="706" y="1126" on="1"/>
        <pt x="506" y="1119" on="0"/>
        <pt x="396" y="985" on="1"/>
        <pt x="284" y="857" on="0"/>
        <pt x="284" y="762" on="1"/>
        <pt x="287" y="699" on="0"/>
        <pt x="353" y="598" on="1"/>
        <pt x="419" y="488" on="0"/>
        <pt x="501" y="405" on="1"/>
        <pt x="512" y="396" on="0"/>
        <pt x="506" y="366" on="1"/>
        <pt x="471" y="266" on="0"/>
        <pt x="417" y="214" on="1"/>
        <pt x="403" y="198" on="0"/>
        <pt x="401" y="224" on="1"/>
        <pt x="361" y="311" on="0"/>
        <pt x="322" y="393" on="1"/>
        <pt x="163" y="276" on="0"/>
      </contour>
    </TTGlyph>
    <TTGlyph name="glyph00296" xMin="100" yMin="197" xMax="1120" yMax="1301">
      <contour>
        <pt x="100" y="746" on="1"/>
        <pt x="127" y="784" on="0"/>
        <pt x="169" y="847" on="1"/>
        <pt x="253" y="995" on="0"/>
        <pt x="386" y="1159" on="1"/>
        <pt x="517" y="1294" on="0"/>
        <pt x="698" y="1301" on="1"/>
        <pt x="880" y="1300" on="0"/>
        <pt x="994" y="1154" on="1"/>
        <pt x="1107" y="1009" on="0"/>
        <pt x="1120" y="825" on="1"/>
        <pt x="1120" y="736" on="1"/>
        <pt x="1120" y="646" on="0"/>
        <pt x="997" y="649" on="0"/>
        <pt x="994" y="825" on="1"/>
        <pt x="954" y="1114" on="0"/>
        <pt x="708" y="1127" on="1"/>
        <pt x="507" y="1119" on="0"/>
        <pt x="397" y="985" on="1"/>
        <pt x="285" y="857" on="0"/>
        <pt x="285" y="762" on="1"/>
        <pt x="287" y="699" on="0"/>
        <pt x="354" y="598" on="1"/>
        <pt x="420" y="487" on="0"/>
        <pt x="502" y="402" on="1"/>
        <pt x="512" y="394" on="0"/>
        <pt x="507" y="366" on="1"/>
        <pt x="472" y="265" on="0"/>
        <pt x="417" y="212" on="1"/>
        <pt x="404" y="197" on="0"/>
        <pt x="403" y="223" on="1"/>
        <pt x="330" y="374" on="0"/>
        <pt x="259" y="503" on="1"/>
        <pt x="185" y="636" on="0"/>
        <pt x="169" y="656" on="1"/>
        <pt x="143" y="694" on="0"/>
      </contour>
    </TTGlyph>
    <TTGlyph name="glyph00297" xMin="60" yMin="198" xMax="1107" yMax="1728">
      <contour>
        <pt x="60" y="303" on="1"/>
        <pt x="178" y="433" on="0"/>
        <pt x="232" y="556" on="1"/>
        <pt x="184" y="641" on="0"/>
        <pt x="168" y="656" on="1"/>
        <pt x="142" y="694" on="0"/>
        <pt x="100" y="746" on="1"/>
        <pt x="126" y="784" on="0"/>
        <pt x="168" y="847" on="1"/>
        <pt x="252" y="995" on="0"/>
        <pt x="384" y="1158" on="1"/>
        <pt x="516" y="1292" on="0"/>
        <pt x="696" y="1300" on="1"/>
        <pt x="878" y="1299" on="0"/>
        <pt x="991" y="1153" on="1"/>
        <pt x="1105" y="1008" on="0"/>
        <pt x="1107" y="825" on="1"/>
        <pt x="1107" y="646" on="1"/>
        <pt x="1022" y="618" on="0"/>
        <pt x="991" y="825" on="1"/>
        <pt x="951" y="1113" on="0"/>
        <pt x="706" y="1126" on="1"/>
        <pt x="506" y="1119" on="0"/>
        <pt x="396" y="985" on="1"/>
        <pt x="284" y="857" on="0"/>
        <pt x="284" y="762" on="1"/>
        <pt x="287" y="699" on="0"/>
        <pt x="353" y="598" on="1"/>
        <pt x="419" y="488" on="0"/>
        <pt x="501" y="405" on="1"/>
        <pt x="512" y="396" on="0"/>
        <pt x="506" y="366" on="1"/>
        <pt x="471" y="266" on="0"/>
        <pt x="417" y="214" on="1"/>
        <pt x="403" y="198" on="0"/>
        <pt x="401" y="224" on="1"/>
        <pt x="361" y="311" on="0"/>
        <pt x="322" y="393" on="1"/>
        <pt x="163" y="276" on="0"/>
      </contour>
      <contour>
        <pt x="576" y="1589" on="0"/>
        <pt x="633" y="1726" on="1"/>
        <pt x="808" y="1728" on="0"/>
        <pt x="834" y="1631" on="1"/>
        <pt x="828" y="1584" on="0"/>
        <pt x="686" y="1473" on="0"/>
        <pt x="596" y="1436" on="1"/>
      </contour>
    </TTGlyph>
    <TTGlyph name="glyph00298" xMin="100" yMin="197" xMax="1120" yMax="1728">
      <contour>
        <pt x="567" y="1589" on="0"/>
        <pt x="625" y="1726" on="1"/>
        <pt x="800" y="1728" on="0"/>
        <pt x="826" y="1631" on="1"/>
        <pt x="821" y="1584" on="0"/>
        <pt x="677" y="1473" on="0"/>
        <pt x="589" y="1436" on="1"/>
      </contour>
      <contour>
        <pt x="100" y="746" on="1"/>
        <pt x="127" y="784" on="0"/>
        <pt x="169" y="847" on="1"/>
        <pt x="253" y="995" on="0"/>
        <pt x="386" y="1159" on="1"/>
        <pt x="517" y="1294" on="0"/>
        <pt x="698" y="1301" on="1"/>
        <pt x="880" y="1300" on="0"/>
        <pt x="994" y="1154" on="1"/>
        <pt x="1107" y="1009" on="0"/>
        <pt x="1120" y="825" on="1"/>
        <pt x="1120" y="736" on="1"/>
        <pt x="1120" y="646" on="0"/>
        <pt x="997" y="649" on="0"/>
        <pt x="994" y="825" on="1"/>
        <pt x="954" y="1114" on="0"/>
        <pt x="708" y="1127" on="1"/>
        <pt x="507" y="1119" on="0"/>
        <pt x="397" y="985" on="1"/>
        <pt x="285" y="857" on="0"/>
        <pt x="285" y="762" on="1"/>
        <pt x="287" y="699" on="0"/>
        <pt x="354" y="598" on="1"/>
        <pt x="420" y="487" on="0"/>
        <pt x="502" y="402" on="1"/>
        <pt x="512" y="394" on="0"/>
        <pt x="507" y="366" on="1"/>
        <pt x="472" y="265" on="0"/>
        <pt x="417" y="212" on="1"/>
        <pt x="404" y="197" on="0"/>
        <pt x="403" y="223" on="1"/>
        <pt x="330" y="374" on="0"/>
        <pt x="259" y="503" on="1"/>
        <pt x="185" y="636" on="0"/>
        <pt x="169" y="656" on="1"/>
        <pt x="143" y="694" on="0"/>
      </contour>
    </TTGlyph>
    <TTGlyph name="glyph00299" xMin="60" yMin="198" xMax="1107" yMax="1841">
      <contour>
        <pt x="60" y="303" on="1"/>
        <pt x="178" y="433" on="0"/>
        <pt x="232" y="556" on="1"/>
        <pt x="184" y="641" on="0"/>
        <pt x="168" y="656" on="1"/>
        <pt x="142" y="694" on="0"/>
        <pt x="100" y="746" on="1"/>
        <pt x="126" y="784" on="0"/>
        <pt x="168" y="847" on="1"/>
        <pt x="252" y="995" on="0"/>
        <pt x="384" y="1158" on="1"/>
        <pt x="516" y="1292" on="0"/>
        <pt x="696" y="1300" on="1"/>
        <pt x="878" y="1299" on="0"/>
        <pt x="991" y="1153" on="1"/>
        <pt x="1105" y="1008" on="0"/>
        <pt x="1107" y="825" on="1"/>
        <pt x="1107" y="646" on="1"/>
        <pt x="1022" y="618" on="0"/>
        <pt x="991" y="825" on="1"/>
        <pt x="951" y="1113" on="0"/>
        <pt x="706" y="1126" on="1"/>
        <pt x="506" y="1119" on="0"/>
        <pt x="396" y="985" on="1"/>
        <pt x="284" y="857" on="0"/>
        <pt x="284" y="762" on="1"/>
        <pt x="287" y="699" on="0"/>
        <pt x="353" y="598" on="1"/>
        <pt x="419" y="488" on="0"/>
        <pt x="501" y="405" on="1"/>
        <pt x="512" y="396" on="0"/>
        <pt x="506" y="366" on="1"/>
        <pt x="471" y="266" on="0"/>
        <pt x="417" y="214" on="1"/>
        <pt x="403" y="198" on="0"/>
        <pt x="401" y="224" on="1"/>
        <pt x="361" y="311" on="0"/>
        <pt x="322" y="393" on="1"/>
        <pt x="163" y="276" on="0"/>
      </contour>
      <contour>
        <pt x="697" y="1347" on="1"/>
        <pt x="618" y="1413" on="0"/>
        <pt x="553" y="1486" on="1"/>
        <pt x="488" y="1555" on="0"/>
        <pt x="485" y="1635" on="1"/>
        <pt x="496" y="1829" on="0"/>
        <pt x="692" y="1841" on="1"/>
        <pt x="878" y="1836" on="0"/>
        <pt x="888" y="1640" on="1"/>
        <pt x="883" y="1555" on="0"/>
        <pt x="814" y="1481" on="1"/>
        <pt x="742" y="1402" on="0"/>
      </contour>
      <contour>
        <pt x="697" y="1464" on="1"/>
        <pt x="784" y="1536" on="0"/>
        <pt x="792" y="1623" on="1"/>
        <pt x="792" y="1739" on="0"/>
        <pt x="692" y="1741" on="1"/>
        <pt x="588" y="1741" on="0"/>
        <pt x="580" y="1629" on="1"/>
        <pt x="585" y="1558" on="0"/>
      </contour>
    </TTGlyph>
    <TTGlyph name="glyph00300" xMin="100" yMin="197" xMax="1120" yMax="1867">
      <contour>
        <pt x="705" y="1374" on="1"/>
        <pt x="627" y="1437" on="0"/>
        <pt x="562" y="1512" on="1"/>
        <pt x="496" y="1581" on="0"/>
        <pt x="494" y="1662" on="1"/>
        <pt x="505" y="1855" on="0"/>
        <pt x="700" y="1867" on="1"/>
        <pt x="886" y="1862" on="0"/>
        <pt x="896" y="1667" on="1"/>
        <pt x="891" y="1581" on="0"/>
        <pt x="823" y="1507" on="1"/>
        <pt x="750" y="1428" on="0"/>
      </contour>
      <contour>
        <pt x="705" y="1491" on="1"/>
        <pt x="794" y="1562" on="0"/>
        <pt x="801" y="1650" on="1"/>
        <pt x="801" y="1765" on="0"/>
        <pt x="700" y="1767" on="1"/>
        <pt x="596" y="1767" on="0"/>
        <pt x="590" y="1655" on="1"/>
        <pt x="595" y="1584" on="0"/>
      </contour>
      <contour>
        <pt x="100" y="746" on="1"/>
        <pt x="127" y="784" on="0"/>
        <pt x="169" y="847" on="1"/>
        <pt x="253" y="995" on="0"/>
        <pt x="386" y="1159" on="1"/>
        <pt x="517" y="1294" on="0"/>
        <pt x="698" y="1301" on="1"/>
        <pt x="880" y="1300" on="0"/>
        <pt x="994" y="1154" on="1"/>
        <pt x="1107" y="1009" on="0"/>
        <pt x="1120" y="825" on="1"/>
        <pt x="1120" y="736" on="1"/>
        <pt x="1120" y="646" on="0"/>
        <pt x="997" y="649" on="0"/>
        <pt x="994" y="825" on="1"/>
        <pt x="954" y="1114" on="0"/>
        <pt x="708" y="1127" on="1"/>
        <pt x="507" y="1119" on="0"/>
        <pt x="397" y="985" on="1"/>
        <pt x="285" y="857" on="0"/>
        <pt x="285" y="762" on="1"/>
        <pt x="287" y="699" on="0"/>
        <pt x="354" y="598" on="1"/>
        <pt x="420" y="487" on="0"/>
        <pt x="502" y="402" on="1"/>
        <pt x="512" y="394" on="0"/>
        <pt x="507" y="366" on="1"/>
        <pt x="472" y="265" on="0"/>
        <pt x="417" y="212" on="1"/>
        <pt x="404" y="197" on="0"/>
        <pt x="403" y="223" on="1"/>
        <pt x="330" y="374" on="0"/>
        <pt x="259" y="503" on="1"/>
        <pt x="185" y="636" on="0"/>
        <pt x="169" y="656" on="1"/>
        <pt x="143" y="694" on="0"/>
      </contour>
    </TTGlyph>
    <TTGlyph name="glyph00301" xMin="0" yMin="198" xMax="1049" yMax="1300">
      <contour>
        <pt x="102" y="825" on="1"/>
        <pt x="194" y="995" on="0"/>
        <pt x="326" y="1158" on="1"/>
        <pt x="457" y="1292" on="0"/>
        <pt x="638" y="1300" on="1"/>
        <pt x="819" y="1299" on="0"/>
        <pt x="932" y="1153" on="1"/>
        <pt x="1046" y="1008" on="0"/>
        <pt x="1049" y="825" on="1"/>
        <pt x="1049" y="646" on="1"/>
        <pt x="964" y="618" on="0"/>
        <pt x="932" y="825" on="1"/>
        <pt x="893" y="1113" on="0"/>
        <pt x="648" y="1126" on="1"/>
        <pt x="448" y="1119" on="0"/>
        <pt x="337" y="985" on="1"/>
        <pt x="225" y="857" on="0"/>
        <pt x="225" y="762" on="1"/>
        <pt x="229" y="699" on="0"/>
        <pt x="294" y="598" on="1"/>
        <pt x="360" y="488" on="0"/>
        <pt x="442" y="405" on="1"/>
        <pt x="454" y="396" on="0"/>
        <pt x="448" y="366" on="1"/>
        <pt x="413" y="266" on="0"/>
        <pt x="359" y="214" on="1"/>
        <pt x="345" y="198" on="0"/>
        <pt x="343" y="224" on="1"/>
        <pt x="303" y="311" on="0"/>
        <pt x="264" y="393" on="1"/>
        <pt x="105" y="276" on="0"/>
        <pt x="2" y="303" on="1"/>
        <pt x="120" y="433" on="0"/>
        <pt x="173" y="556" on="1"/>
        <pt x="125" y="641" on="0"/>
        <pt x="102" y="648" on="1"/>
        <pt x="0" y="648" on="1"/>
        <pt x="0" y="825" on="1"/>
      </contour>
    </TTGlyph>
    <TTGlyph name="glyph00302" xMin="0" yMin="194" xMax="1058" yMax="1304">
      <contour>
        <pt x="72" y="825" on="1"/>
        <pt x="95" y="847" on="0"/>
        <pt x="181" y="995" on="0"/>
        <pt x="314" y="1160" on="1"/>
        <pt x="445" y="1295" on="0"/>
        <pt x="626" y="1304" on="1"/>
        <pt x="808" y="1300" on="0"/>
        <pt x="924" y="1155" on="1"/>
        <pt x="1038" y="1010" on="0"/>
        <pt x="1051" y="825" on="1"/>
        <pt x="1058" y="646" on="0"/>
        <pt x="926" y="648" on="0"/>
        <pt x="924" y="825" on="1"/>
        <pt x="884" y="1115" on="0"/>
        <pt x="638" y="1128" on="1"/>
        <pt x="435" y="1120" on="0"/>
        <pt x="325" y="985" on="1"/>
        <pt x="212" y="857" on="0"/>
        <pt x="212" y="762" on="1"/>
        <pt x="214" y="698" on="0"/>
        <pt x="281" y="597" on="1"/>
        <pt x="348" y="486" on="0"/>
        <pt x="430" y="401" on="1"/>
        <pt x="440" y="393" on="0"/>
        <pt x="435" y="365" on="1"/>
        <pt x="400" y="263" on="0"/>
        <pt x="344" y="210" on="1"/>
        <pt x="332" y="194" on="0"/>
        <pt x="330" y="221" on="1"/>
        <pt x="258" y="371" on="0"/>
        <pt x="186" y="502" on="1"/>
        <pt x="127" y="607" on="0"/>
        <pt x="102" y="647" on="1"/>
        <pt x="0" y="647" on="1"/>
        <pt x="0" y="825" on="1"/>
      </contour>
    </TTGlyph>
</ttFont>
